%TF.GenerationSoftware,KiCad,Pcbnew,(7.0.0)*%
%TF.CreationDate,2023-12-11T14:41:33-05:00*%
%TF.ProjectId,stm32-accel-breakout,73746d33-322d-4616-9363-656c2d627265,rev?*%
%TF.SameCoordinates,Original*%
%TF.FileFunction,Copper,L1,Top*%
%TF.FilePolarity,Positive*%
%FSLAX46Y46*%
G04 Gerber Fmt 4.6, Leading zero omitted, Abs format (unit mm)*
G04 Created by KiCad (PCBNEW (7.0.0)) date 2023-12-11 14:41:33*
%MOMM*%
%LPD*%
G01*
G04 APERTURE LIST*
G04 Aperture macros list*
%AMRoundRect*
0 Rectangle with rounded corners*
0 $1 Rounding radius*
0 $2 $3 $4 $5 $6 $7 $8 $9 X,Y pos of 4 corners*
0 Add a 4 corners polygon primitive as box body*
4,1,4,$2,$3,$4,$5,$6,$7,$8,$9,$2,$3,0*
0 Add four circle primitives for the rounded corners*
1,1,$1+$1,$2,$3*
1,1,$1+$1,$4,$5*
1,1,$1+$1,$6,$7*
1,1,$1+$1,$8,$9*
0 Add four rect primitives between the rounded corners*
20,1,$1+$1,$2,$3,$4,$5,0*
20,1,$1+$1,$4,$5,$6,$7,0*
20,1,$1+$1,$6,$7,$8,$9,0*
20,1,$1+$1,$8,$9,$2,$3,0*%
%AMHorizOval*
0 Thick line with rounded ends*
0 $1 width*
0 $2 $3 position (X,Y) of the first rounded end (center of the circle)*
0 $4 $5 position (X,Y) of the second rounded end (center of the circle)*
0 Add line between two ends*
20,1,$1,$2,$3,$4,$5,0*
0 Add two circle primitives to create the rounded ends*
1,1,$1,$2,$3*
1,1,$1,$4,$5*%
%AMRotRect*
0 Rectangle, with rotation*
0 The origin of the aperture is its center*
0 $1 length*
0 $2 width*
0 $3 Rotation angle, in degrees counterclockwise*
0 Add horizontal line*
21,1,$1,$2,0,0,$3*%
%AMFreePoly0*
4,1,6,0.500000,-0.750000,-0.650000,-0.750000,-0.150000,0.000000,-0.650000,0.750000,0.500000,0.750000,0.500000,-0.750000,0.500000,-0.750000,$1*%
%AMFreePoly1*
4,1,6,1.000000,0.000000,0.500000,-0.750000,-0.500000,-0.750000,-0.500000,0.750000,0.500000,0.750000,1.000000,0.000000,1.000000,0.000000,$1*%
G04 Aperture macros list end*
%TA.AperFunction,ComponentPad*%
%ADD10C,4.700000*%
%TD*%
%TA.AperFunction,SMDPad,CuDef*%
%ADD11R,0.300000X1.150000*%
%TD*%
%TA.AperFunction,ComponentPad*%
%ADD12O,1.000000X2.100000*%
%TD*%
%TA.AperFunction,ComponentPad*%
%ADD13O,1.000000X1.600000*%
%TD*%
%TA.AperFunction,SMDPad,CuDef*%
%ADD14RoundRect,0.150000X-0.512500X-0.150000X0.512500X-0.150000X0.512500X0.150000X-0.512500X0.150000X0*%
%TD*%
%TA.AperFunction,SMDPad,CuDef*%
%ADD15RoundRect,0.250000X0.054784X0.580112X-0.529784X0.242612X-0.054784X-0.580112X0.529784X-0.242612X0*%
%TD*%
%TA.AperFunction,SMDPad,CuDef*%
%ADD16RoundRect,0.100000X0.101554X0.174103X-0.201554X-0.000897X-0.101554X-0.174103X0.201554X0.000897X0*%
%TD*%
%TA.AperFunction,SMDPad,CuDef*%
%ADD17RoundRect,0.100000X-0.000897X0.201554X-0.174103X0.101554X0.000897X-0.201554X0.174103X-0.101554X0*%
%TD*%
%TA.AperFunction,SMDPad,CuDef*%
%ADD18RotRect,1.950000X1.950000X210.000000*%
%TD*%
%TA.AperFunction,SMDPad,CuDef*%
%ADD19RoundRect,0.200000X0.275000X-0.200000X0.275000X0.200000X-0.275000X0.200000X-0.275000X-0.200000X0*%
%TD*%
%TA.AperFunction,ComponentPad*%
%ADD20RotRect,1.700000X1.700000X150.000000*%
%TD*%
%TA.AperFunction,ComponentPad*%
%ADD21HorizOval,1.700000X0.000000X0.000000X0.000000X0.000000X0*%
%TD*%
%TA.AperFunction,SMDPad,CuDef*%
%ADD22RoundRect,0.200000X0.200000X0.275000X-0.200000X0.275000X-0.200000X-0.275000X0.200000X-0.275000X0*%
%TD*%
%TA.AperFunction,SMDPad,CuDef*%
%ADD23RoundRect,0.075000X-0.662500X-0.075000X0.662500X-0.075000X0.662500X0.075000X-0.662500X0.075000X0*%
%TD*%
%TA.AperFunction,SMDPad,CuDef*%
%ADD24RoundRect,0.075000X-0.075000X-0.662500X0.075000X-0.662500X0.075000X0.662500X-0.075000X0.662500X0*%
%TD*%
%TA.AperFunction,SMDPad,CuDef*%
%ADD25RoundRect,0.200000X-0.275000X0.200000X-0.275000X-0.200000X0.275000X-0.200000X0.275000X0.200000X0*%
%TD*%
%TA.AperFunction,SMDPad,CuDef*%
%ADD26RoundRect,0.237500X-0.287500X-0.237500X0.287500X-0.237500X0.287500X0.237500X-0.287500X0.237500X0*%
%TD*%
%TA.AperFunction,SMDPad,CuDef*%
%ADD27RoundRect,0.225000X0.250000X-0.225000X0.250000X0.225000X-0.250000X0.225000X-0.250000X-0.225000X0*%
%TD*%
%TA.AperFunction,SMDPad,CuDef*%
%ADD28RoundRect,0.225000X0.069856X0.329006X-0.319856X0.104006X-0.069856X-0.329006X0.319856X-0.104006X0*%
%TD*%
%TA.AperFunction,SMDPad,CuDef*%
%ADD29RoundRect,0.225000X0.225000X0.250000X-0.225000X0.250000X-0.225000X-0.250000X0.225000X-0.250000X0*%
%TD*%
%TA.AperFunction,SMDPad,CuDef*%
%ADD30RoundRect,0.225000X-0.225000X-0.250000X0.225000X-0.250000X0.225000X0.250000X-0.225000X0.250000X0*%
%TD*%
%TA.AperFunction,SMDPad,CuDef*%
%ADD31RoundRect,0.225000X-0.250000X0.225000X-0.250000X-0.225000X0.250000X-0.225000X0.250000X0.225000X0*%
%TD*%
%TA.AperFunction,SMDPad,CuDef*%
%ADD32FreePoly0,120.000000*%
%TD*%
%TA.AperFunction,SMDPad,CuDef*%
%ADD33FreePoly1,120.000000*%
%TD*%
%TA.AperFunction,SMDPad,CuDef*%
%ADD34RoundRect,0.150000X0.150000X0.625000X-0.150000X0.625000X-0.150000X-0.625000X0.150000X-0.625000X0*%
%TD*%
%TA.AperFunction,SMDPad,CuDef*%
%ADD35RoundRect,0.250000X0.350000X0.650000X-0.350000X0.650000X-0.350000X-0.650000X0.350000X-0.650000X0*%
%TD*%
%TA.AperFunction,ConnectorPad*%
%ADD36C,0.787400*%
%TD*%
%TA.AperFunction,SMDPad,CuDef*%
%ADD37RoundRect,0.200000X-0.035705X-0.338157X0.310705X-0.138157X0.035705X0.338157X-0.310705X0.138157X0*%
%TD*%
%TA.AperFunction,SMDPad,CuDef*%
%ADD38R,1.200000X1.400000*%
%TD*%
%TA.AperFunction,ViaPad*%
%ADD39C,0.800000*%
%TD*%
%TA.AperFunction,Conductor*%
%ADD40C,0.250000*%
%TD*%
%TA.AperFunction,Conductor*%
%ADD41C,0.200000*%
%TD*%
G04 APERTURE END LIST*
D10*
%TO.P,H6,1,1*%
%TO.N,GND*%
X168327215Y-100278051D03*
%TD*%
%TO.P,H5,1,1*%
%TO.N,GND*%
X131327215Y-100278051D03*
%TD*%
%TO.P,H4,1,1*%
%TO.N,GND*%
X140577215Y-84278051D03*
%TD*%
%TO.P,H3,1,1*%
%TO.N,GND*%
X159077215Y-84278051D03*
%TD*%
%TO.P,H2,1,1*%
%TO.N,GND*%
X159077215Y-116278051D03*
%TD*%
%TO.P,H1,1,1*%
%TO.N,GND*%
X140577215Y-116278051D03*
%TD*%
D11*
%TO.P,J1,A1,GND*%
%TO.N,GND*%
X153177214Y-88698050D03*
%TO.P,J1,A4,VBUS*%
%TO.N,+5V*%
X152377214Y-88698050D03*
%TO.P,J1,A5,CC1*%
%TO.N,Net-(J1-CC1)*%
X151077214Y-88698050D03*
%TO.P,J1,A6,D+*%
%TO.N,USB_D+*%
X150077214Y-88698050D03*
%TO.P,J1,A7,D-*%
%TO.N,USB_D-*%
X149577214Y-88698050D03*
%TO.P,J1,A8,SBU1*%
%TO.N,unconnected-(J1-SBU1-PadA8)*%
X148577214Y-88698050D03*
%TO.P,J1,A9,VBUS*%
%TO.N,+5V*%
X147277214Y-88698050D03*
%TO.P,J1,A12,GND*%
%TO.N,GND*%
X146477214Y-88698050D03*
%TO.P,J1,B1,GND*%
X146777214Y-88698050D03*
%TO.P,J1,B4,VBUS*%
%TO.N,+5V*%
X147577214Y-88698050D03*
%TO.P,J1,B5,CC2*%
%TO.N,Net-(J1-CC2)*%
X148077214Y-88698050D03*
%TO.P,J1,B6,D+*%
%TO.N,USB_D+*%
X149077214Y-88698050D03*
%TO.P,J1,B7,D-*%
%TO.N,USB_D-*%
X150577214Y-88698050D03*
%TO.P,J1,B8,SBU2*%
%TO.N,unconnected-(J1-SBU2-PadB8)*%
X151577214Y-88698050D03*
%TO.P,J1,B9,VBUS*%
%TO.N,+5V*%
X152077214Y-88698050D03*
%TO.P,J1,B12,GND*%
%TO.N,GND*%
X152877214Y-88698050D03*
D12*
%TO.P,J1,S1,SHIELD*%
X154147214Y-88133050D03*
D13*
X154147214Y-83953050D03*
D12*
X145507214Y-88133050D03*
D13*
X145507214Y-83953050D03*
%TD*%
D14*
%TO.P,U2,1,VIN*%
%TO.N,+5V*%
X156152215Y-90528051D03*
%TO.P,U2,2,GND*%
%TO.N,GND*%
X156152215Y-91478051D03*
%TO.P,U2,3,EN*%
%TO.N,+5V*%
X156152215Y-92428051D03*
%TO.P,U2,4,NC*%
%TO.N,unconnected-(U2-NC-Pad4)*%
X158427215Y-92428051D03*
%TO.P,U2,5,VOUT*%
%TO.N,+3.3V*%
X158427215Y-90528051D03*
%TD*%
D15*
%TO.P,C7,1*%
%TO.N,ADXL_Z1_{out}*%
X135017215Y-105664578D03*
%TO.P,C7,2*%
%TO.N,GND*%
X133220213Y-106702078D03*
%TD*%
D16*
%TO.P,U3,1,NC*%
%TO.N,unconnected-(U3-NC-Pad1)*%
X140186958Y-104472426D03*
%TO.P,U3,2,ST*%
%TO.N,ADXL_SELF_TEST*%
X139861958Y-103909509D03*
%TO.P,U3,3,COM*%
%TO.N,GND*%
X139536958Y-103346593D03*
%TO.P,U3,4,NC*%
%TO.N,unconnected-(U3-NC-Pad4)*%
X139211958Y-102783676D03*
D17*
%TO.P,U3,5,COM*%
%TO.N,GND*%
X138221590Y-102518308D03*
%TO.P,U3,6,COM*%
X137658673Y-102843308D03*
%TO.P,U3,7,COM*%
X137095757Y-103168308D03*
%TO.P,U3,8,Z_out*%
%TO.N,ADXL_Z1_{out}*%
X136532840Y-103493308D03*
D16*
%TO.P,U3,9,NC*%
%TO.N,unconnected-(U3-NC-Pad9)*%
X136267472Y-104483676D03*
%TO.P,U3,10,Y_out*%
%TO.N,ADXL_Y1_{out}*%
X136592472Y-105046593D03*
%TO.P,U3,11,NC*%
%TO.N,unconnected-(U3-NC-Pad11)*%
X136917472Y-105609509D03*
%TO.P,U3,12,X_out*%
%TO.N,ADXL_X1_{out}*%
X137242472Y-106172426D03*
D17*
%TO.P,U3,13,NC*%
%TO.N,unconnected-(U3-NC-Pad13)*%
X138232840Y-106437794D03*
%TO.P,U3,14,V_s*%
%TO.N,+3.3V*%
X138795757Y-106112794D03*
%TO.P,U3,15,V_s*%
X139358673Y-105787794D03*
%TO.P,U3,16,NC*%
%TO.N,unconnected-(U3-NC-Pad16)*%
X139921590Y-105462794D03*
D18*
%TO.P,U3,EP,EP*%
%TO.N,unconnected-(U3-PadEP)*%
X138227214Y-104478050D03*
%TD*%
D19*
%TO.P,R6,1*%
%TO.N,Net-(U1-PA11)*%
X149227215Y-92503051D03*
%TO.P,R6,2*%
%TO.N,USB_D-*%
X149227215Y-90853051D03*
%TD*%
D20*
%TO.P,J3,1,Pin_1*%
%TO.N,GND*%
X160949999Y-110149999D03*
D21*
%TO.P,J3,2,Pin_2*%
%TO.N,TX1*%
X162219999Y-107950294D03*
%TO.P,J3,3,Pin_3*%
%TO.N,RX1*%
X163489999Y-105750590D03*
%TD*%
D22*
%TO.P,R7,1*%
%TO.N,RST*%
X143852215Y-105678051D03*
%TO.P,R7,2*%
%TO.N,+3.3V*%
X142202215Y-105678051D03*
%TD*%
%TO.P,R10,1*%
%TO.N,GND*%
X153175000Y-115600000D03*
%TO.P,R10,2*%
%TO.N,Net-(D2-K)*%
X151525000Y-115600000D03*
%TD*%
D23*
%TO.P,U1,1,VBAT*%
%TO.N,+3.3V*%
X145587500Y-97587500D03*
%TO.P,U1,2,PC13*%
%TO.N,unconnected-(U1-PC13-Pad2)*%
X145587500Y-98087500D03*
%TO.P,U1,3,PC14*%
%TO.N,unconnected-(U1-PC14-Pad3)*%
X145587500Y-98587500D03*
%TO.P,U1,4,PC15*%
%TO.N,unconnected-(U1-PC15-Pad4)*%
X145587500Y-99087500D03*
%TO.P,U1,5,PD0*%
%TO.N,Net-(U1-PD0)*%
X145587500Y-99587500D03*
%TO.P,U1,6,PD1*%
%TO.N,Net-(U1-PD1)*%
X145587500Y-100087500D03*
%TO.P,U1,7,NRST*%
%TO.N,RST*%
X145587500Y-100587500D03*
%TO.P,U1,8,VSSA*%
%TO.N,GND*%
X145587500Y-101087500D03*
%TO.P,U1,9,VDDA*%
%TO.N,+3.3V*%
X145587500Y-101587500D03*
%TO.P,U1,10,PA0*%
%TO.N,unconnected-(U1-PA0-Pad10)*%
X145587500Y-102087500D03*
%TO.P,U1,11,PA1*%
%TO.N,unconnected-(U1-PA1-Pad11)*%
X145587500Y-102587500D03*
%TO.P,U1,12,PA2*%
%TO.N,ADXL_X1_{out}*%
X145587500Y-103087500D03*
D24*
%TO.P,U1,13,PA3*%
%TO.N,ADXL_Y1_{out}*%
X147000000Y-104500000D03*
%TO.P,U1,14,PA4*%
%TO.N,ADXL_Z1_{out}*%
X147500000Y-104500000D03*
%TO.P,U1,15,PA5*%
%TO.N,ADXL_X2_{out}*%
X148000000Y-104500000D03*
%TO.P,U1,16,PA6*%
%TO.N,ADXL_Y2_{out}*%
X148500000Y-104500000D03*
%TO.P,U1,17,PA7*%
%TO.N,ADXL_Z2_{out}*%
X149000000Y-104500000D03*
%TO.P,U1,18,PB0*%
%TO.N,Net-(D1-A)*%
X149500000Y-104500000D03*
%TO.P,U1,19,PB1*%
%TO.N,Net-(D2-A)*%
X150000000Y-104500000D03*
%TO.P,U1,20,PB2*%
%TO.N,unconnected-(U1-PB2-Pad20)*%
X150500000Y-104500000D03*
%TO.P,U1,21,PB10*%
%TO.N,unconnected-(U1-PB10-Pad21)*%
X151000000Y-104500000D03*
%TO.P,U1,22,PB11*%
%TO.N,unconnected-(U1-PB11-Pad22)*%
X151500000Y-104500000D03*
%TO.P,U1,23,VSS*%
%TO.N,GND*%
X152000000Y-104500000D03*
%TO.P,U1,24,VDD*%
%TO.N,+3.3V*%
X152500000Y-104500000D03*
D23*
%TO.P,U1,25,PB12*%
%TO.N,unconnected-(U1-PB12-Pad25)*%
X153912500Y-103087500D03*
%TO.P,U1,26,PB13*%
%TO.N,unconnected-(U1-PB13-Pad26)*%
X153912500Y-102587500D03*
%TO.P,U1,27,PB14*%
%TO.N,unconnected-(U1-PB14-Pad27)*%
X153912500Y-102087500D03*
%TO.P,U1,28,PB15*%
%TO.N,unconnected-(U1-PB15-Pad28)*%
X153912500Y-101587500D03*
%TO.P,U1,29,PA8*%
%TO.N,unconnected-(U1-PA8-Pad29)*%
X153912500Y-101087500D03*
%TO.P,U1,30,PA9*%
%TO.N,TX1*%
X153912500Y-100587500D03*
%TO.P,U1,31,PA10*%
%TO.N,RX1*%
X153912500Y-100087500D03*
%TO.P,U1,32,PA11*%
%TO.N,Net-(U1-PA11)*%
X153912500Y-99587500D03*
%TO.P,U1,33,PA12*%
%TO.N,Net-(U1-PA12)*%
X153912500Y-99087500D03*
%TO.P,U1,34,PA13*%
%TO.N,SWDIO*%
X153912500Y-98587500D03*
%TO.P,U1,35,VSS*%
%TO.N,GND*%
X153912500Y-98087500D03*
%TO.P,U1,36,VDD*%
%TO.N,+3.3V*%
X153912500Y-97587500D03*
D24*
%TO.P,U1,37,PA14*%
%TO.N,SWCLK*%
X152500000Y-96175000D03*
%TO.P,U1,38,PA15*%
%TO.N,unconnected-(U1-PA15-Pad38)*%
X152000000Y-96175000D03*
%TO.P,U1,39,PB3*%
%TO.N,SWO*%
X151500000Y-96175000D03*
%TO.P,U1,40,PB4*%
%TO.N,unconnected-(U1-PB4-Pad40)*%
X151000000Y-96175000D03*
%TO.P,U1,41,PB5*%
%TO.N,unconnected-(U1-PB5-Pad41)*%
X150500000Y-96175000D03*
%TO.P,U1,42,PB6*%
%TO.N,unconnected-(U1-PB6-Pad42)*%
X150000000Y-96175000D03*
%TO.P,U1,43,PB7*%
%TO.N,unconnected-(U1-PB7-Pad43)*%
X149500000Y-96175000D03*
%TO.P,U1,44,BOOT0*%
%TO.N,BOOT0*%
X149000000Y-96175000D03*
%TO.P,U1,45,PB8*%
%TO.N,unconnected-(U1-PB8-Pad45)*%
X148500000Y-96175000D03*
%TO.P,U1,46,PB9*%
%TO.N,unconnected-(U1-PB9-Pad46)*%
X148000000Y-96175000D03*
%TO.P,U1,47,VSS*%
%TO.N,GND*%
X147500000Y-96175000D03*
%TO.P,U1,48,VDD*%
%TO.N,+3.3V*%
X147000000Y-96175000D03*
%TD*%
D25*
%TO.P,R2,1*%
%TO.N,Net-(J1-CC2)*%
X147627215Y-90853051D03*
%TO.P,R2,2*%
%TO.N,GND*%
X147627215Y-92503051D03*
%TD*%
%TO.P,R1,1*%
%TO.N,Net-(J1-CC1)*%
X152427215Y-90853051D03*
%TO.P,R1,2*%
%TO.N,GND*%
X152427215Y-92503051D03*
%TD*%
D26*
%TO.P,D2,1,K*%
%TO.N,Net-(D2-K)*%
X151425000Y-117300000D03*
%TO.P,D2,2,A*%
%TO.N,Net-(D2-A)*%
X153175000Y-117300000D03*
%TD*%
D27*
%TO.P,C1,1*%
%TO.N,GND*%
X160327215Y-92303051D03*
%TO.P,C1,2*%
%TO.N,+3.3V*%
X160327215Y-90753051D03*
%TD*%
D28*
%TO.P,C11,1*%
%TO.N,+3.3V*%
X141427215Y-108278051D03*
%TO.P,C11,2*%
%TO.N,GND*%
X140084875Y-109053051D03*
%TD*%
D25*
%TO.P,R3,1*%
%TO.N,BOOT0*%
X158627215Y-93853051D03*
%TO.P,R3,2*%
%TO.N,GND*%
X158627215Y-95503051D03*
%TD*%
D29*
%TO.P,C4,1*%
%TO.N,+3.3V*%
X155602215Y-105278051D03*
%TO.P,C4,2*%
%TO.N,GND*%
X154052215Y-105278051D03*
%TD*%
D30*
%TO.P,C14,1*%
%TO.N,Net-(U1-PD0)*%
X159252215Y-98478051D03*
%TO.P,C14,2*%
%TO.N,GND*%
X160802215Y-98478051D03*
%TD*%
D25*
%TO.P,R4,1*%
%TO.N,USB_D+*%
X150827215Y-90853051D03*
%TO.P,R4,2*%
%TO.N,+3.3V*%
X150827215Y-92503051D03*
%TD*%
D31*
%TO.P,C3,1*%
%TO.N,+3.3V*%
X156350000Y-97025000D03*
%TO.P,C3,2*%
%TO.N,GND*%
X156350000Y-98575000D03*
%TD*%
D15*
%TO.P,C9,1*%
%TO.N,ADXL_X1_{out}*%
X138027215Y-110878051D03*
%TO.P,C9,2*%
%TO.N,GND*%
X136230213Y-111915551D03*
%TD*%
D26*
%TO.P,D1,1,K*%
%TO.N,Net-(D1-K)*%
X147022785Y-117330492D03*
%TO.P,D1,2,A*%
%TO.N,Net-(D1-A)*%
X148772785Y-117330492D03*
%TD*%
D32*
%TO.P,JP1,2,B*%
%TO.N,+3.3V*%
X163787500Y-94272132D03*
D33*
%TO.P,JP1,1,A*%
%TO.N,BOOT0*%
X164512500Y-95527868D03*
%TD*%
D22*
%TO.P,R9,1*%
%TO.N,GND*%
X148697785Y-115630492D03*
%TO.P,R9,2*%
%TO.N,Net-(D1-K)*%
X147047785Y-115630492D03*
%TD*%
D29*
%TO.P,C15,1*%
%TO.N,Net-(U1-PD1)*%
X160777215Y-104478051D03*
%TO.P,C15,2*%
%TO.N,GND*%
X159227215Y-104478051D03*
%TD*%
D30*
%TO.P,C6,1*%
%TO.N,+3.3V*%
X146552215Y-94278051D03*
%TO.P,C6,2*%
%TO.N,GND*%
X148102215Y-94278051D03*
%TD*%
D27*
%TO.P,C2,1*%
%TO.N,GND*%
X154427215Y-92253051D03*
%TO.P,C2,2*%
%TO.N,+5V*%
X154427215Y-90703051D03*
%TD*%
%TO.P,C5,1*%
%TO.N,+3.3V*%
X142800000Y-100775000D03*
%TO.P,C5,2*%
%TO.N,GND*%
X142800000Y-99225000D03*
%TD*%
D28*
%TO.P,C10,1*%
%TO.N,+3.3V*%
X140698385Y-106890551D03*
%TO.P,C10,2*%
%TO.N,GND*%
X139356045Y-107665551D03*
%TD*%
D22*
%TO.P,R5,1*%
%TO.N,Net-(U1-PA12)*%
X154802215Y-94078051D03*
%TO.P,R5,2*%
%TO.N,USB_D+*%
X153152215Y-94078051D03*
%TD*%
D15*
%TO.P,C8,1*%
%TO.N,ADXL_Y1_{out}*%
X136522215Y-108271315D03*
%TO.P,C8,2*%
%TO.N,GND*%
X134725213Y-109308815D03*
%TD*%
D29*
%TO.P,C12,1*%
%TO.N,+3.3V*%
X143802215Y-104078051D03*
%TO.P,C12,2*%
%TO.N,GND*%
X142252215Y-104078051D03*
%TD*%
D34*
%TO.P,J2,1,Pin_1*%
%TO.N,GND*%
X152027215Y-108453051D03*
%TO.P,J2,2,Pin_2*%
%TO.N,ADXL_Z2_{out}*%
X151027215Y-108453051D03*
%TO.P,J2,3,Pin_3*%
%TO.N,ADXL_Y2_{out}*%
X150027215Y-108453051D03*
%TO.P,J2,4,Pin_4*%
%TO.N,ADXL_X2_{out}*%
X149027215Y-108453051D03*
%TO.P,J2,5,Pin_5*%
%TO.N,+3.3V*%
X148027215Y-108453051D03*
D35*
%TO.P,J2,MP,MountPin*%
%TO.N,GND*%
X153327215Y-110978051D03*
X146727215Y-110978051D03*
%TD*%
D36*
%TO.P,J4,1,VCC*%
%TO.N,+3.3V*%
X139785074Y-93482648D03*
%TO.P,J4,2,SWDIO*%
%TO.N,SWDIO*%
X140884926Y-94117648D03*
%TO.P,J4,3,~{RESET}*%
%TO.N,RST*%
X139150074Y-94582500D03*
%TO.P,J4,4,SWCLK*%
%TO.N,SWCLK*%
X140249926Y-95217500D03*
%TO.P,J4,5,GND*%
%TO.N,GND*%
X138515074Y-95682352D03*
%TO.P,J4,6,SWO*%
%TO.N,SWO*%
X139614926Y-96317352D03*
%TD*%
D29*
%TO.P,C13,1*%
%TO.N,+3.3V*%
X143802215Y-102478051D03*
%TO.P,C13,2*%
%TO.N,GND*%
X142252215Y-102478051D03*
%TD*%
D37*
%TO.P,R8,1*%
%TO.N,GND*%
X135598273Y-102103051D03*
%TO.P,R8,2*%
%TO.N,ADXL_SELF_TEST*%
X137027215Y-101278051D03*
%TD*%
D38*
%TO.P,Y1,1,1*%
%TO.N,Net-(U1-PD0)*%
X159152214Y-100378050D03*
%TO.P,Y1,2,2*%
%TO.N,GND*%
X159152214Y-102578050D03*
%TO.P,Y1,3,3*%
%TO.N,Net-(U1-PD1)*%
X160852214Y-102578050D03*
%TO.P,Y1,4,4*%
%TO.N,GND*%
X160852214Y-100378050D03*
%TD*%
D39*
%TO.N,+3.3V*%
X143900000Y-97600000D03*
X157067306Y-99899128D03*
X143854609Y-101320868D03*
X150550000Y-93800000D03*
X146650000Y-93100000D03*
X156327215Y-95928051D03*
%TO.N,ADXL_Z1_{out}*%
X147572659Y-103250278D03*
X134400000Y-103400000D03*
%TO.N,ADXL_Y1_{out}*%
X146270694Y-105928551D03*
X138333881Y-108866119D03*
%TO.N,ADXL_X1_{out}*%
X143750617Y-107553551D03*
X141550000Y-111450000D03*
%TO.N,USB_D+*%
X150800000Y-87024500D03*
X151927215Y-94178051D03*
%TO.N,Net-(U1-PD0)*%
X148225500Y-99977551D03*
X157838112Y-100535417D03*
%TO.N,Net-(U1-PD1)*%
X148251509Y-100976715D03*
X162250000Y-103000000D03*
X152000000Y-101800000D03*
X155592241Y-102983722D03*
%TO.N,Net-(D1-A)*%
X149465825Y-102915820D03*
X149900000Y-115550000D03*
%TO.N,Net-(D2-A)*%
X154650000Y-116850000D03*
X150700000Y-103000000D03*
%TO.N,BOOT0*%
X157764868Y-94215704D03*
X154027215Y-96678051D03*
%TO.N,TX1*%
X155666211Y-103980483D03*
X157650000Y-106050000D03*
%TO.N,Net-(U1-PA12)*%
X154077215Y-95278051D03*
X152484867Y-99124500D03*
%TO.N,RX1*%
X156651000Y-104151352D03*
X158700000Y-105750591D03*
%TO.N,RST*%
X144826265Y-104550000D03*
X147144085Y-101255915D03*
X137900000Y-94100000D03*
X141966920Y-98410848D03*
%TO.N,Net-(U1-PA11)*%
X149641124Y-94388000D03*
X151704662Y-100065763D03*
%TO.N,SWO*%
X150100000Y-98000000D03*
X142300000Y-96700000D03*
%TO.N,+5V*%
X156301294Y-93608155D03*
X156063808Y-89241457D03*
%TO.N,GND*%
X158100000Y-101500000D03*
X136500000Y-110100000D03*
X153000000Y-113650000D03*
X144250000Y-115250000D03*
X162400000Y-100400000D03*
X160000000Y-105750000D03*
X166500000Y-96500000D03*
X140650000Y-110350000D03*
X155850000Y-118400000D03*
X167050000Y-104250000D03*
X140950000Y-105500000D03*
X137450000Y-113650000D03*
X149250000Y-113400000D03*
X131700000Y-96350000D03*
X162500000Y-98500000D03*
X145650000Y-113350000D03*
X164350000Y-111100000D03*
X148400000Y-82350000D03*
X162150000Y-104450000D03*
X156050000Y-87050000D03*
X143400000Y-87100000D03*
X162000000Y-92000000D03*
X155750000Y-82250000D03*
X143650000Y-109200000D03*
X164250000Y-102000000D03*
X152950000Y-105900000D03*
X157850000Y-97050000D03*
X146900000Y-86200000D03*
X135300000Y-90450000D03*
X153200000Y-86250000D03*
X161850000Y-113350000D03*
X135600000Y-95100000D03*
X141150000Y-103550000D03*
X135000000Y-107450000D03*
X158800000Y-112350000D03*
X144000000Y-118350000D03*
X131750000Y-104150000D03*
X160500000Y-96500000D03*
X151500000Y-82250000D03*
X159000000Y-89000000D03*
X133650000Y-93300000D03*
X146000000Y-92150000D03*
X164200000Y-98500000D03*
X140800000Y-101200000D03*
X141000000Y-112500000D03*
X155900000Y-106800000D03*
X159700000Y-107650000D03*
X155000000Y-115000000D03*
X165250000Y-91350000D03*
X156450000Y-108950000D03*
X137300000Y-87350000D03*
X135300000Y-100100000D03*
X140550000Y-98600000D03*
X144050000Y-82300000D03*
X162400000Y-87000000D03*
X140400000Y-88450000D03*
X166200000Y-107600000D03*
%TO.N,SWDIO*%
X145327215Y-96028051D03*
X149000000Y-98528551D03*
%TO.N,SWCLK*%
X151096551Y-98344370D03*
X144327215Y-96528051D03*
%TD*%
D40*
%TO.N,GND*%
X152275000Y-106075000D02*
X152000000Y-105800000D01*
X152000000Y-105800000D02*
X152000000Y-104500000D01*
X153255266Y-106075000D02*
X152275000Y-106075000D01*
X154052215Y-105278051D02*
X153255266Y-106075000D01*
X156750000Y-88250000D02*
X157427215Y-88927215D01*
X153625266Y-88250000D02*
X156750000Y-88250000D01*
X153177215Y-88698051D02*
X153625266Y-88250000D01*
X157427215Y-88927215D02*
X157427215Y-91478051D01*
%TO.N,+5V*%
X156152215Y-89329864D02*
X156063808Y-89241457D01*
X156152215Y-90528051D02*
X156152215Y-89329864D01*
%TO.N,+3.3V*%
X162800000Y-91750000D02*
X161803051Y-90753051D01*
X155787500Y-97587500D02*
X156350000Y-97025000D01*
X149300000Y-101300000D02*
X150105264Y-101300000D01*
X156327215Y-94628051D02*
X156327215Y-95928051D01*
X156327215Y-97002215D02*
X156327215Y-95928051D01*
X150827215Y-92503051D02*
X151552215Y-93228051D01*
X155602215Y-105278051D02*
X154802215Y-104478051D01*
X150105264Y-101300000D02*
X152500000Y-103694736D01*
X146552215Y-95727215D02*
X147000000Y-96175000D01*
X156350000Y-97025000D02*
X156327215Y-97002215D01*
X155527215Y-93585589D02*
X155527215Y-93953356D01*
X157375500Y-101195747D02*
X157067306Y-100887553D01*
X146552215Y-93197785D02*
X146552215Y-94278051D01*
X150827215Y-92503051D02*
X150827215Y-93522785D01*
X146990551Y-97587500D02*
X148950500Y-99547449D01*
X139785074Y-93482648D02*
X139785074Y-92414926D01*
X146650000Y-93100000D02*
X146552215Y-93197785D01*
X145587500Y-97587500D02*
X143912500Y-97587500D01*
X143854609Y-101320868D02*
X143308741Y-100775000D01*
X155602215Y-105278051D02*
X157071949Y-105278051D01*
X146990551Y-97587500D02*
X147000000Y-97578051D01*
X142800000Y-100775000D02*
X142800000Y-101475836D01*
X157827215Y-93128051D02*
X161471949Y-93128051D01*
X148950500Y-100237245D02*
X149300000Y-100586745D01*
X147000000Y-96175000D02*
X147000000Y-97578051D01*
X147852215Y-108278051D02*
X148027215Y-108453051D01*
X140989715Y-106890551D02*
X142202215Y-105678051D01*
X161650000Y-92950000D02*
X162771949Y-92950000D01*
X148950500Y-99547449D02*
X148950500Y-100237245D01*
X146552215Y-94278051D02*
X146552215Y-95727215D01*
X157375500Y-104974500D02*
X157375500Y-101195747D01*
X163221949Y-93706581D02*
X163221949Y-93400000D01*
X141427215Y-108278051D02*
X141427215Y-107619381D01*
X142202215Y-105678051D02*
X143802215Y-104078051D01*
X139785074Y-92414926D02*
X140600000Y-91600000D01*
X142800000Y-101475836D02*
X143802215Y-102478051D01*
X152500000Y-103694736D02*
X152500000Y-104500000D01*
X162771949Y-92950000D02*
X163221949Y-93400000D01*
X152521949Y-104478051D02*
X152500000Y-104500000D01*
X148555221Y-102044779D02*
X146850043Y-102044779D01*
X160327215Y-90753051D02*
X158652215Y-90753051D01*
X151552215Y-93228051D02*
X155169677Y-93228051D01*
X143308741Y-100775000D02*
X142800000Y-100775000D01*
X141427215Y-107619381D02*
X140698385Y-106890551D01*
X156201910Y-94628051D02*
X156327215Y-94628051D01*
X158652215Y-90753051D02*
X158427215Y-90528051D01*
X146850043Y-102044779D02*
X146392764Y-101587500D01*
X141427215Y-108278051D02*
X147852215Y-108278051D01*
X143535560Y-93135560D02*
X143535560Y-93600000D01*
X140698385Y-106890551D02*
X140989715Y-106890551D01*
X143535560Y-93600000D02*
X144213611Y-94278051D01*
X140461430Y-106890551D02*
X140698385Y-106890551D01*
X143802215Y-104078051D02*
X143802215Y-102478051D01*
X162800000Y-92978051D02*
X162800000Y-91750000D01*
X149300000Y-100586745D02*
X149300000Y-101300000D01*
X144213611Y-94278051D02*
X146552215Y-94278051D01*
X155527215Y-93953356D02*
X156201910Y-94628051D01*
X156327215Y-94628051D02*
X157827215Y-93128051D01*
X161803051Y-90753051D02*
X160327215Y-90753051D01*
X142000000Y-91600000D02*
X143535560Y-93135560D01*
X139358673Y-105787794D02*
X140461430Y-106890551D01*
X153912500Y-97587500D02*
X155787500Y-97587500D01*
X154802215Y-104478051D02*
X152521949Y-104478051D01*
X142800000Y-100775000D02*
X143612500Y-101587500D01*
X157071949Y-105278051D02*
X157375500Y-104974500D01*
X157067306Y-100887553D02*
X157067306Y-99899128D01*
X140600000Y-91600000D02*
X142000000Y-91600000D01*
X145587500Y-97587500D02*
X146990551Y-97587500D01*
X139358673Y-105787794D02*
X139120757Y-105787794D01*
X161471949Y-93128051D02*
X161650000Y-92950000D01*
X146392764Y-101587500D02*
X145587500Y-101587500D01*
X155169677Y-93228051D02*
X155527215Y-93585589D01*
X143612500Y-101587500D02*
X145587500Y-101587500D01*
X143912500Y-97587500D02*
X143900000Y-97600000D01*
X149300000Y-101300000D02*
X148555221Y-102044779D01*
X150827215Y-93522785D02*
X150550000Y-93800000D01*
X163787500Y-94272132D02*
X163221949Y-93706581D01*
X139120757Y-105787794D02*
X138795757Y-106112794D01*
X163221949Y-93400000D02*
X162800000Y-92978051D01*
%TO.N,ADXL_Z1_{out}*%
X135577215Y-104328280D02*
X135700963Y-104204532D01*
X135986431Y-104039717D02*
X136532840Y-103493308D01*
X134400000Y-103400000D02*
X134400000Y-105425305D01*
X135017215Y-105664578D02*
X135577215Y-105104578D01*
X147500000Y-104500000D02*
X147500000Y-103322937D01*
X135577215Y-105104578D02*
X135577215Y-104328280D01*
X134639273Y-105664578D02*
X135017215Y-105664578D01*
X134400000Y-105425305D02*
X134639273Y-105664578D01*
X135700963Y-104204532D02*
X135986431Y-104039717D01*
%TO.N,ADXL_Y1_{out}*%
X136592472Y-105046593D02*
X136259836Y-105379229D01*
X146270694Y-105928551D02*
X146371449Y-105928551D01*
X137117019Y-108866119D02*
X136522215Y-108271315D01*
X146371449Y-105928551D02*
X147000000Y-105300000D01*
X136259836Y-108008936D02*
X136522215Y-108271315D01*
X136259836Y-105379229D02*
X136259836Y-108008936D01*
X147000000Y-105300000D02*
X147000000Y-104500000D01*
X138333881Y-108866119D02*
X137117019Y-108866119D01*
%TO.N,ADXL_X1_{out}*%
X138483744Y-107491934D02*
X138483744Y-107991383D01*
X139578051Y-110878051D02*
X138027215Y-110878051D01*
X145587500Y-103087500D02*
X145550765Y-103124235D01*
X145550765Y-105199235D02*
X143750617Y-106999383D01*
X145550765Y-103124235D02*
X145550765Y-105199235D01*
X137242472Y-106172426D02*
X137242472Y-106250662D01*
X139212574Y-109692692D02*
X138027215Y-110878051D01*
X140150000Y-111450000D02*
X139578051Y-110878051D01*
X141550000Y-111450000D02*
X140150000Y-111450000D01*
X138483744Y-107991383D02*
X139212574Y-108720213D01*
X143750617Y-106999383D02*
X143750617Y-107553551D01*
X137242472Y-106250662D02*
X138483744Y-107491934D01*
X139212574Y-108720213D02*
X139212574Y-109692692D01*
%TO.N,Net-(D1-K)*%
X147047785Y-115630492D02*
X147047785Y-117305492D01*
X147047785Y-117305492D02*
X147022785Y-117330492D01*
%TO.N,Net-(D2-K)*%
X151525000Y-117200000D02*
X151425000Y-117300000D01*
X151525000Y-115600000D02*
X151525000Y-117200000D01*
%TO.N,Net-(J1-CC1)*%
X151102215Y-89598051D02*
X151915819Y-89598051D01*
X151077215Y-89573051D02*
X151102215Y-89598051D01*
X151077215Y-88698051D02*
X151077215Y-89573051D01*
X151915819Y-89598051D02*
X152427215Y-90109447D01*
X152427215Y-90109447D02*
X152427215Y-90853051D01*
D41*
%TO.N,USB_D+*%
X149552215Y-87398051D02*
X149602215Y-87398051D01*
X149127215Y-87823051D02*
X149552215Y-87398051D01*
X149602215Y-87398051D02*
X150077215Y-87873051D01*
X150800000Y-87024500D02*
X149925766Y-87024500D01*
X153152215Y-94078051D02*
X152027215Y-94078051D01*
X150077215Y-87873051D02*
X150077215Y-88698051D01*
X149077215Y-88698051D02*
X149077215Y-87873051D01*
X149925766Y-87024500D02*
X149127215Y-87823051D01*
X150077215Y-88698051D02*
X150077215Y-90103051D01*
X150077215Y-90103051D02*
X150827215Y-90853051D01*
X149077215Y-87873051D02*
X149127215Y-87823051D01*
X152027215Y-94078051D02*
X151927215Y-94178051D01*
D40*
%TO.N,Net-(U1-PD0)*%
X147526715Y-99977551D02*
X147136664Y-99587500D01*
X159252215Y-98478051D02*
X159252215Y-100278051D01*
X157995478Y-100378051D02*
X157838112Y-100535417D01*
X148225500Y-99977551D02*
X147526715Y-99977551D01*
X159252215Y-100278051D02*
X159152215Y-100378051D01*
X159152215Y-100378051D02*
X157995478Y-100378051D01*
X147136664Y-99587500D02*
X145587500Y-99587500D01*
D41*
%TO.N,USB_D-*%
X150577215Y-89674091D02*
X150931175Y-90028051D01*
X151234322Y-90028051D02*
X151652215Y-90445944D01*
X151652215Y-90445944D02*
X151652215Y-91453051D01*
X150577215Y-88698051D02*
X150577215Y-89674091D01*
X151652215Y-91453051D02*
X151552215Y-91553051D01*
X151552215Y-91553051D02*
X149927215Y-91553051D01*
X149577215Y-88698051D02*
X149577215Y-90503051D01*
X149577215Y-90503051D02*
X149227215Y-90853051D01*
X150931175Y-90028051D02*
X151234322Y-90028051D01*
X149927215Y-91553051D02*
X149227215Y-90853051D01*
D40*
%TO.N,Net-(U1-PD1)*%
X152000000Y-101800000D02*
X152000000Y-101900000D01*
X155013463Y-103562500D02*
X155592241Y-102983722D01*
X147889483Y-100976715D02*
X147000268Y-100087500D01*
X161274164Y-103000000D02*
X160852215Y-102578051D01*
X160777215Y-102653051D02*
X160852215Y-102578051D01*
X162250000Y-103000000D02*
X161274164Y-103000000D01*
X152850000Y-102750000D02*
X152850000Y-103330264D01*
X147000268Y-100087500D02*
X145587500Y-100087500D01*
X152000000Y-101900000D02*
X152850000Y-102750000D01*
X153082236Y-103562500D02*
X155013463Y-103562500D01*
X152850000Y-103330264D02*
X153082236Y-103562500D01*
X160777215Y-104478051D02*
X160777215Y-102653051D01*
X148251509Y-100976715D02*
X147889483Y-100976715D01*
%TO.N,ADXL_X2_{out}*%
X149027215Y-108006300D02*
X149027215Y-108453051D01*
X148000000Y-104500000D02*
X148000000Y-106979085D01*
X148000000Y-106979085D02*
X149027215Y-108006300D01*
%TO.N,ADXL_Y2_{out}*%
X148500000Y-106479085D02*
X150027215Y-108006300D01*
X150027215Y-108006300D02*
X150027215Y-108453051D01*
X148500000Y-104500000D02*
X148500000Y-106479085D01*
%TO.N,ADXL_Z2_{out}*%
X149000000Y-105979085D02*
X151027215Y-108006300D01*
X149000000Y-104500000D02*
X149000000Y-105979085D01*
X151027215Y-108006300D02*
X151027215Y-108453051D01*
%TO.N,Net-(J1-CC2)*%
X148077215Y-88698051D02*
X148077215Y-90403051D01*
X148077215Y-90403051D02*
X147627215Y-90853051D01*
%TO.N,Net-(D1-A)*%
X149900000Y-116203277D02*
X148772785Y-117330492D01*
X149900000Y-115550000D02*
X149900000Y-116203277D01*
X149500000Y-102949995D02*
X149500000Y-104500000D01*
X149465825Y-102915820D02*
X149500000Y-102949995D01*
%TO.N,Net-(D2-A)*%
X153625000Y-116850000D02*
X153175000Y-117300000D01*
X150694736Y-103000000D02*
X150000000Y-103694736D01*
X150000000Y-103694736D02*
X150000000Y-104500000D01*
X150700000Y-103000000D02*
X150694736Y-103000000D01*
X154650000Y-116850000D02*
X153625000Y-116850000D01*
%TO.N,BOOT0*%
X161203051Y-93853051D02*
X158627215Y-93853051D01*
X163963462Y-96076906D02*
X163426906Y-96076906D01*
X153866726Y-96678051D02*
X153227215Y-96038540D01*
X152861664Y-95112500D02*
X149259315Y-95112500D01*
X153227215Y-95478051D02*
X152861664Y-95112500D01*
X158627215Y-93853051D02*
X158127521Y-93853051D01*
X154027215Y-96678051D02*
X153866726Y-96678051D01*
X149259315Y-95112500D02*
X149000000Y-95371815D01*
X158127521Y-93853051D02*
X157764868Y-94215704D01*
X153227215Y-96038540D02*
X153227215Y-95478051D01*
X164512500Y-95527868D02*
X163963462Y-96076906D01*
X163426906Y-96076906D02*
X161203051Y-93853051D01*
X149000000Y-95371815D02*
X149000000Y-96175000D01*
%TO.N,TX1*%
X162220000Y-107950295D02*
X161193706Y-106924001D01*
X158524001Y-106924001D02*
X157650000Y-106050000D01*
X153912500Y-100587500D02*
X155037500Y-100587500D01*
X155037500Y-100587500D02*
X156450000Y-102000000D01*
X161193706Y-106924001D02*
X158524001Y-106924001D01*
X156450000Y-103196694D02*
X155666211Y-103980483D01*
X156450000Y-102000000D02*
X156450000Y-103196694D01*
%TO.N,Net-(U1-PA12)*%
X154077215Y-94803051D02*
X154802215Y-94078051D01*
X154077215Y-95278051D02*
X154077215Y-94803051D01*
X152521867Y-99087500D02*
X153912500Y-99087500D01*
X152484867Y-99124500D02*
X152521867Y-99087500D01*
%TO.N,RX1*%
X156925999Y-101625999D02*
X156925999Y-103876353D01*
X162766091Y-106474500D02*
X163490000Y-105750591D01*
X155387500Y-100087500D02*
X156925999Y-101625999D01*
X159423909Y-106474500D02*
X162766091Y-106474500D01*
X153912500Y-100087500D02*
X155387500Y-100087500D01*
X156925999Y-103876353D02*
X156651000Y-104151352D01*
X158700000Y-105750591D02*
X159423909Y-106474500D01*
%TO.N,RST*%
X144525000Y-98975000D02*
X144525000Y-100330264D01*
X144826265Y-104704001D02*
X143852215Y-105678051D01*
X146475670Y-100587500D02*
X145587500Y-100587500D01*
X138667574Y-94100000D02*
X139150074Y-94582500D01*
X143960848Y-98410848D02*
X144525000Y-98975000D01*
X141966920Y-98410848D02*
X143960848Y-98410848D01*
X144782236Y-100587500D02*
X145587500Y-100587500D01*
X137900000Y-94100000D02*
X138667574Y-94100000D01*
X147144085Y-101255915D02*
X146475670Y-100587500D01*
X144525000Y-100330264D02*
X144782236Y-100587500D01*
X144826265Y-104550000D02*
X144826265Y-104704001D01*
%TO.N,Net-(U1-PA11)*%
X149227215Y-93974091D02*
X149227215Y-92503051D01*
X153912500Y-99587500D02*
X153110641Y-99587500D01*
X153047172Y-99587500D02*
X152568909Y-100065763D01*
X152568909Y-100065763D02*
X151704662Y-100065763D01*
X149641124Y-94388000D02*
X149227215Y-93974091D01*
X153912500Y-99587500D02*
X153047172Y-99587500D01*
X153110641Y-99587500D02*
X153085641Y-99612500D01*
%TO.N,SWO*%
X151500000Y-96980264D02*
X150880264Y-97600000D01*
X151500000Y-96175000D02*
X151500000Y-96980264D01*
X150500000Y-97600000D02*
X150100000Y-98000000D01*
X141917352Y-96317352D02*
X139614926Y-96317352D01*
X142300000Y-96700000D02*
X141917352Y-96317352D01*
X150880264Y-97600000D02*
X150500000Y-97600000D01*
%TO.N,+5V*%
X147577215Y-88698051D02*
X147577215Y-87983000D01*
X153657215Y-90703051D02*
X154427215Y-90703051D01*
X156152215Y-93459076D02*
X156152215Y-92428051D01*
X152017215Y-87923000D02*
X152377215Y-88283000D01*
X152017215Y-86617215D02*
X152017215Y-87923000D01*
X155977215Y-90703051D02*
X156152215Y-90528051D01*
X154427215Y-90703051D02*
X155977215Y-90703051D01*
X152077215Y-89123051D02*
X153657215Y-90703051D01*
X152377215Y-88283000D02*
X152377215Y-88698051D01*
X147577215Y-87983000D02*
X149260215Y-86300000D01*
X156301294Y-93608155D02*
X156152215Y-93459076D01*
X152077215Y-88698051D02*
X152077215Y-89123051D01*
X151700000Y-86300000D02*
X152017215Y-86617215D01*
X149260215Y-86300000D02*
X151700000Y-86300000D01*
%TO.N,GND*%
X139869594Y-103013957D02*
X139869594Y-102520659D01*
X139869594Y-102520659D02*
X139376986Y-102028051D01*
X138515074Y-95682352D02*
X137382352Y-95682352D01*
X152427215Y-92503051D02*
X154177215Y-92503051D01*
X160327215Y-92303051D02*
X159502215Y-91478051D01*
X142800000Y-99225000D02*
X144075000Y-99225000D01*
X137333673Y-103168308D02*
X137658673Y-102843308D01*
X159502215Y-91478051D02*
X157427215Y-91478051D01*
X141600000Y-99800000D02*
X142175000Y-99225000D01*
X154177215Y-92503051D02*
X154427215Y-92253051D01*
X147627215Y-93803051D02*
X148102215Y-94278051D01*
X152027215Y-107714878D02*
X152027215Y-109278051D01*
X156350000Y-98575000D02*
X155862500Y-98087500D01*
X159152215Y-102578051D02*
X158100000Y-101525836D01*
X136030500Y-102103051D02*
X135598273Y-102103051D01*
X139536958Y-103346593D02*
X139869594Y-103013957D01*
X147500000Y-94880266D02*
X147500000Y-96175000D01*
X144075000Y-100516660D02*
X144645840Y-101087500D01*
X137095757Y-103168308D02*
X137333673Y-103168308D01*
X153582215Y-88698051D02*
X154147215Y-88133051D01*
X142252215Y-102478051D02*
X141600000Y-101825836D01*
X141600000Y-101825836D02*
X141600000Y-99800000D01*
X160852215Y-100478051D02*
X159152215Y-102178051D01*
X146477215Y-88698051D02*
X146477215Y-91353051D01*
X138711847Y-102028051D02*
X138221590Y-102518308D01*
X156152215Y-91478051D02*
X155202215Y-91478051D01*
X161696949Y-92303051D02*
X162000000Y-92000000D01*
X157427215Y-91478051D02*
X156152215Y-91478051D01*
X137896590Y-102843308D02*
X138221590Y-102518308D01*
X136800000Y-95100000D02*
X135600000Y-95100000D01*
X155202215Y-91478051D02*
X154427215Y-92253051D01*
X140084875Y-109053051D02*
X140084875Y-108394381D01*
X155862500Y-98087500D02*
X153912500Y-98087500D01*
X146477215Y-91353051D02*
X147627215Y-92503051D01*
X142175000Y-99225000D02*
X142800000Y-99225000D01*
X147627215Y-92503051D02*
X147627215Y-93803051D01*
X159152215Y-102178051D02*
X159152215Y-102578051D01*
X159152215Y-102578051D02*
X159152215Y-104403051D01*
X139376986Y-102028051D02*
X138711847Y-102028051D01*
X159152215Y-104403051D02*
X159227215Y-104478051D01*
X158100000Y-101525836D02*
X158100000Y-101500000D01*
X160852215Y-100378051D02*
X160852215Y-100478051D01*
X148102215Y-94278051D02*
X147500000Y-94880266D01*
X137095757Y-103168308D02*
X136030500Y-102103051D01*
X160000000Y-105250836D02*
X160000000Y-105750000D01*
X160802215Y-100328051D02*
X160852215Y-100378051D01*
X144075000Y-99225000D02*
X144075000Y-100516660D01*
X137382352Y-95682352D02*
X136800000Y-95100000D01*
X140084875Y-108394381D02*
X139356045Y-107665551D01*
X153177215Y-88698051D02*
X153582215Y-88698051D01*
X160802215Y-98478051D02*
X160802215Y-100328051D01*
X137658673Y-102843308D02*
X137896590Y-102843308D01*
X160327215Y-92303051D02*
X161696949Y-92303051D01*
X159227215Y-104478051D02*
X160000000Y-105250836D01*
X144645840Y-101087500D02*
X145587500Y-101087500D01*
%TO.N,ADXL_SELF_TEST*%
X140319594Y-103451873D02*
X140319594Y-102334263D01*
X139861958Y-103909509D02*
X140319594Y-103451873D01*
X139263382Y-101278051D02*
X137027215Y-101278051D01*
X140319594Y-102334263D02*
X139263382Y-101278051D01*
%TO.N,SWDIO*%
X153107236Y-98587500D02*
X153912500Y-98587500D01*
X149000000Y-98528551D02*
X149271449Y-98800000D01*
X143399164Y-94100000D02*
X141800000Y-94100000D01*
X150796246Y-99069370D02*
X151396856Y-99069370D01*
X149271449Y-98800000D02*
X150526876Y-98800000D01*
X152050000Y-98400000D02*
X152919736Y-98400000D01*
X152919736Y-98400000D02*
X153107236Y-98587500D01*
X141800000Y-94100000D02*
X141782352Y-94117648D01*
X141782352Y-94117648D02*
X140884926Y-94117648D01*
X151396856Y-99069370D02*
X151821551Y-98644675D01*
X151821551Y-98644675D02*
X151821551Y-98628449D01*
X150526876Y-98800000D02*
X150796246Y-99069370D01*
X145327215Y-96028051D02*
X143399164Y-94100000D01*
X151821551Y-98628449D02*
X152050000Y-98400000D01*
%TO.N,SWCLK*%
X151135894Y-98344370D02*
X152500000Y-96980264D01*
X151096551Y-98344370D02*
X151135894Y-98344370D01*
X143299164Y-95500000D02*
X144327215Y-96528051D01*
X140532426Y-95500000D02*
X143299164Y-95500000D01*
X152500000Y-96980264D02*
X152500000Y-96175000D01*
X140249926Y-95217500D02*
X140532426Y-95500000D01*
%TD*%
%TA.AperFunction,Conductor*%
%TO.N,GND*%
G36*
X159340215Y-102344664D02*
G01*
X159385602Y-102390051D01*
X159402215Y-102452051D01*
X159402215Y-103446725D01*
X159406003Y-103460864D01*
X159414460Y-103469321D01*
X159432919Y-103478930D01*
X159465597Y-103521515D01*
X159477215Y-103573921D01*
X159477215Y-104604051D01*
X159460602Y-104666051D01*
X159415215Y-104711438D01*
X159353215Y-104728051D01*
X158293542Y-104728051D01*
X158280666Y-104731501D01*
X158277216Y-104744377D01*
X158277216Y-104773216D01*
X158277536Y-104779498D01*
X158285971Y-104862073D01*
X158275819Y-104925274D01*
X158235499Y-104974991D01*
X158197886Y-105002319D01*
X158134730Y-105025620D01*
X158068706Y-105012487D01*
X158019273Y-104966792D01*
X158001000Y-104902002D01*
X158001000Y-103737715D01*
X158019505Y-103672548D01*
X158069496Y-103626831D01*
X158136053Y-103614209D01*
X158199311Y-103638448D01*
X158303027Y-103716090D01*
X158310322Y-103720073D01*
X158357898Y-103766242D01*
X158374889Y-103830323D01*
X158356438Y-103894000D01*
X158344458Y-103913422D01*
X158338395Y-103926425D01*
X158289487Y-104074020D01*
X158286671Y-104087176D01*
X158277534Y-104176606D01*
X158277215Y-104182883D01*
X158277215Y-104211725D01*
X158280665Y-104224600D01*
X158293541Y-104228051D01*
X158960889Y-104228051D01*
X158973764Y-104224600D01*
X158977215Y-104211725D01*
X158977215Y-103834377D01*
X158973426Y-103820237D01*
X158964969Y-103811780D01*
X158946511Y-103802172D01*
X158913833Y-103759587D01*
X158902215Y-103707181D01*
X158902215Y-102452051D01*
X158918828Y-102390051D01*
X158964215Y-102344664D01*
X159026215Y-102328051D01*
X159278215Y-102328051D01*
X159340215Y-102344664D01*
G37*
%TD.AperFunction*%
%TA.AperFunction,Conductor*%
G36*
X161540052Y-91387990D02*
G01*
X161580280Y-91414870D01*
X162138181Y-91972771D01*
X162165061Y-92012999D01*
X162174500Y-92060452D01*
X162174500Y-92200500D01*
X162157887Y-92262500D01*
X162112500Y-92307887D01*
X162050500Y-92324500D01*
X161727772Y-92324500D01*
X161716719Y-92323979D01*
X161709333Y-92322328D01*
X161701535Y-92322573D01*
X161642145Y-92324439D01*
X161638251Y-92324500D01*
X161610650Y-92324500D01*
X161606799Y-92324986D01*
X161606768Y-92324988D01*
X161606640Y-92325005D01*
X161595029Y-92325918D01*
X161559172Y-92327045D01*
X161559165Y-92327046D01*
X161551373Y-92327291D01*
X161543888Y-92329465D01*
X161543872Y-92329468D01*
X161532126Y-92332881D01*
X161513083Y-92336825D01*
X161500949Y-92338358D01*
X161500948Y-92338358D01*
X161493208Y-92339336D01*
X161485958Y-92342205D01*
X161485951Y-92342208D01*
X161452598Y-92355413D01*
X161441554Y-92359194D01*
X161407105Y-92369203D01*
X161407095Y-92369207D01*
X161399610Y-92371382D01*
X161392900Y-92375349D01*
X161392898Y-92375351D01*
X161389505Y-92377357D01*
X161382360Y-92381583D01*
X161364900Y-92390136D01*
X161346268Y-92397514D01*
X161339965Y-92402092D01*
X161339958Y-92402097D01*
X161310939Y-92423181D01*
X161301179Y-92429592D01*
X161270294Y-92447857D01*
X161270284Y-92447864D01*
X161263579Y-92451830D01*
X161258063Y-92457345D01*
X161258060Y-92457348D01*
X161249407Y-92466000D01*
X161234848Y-92478463D01*
X161234522Y-92478701D01*
X161199860Y-92496438D01*
X161161406Y-92502551D01*
X160201215Y-92502551D01*
X160139215Y-92485938D01*
X160093828Y-92440551D01*
X160077215Y-92378551D01*
X160077215Y-92177051D01*
X160093828Y-92115051D01*
X160139215Y-92069664D01*
X160201215Y-92053051D01*
X161285888Y-92053051D01*
X161298763Y-92049600D01*
X161302214Y-92036725D01*
X161302214Y-92032886D01*
X161301893Y-92026603D01*
X161292759Y-91937183D01*
X161289940Y-91924014D01*
X161241034Y-91776425D01*
X161234968Y-91763417D01*
X161153582Y-91631470D01*
X161144677Y-91620208D01*
X161140554Y-91616085D01*
X161108459Y-91560493D01*
X161108462Y-91496302D01*
X161140561Y-91440716D01*
X161150183Y-91431095D01*
X161153664Y-91425450D01*
X161196661Y-91390943D01*
X161250694Y-91378551D01*
X161492599Y-91378551D01*
X161540052Y-91387990D01*
G37*
%TD.AperFunction*%
%TA.AperFunction,Conductor*%
G36*
X157499686Y-91187746D02*
G01*
X157501170Y-91185834D01*
X157507331Y-91190613D01*
X157512850Y-91196132D01*
X157519564Y-91200103D01*
X157519566Y-91200104D01*
X157559847Y-91223926D01*
X157654317Y-91279795D01*
X157812146Y-91325649D01*
X157849021Y-91328551D01*
X158372108Y-91328551D01*
X158415840Y-91336893D01*
X158420123Y-91339248D01*
X158437172Y-91343625D01*
X158439520Y-91344228D01*
X158457934Y-91350532D01*
X158476319Y-91358489D01*
X158519480Y-91365324D01*
X158530879Y-91367685D01*
X158573196Y-91378551D01*
X158593232Y-91378551D01*
X158612629Y-91380078D01*
X158618943Y-91381078D01*
X158638945Y-91389671D01*
X158665312Y-91380101D01*
X158675891Y-91379101D01*
X158687560Y-91378551D01*
X159403736Y-91378551D01*
X159457768Y-91390942D01*
X159500763Y-91425447D01*
X159504247Y-91431095D01*
X159509356Y-91436204D01*
X159513874Y-91440722D01*
X159545967Y-91496305D01*
X159545970Y-91560488D01*
X159513884Y-91616075D01*
X159509751Y-91620208D01*
X159500852Y-91631463D01*
X159464099Y-91691049D01*
X159418087Y-91734729D01*
X159356493Y-91749934D01*
X159295440Y-91732683D01*
X159206828Y-91680278D01*
X159206826Y-91680277D01*
X159200113Y-91676307D01*
X159192620Y-91674130D01*
X159048372Y-91632221D01*
X159048365Y-91632219D01*
X159042284Y-91630453D01*
X159035973Y-91629956D01*
X159035966Y-91629955D01*
X159007843Y-91627742D01*
X159007829Y-91627741D01*
X159005409Y-91627551D01*
X158676981Y-91627551D01*
X158638683Y-91617611D01*
X158599546Y-91627551D01*
X157849021Y-91627551D01*
X157846601Y-91627741D01*
X157846586Y-91627742D01*
X157818463Y-91629955D01*
X157818454Y-91629956D01*
X157812146Y-91630453D01*
X157806066Y-91632219D01*
X157806057Y-91632221D01*
X157661809Y-91674130D01*
X157661806Y-91674131D01*
X157654317Y-91676307D01*
X157647606Y-91680275D01*
X157647601Y-91680278D01*
X157519566Y-91755997D01*
X157519559Y-91756001D01*
X157512850Y-91759970D01*
X157507333Y-91765486D01*
X157501170Y-91770268D01*
X157499689Y-91768359D01*
X157453134Y-91794719D01*
X157387016Y-91793086D01*
X157331142Y-91757696D01*
X157328832Y-91753107D01*
X157309482Y-91732175D01*
X157294859Y-91728051D01*
X157046530Y-91728051D01*
X156983409Y-91710783D01*
X156931828Y-91680278D01*
X156931826Y-91680277D01*
X156925113Y-91676307D01*
X156917620Y-91674130D01*
X156773372Y-91632221D01*
X156773365Y-91632219D01*
X156767284Y-91630453D01*
X156760973Y-91629956D01*
X156760966Y-91629955D01*
X156732843Y-91627742D01*
X156732829Y-91627741D01*
X156730409Y-91627551D01*
X156026215Y-91627551D01*
X155964215Y-91610938D01*
X155918828Y-91565551D01*
X155902215Y-91503551D01*
X155902215Y-91452551D01*
X155918828Y-91390551D01*
X155964215Y-91345164D01*
X156026215Y-91328551D01*
X156727964Y-91328551D01*
X156730409Y-91328551D01*
X156767284Y-91325649D01*
X156925113Y-91279795D01*
X156983408Y-91245319D01*
X157046530Y-91228051D01*
X157294859Y-91228051D01*
X157309482Y-91223926D01*
X157328834Y-91202992D01*
X157331143Y-91198405D01*
X157387026Y-91163012D01*
X157453153Y-91161386D01*
X157499686Y-91187746D01*
G37*
%TD.AperFunction*%
%TA.AperFunction,Conductor*%
G36*
X157641715Y-81594450D02*
G01*
X157686884Y-81638069D01*
X157704893Y-81698223D01*
X157691124Y-81759488D01*
X157649108Y-81806151D01*
X157375457Y-81986134D01*
X157369655Y-81990453D01*
X157259713Y-82082704D01*
X157252027Y-82094029D01*
X157258697Y-82105980D01*
X161255415Y-86102698D01*
X161264597Y-86108595D01*
X161272829Y-86101428D01*
X161460232Y-85849705D01*
X161464198Y-85843674D01*
X161626579Y-85562421D01*
X161629812Y-85555985D01*
X161758453Y-85257763D01*
X161760909Y-85251014D01*
X161854058Y-84939875D01*
X161855720Y-84932862D01*
X161912113Y-84613042D01*
X161912952Y-84605863D01*
X161931835Y-84281657D01*
X161931835Y-84274450D01*
X161930530Y-84252054D01*
X161944150Y-84187933D01*
X161988558Y-84139716D01*
X162051344Y-84120877D01*
X162114962Y-84136681D01*
X162161633Y-84182713D01*
X169966569Y-97663966D01*
X169983249Y-97727418D01*
X169965218Y-97790500D01*
X169917523Y-97835552D01*
X169853516Y-97849961D01*
X169791117Y-97829694D01*
X169757649Y-97807681D01*
X169751400Y-97804074D01*
X169461192Y-97658325D01*
X169454553Y-97655462D01*
X169149376Y-97544386D01*
X169142486Y-97542323D01*
X168826446Y-97467420D01*
X168819380Y-97466174D01*
X168496779Y-97428468D01*
X168489610Y-97428051D01*
X168164820Y-97428051D01*
X168157650Y-97428468D01*
X167835049Y-97466174D01*
X167827983Y-97467420D01*
X167511943Y-97542323D01*
X167505053Y-97544386D01*
X167199876Y-97655462D01*
X167193237Y-97658325D01*
X166903029Y-97804074D01*
X166896780Y-97807681D01*
X166625456Y-97986134D01*
X166619655Y-97990453D01*
X166509713Y-98082704D01*
X166502027Y-98094029D01*
X166508697Y-98105980D01*
X168593086Y-100190369D01*
X168625180Y-100245956D01*
X168625180Y-100310144D01*
X168593086Y-100365731D01*
X166508697Y-102450120D01*
X166502027Y-102462071D01*
X166509714Y-102473397D01*
X166619656Y-102565649D01*
X166625454Y-102569966D01*
X166896780Y-102748420D01*
X166903029Y-102752027D01*
X167193237Y-102897776D01*
X167199876Y-102900639D01*
X167505053Y-103011715D01*
X167511943Y-103013778D01*
X167827983Y-103088681D01*
X167835049Y-103089927D01*
X168157650Y-103127633D01*
X168164820Y-103128051D01*
X168489610Y-103128051D01*
X168496779Y-103127633D01*
X168819380Y-103089927D01*
X168826446Y-103088681D01*
X169142486Y-103013778D01*
X169149376Y-103011715D01*
X169454553Y-102900639D01*
X169461192Y-102897776D01*
X169751400Y-102752027D01*
X169757644Y-102748422D01*
X169791114Y-102726409D01*
X169853514Y-102706141D01*
X169917521Y-102720550D01*
X169965216Y-102765601D01*
X169983248Y-102828684D01*
X169966568Y-102892136D01*
X162161633Y-116373388D01*
X162114962Y-116419420D01*
X162051344Y-116435224D01*
X161988558Y-116416385D01*
X161944150Y-116368168D01*
X161930530Y-116304047D01*
X161931835Y-116281652D01*
X161931835Y-116274445D01*
X161912952Y-115950238D01*
X161912113Y-115943059D01*
X161855720Y-115623239D01*
X161854058Y-115616226D01*
X161760909Y-115305087D01*
X161758453Y-115298338D01*
X161629812Y-115000116D01*
X161626579Y-114993680D01*
X161464198Y-114712427D01*
X161460232Y-114706396D01*
X161272829Y-114454672D01*
X161264597Y-114447505D01*
X161255415Y-114453402D01*
X159077215Y-116631604D01*
X157258697Y-118450120D01*
X157252027Y-118462071D01*
X157259714Y-118473397D01*
X157369656Y-118565649D01*
X157375454Y-118569966D01*
X157649108Y-118749951D01*
X157691124Y-118796614D01*
X157704893Y-118857879D01*
X157686884Y-118918033D01*
X157641715Y-118961652D01*
X157580969Y-118977551D01*
X142073461Y-118977551D01*
X142012715Y-118961652D01*
X141967546Y-118918033D01*
X141949537Y-118857879D01*
X141963306Y-118796614D01*
X142005322Y-118749951D01*
X142278975Y-118569966D01*
X142284773Y-118565649D01*
X142394714Y-118473397D01*
X142402401Y-118462071D01*
X142395730Y-118450119D01*
X140223662Y-116278051D01*
X140935646Y-116278051D01*
X140942310Y-116289593D01*
X142755415Y-118102698D01*
X142764597Y-118108595D01*
X142772829Y-118101428D01*
X142960232Y-117849705D01*
X142964198Y-117843674D01*
X143096779Y-117614037D01*
X145997285Y-117614037D01*
X145997286Y-117617168D01*
X145997605Y-117620300D01*
X145997606Y-117620301D01*
X146006922Y-117711509D01*
X146006923Y-117711517D01*
X146007611Y-117718245D01*
X146009739Y-117724667D01*
X146009740Y-117724671D01*
X146056951Y-117867145D01*
X146061877Y-117882008D01*
X146152445Y-118028842D01*
X146274435Y-118150832D01*
X146421269Y-118241400D01*
X146585032Y-118295666D01*
X146686108Y-118305992D01*
X147359461Y-118305991D01*
X147460538Y-118295666D01*
X147624301Y-118241400D01*
X147771135Y-118150832D01*
X147810103Y-118111863D01*
X147865691Y-118079769D01*
X147929879Y-118079769D01*
X147985466Y-118111863D01*
X148024435Y-118150832D01*
X148171269Y-118241400D01*
X148335032Y-118295666D01*
X148436108Y-118305992D01*
X149109461Y-118305991D01*
X149210538Y-118295666D01*
X149374301Y-118241400D01*
X149521135Y-118150832D01*
X149643125Y-118028842D01*
X149733693Y-117882008D01*
X149787959Y-117718245D01*
X149798285Y-117617169D01*
X149798284Y-117240942D01*
X149807723Y-117193490D01*
X149834600Y-117153265D01*
X150205499Y-116782366D01*
X150262478Y-116749910D01*
X150328045Y-116751052D01*
X150383860Y-116785475D01*
X150414314Y-116843552D01*
X150411424Y-116898782D01*
X150413373Y-116899200D01*
X150411955Y-116905821D01*
X150409826Y-116912247D01*
X150409138Y-116918977D01*
X150409137Y-116918984D01*
X150399819Y-117010191D01*
X150399818Y-117010209D01*
X150399500Y-117013323D01*
X150399500Y-117016470D01*
X150399500Y-117016471D01*
X150399500Y-117583526D01*
X150399500Y-117583545D01*
X150399501Y-117586676D01*
X150399820Y-117589808D01*
X150399821Y-117589809D01*
X150409137Y-117681017D01*
X150409138Y-117681025D01*
X150409826Y-117687753D01*
X150411954Y-117694175D01*
X150411955Y-117694179D01*
X150461819Y-117844659D01*
X150464092Y-117851516D01*
X150554660Y-117998350D01*
X150676650Y-118120340D01*
X150823484Y-118210908D01*
X150987247Y-118265174D01*
X151088323Y-118275500D01*
X151761676Y-118275499D01*
X151862753Y-118265174D01*
X152026516Y-118210908D01*
X152173350Y-118120340D01*
X152212319Y-118081370D01*
X152267906Y-118049277D01*
X152332094Y-118049277D01*
X152387681Y-118081370D01*
X152426650Y-118120340D01*
X152573484Y-118210908D01*
X152737247Y-118265174D01*
X152838323Y-118275500D01*
X153511676Y-118275499D01*
X153612753Y-118265174D01*
X153776516Y-118210908D01*
X153923350Y-118120340D01*
X154045340Y-117998350D01*
X154135908Y-117851516D01*
X154163499Y-117768250D01*
X154201867Y-117711958D01*
X154264185Y-117684429D01*
X154331639Y-117693976D01*
X154370197Y-117711144D01*
X154555354Y-117750500D01*
X154738143Y-117750500D01*
X154744646Y-117750500D01*
X154929803Y-117711144D01*
X155102730Y-117634151D01*
X155255871Y-117522888D01*
X155382533Y-117382216D01*
X155477179Y-117218284D01*
X155535674Y-117038256D01*
X155555460Y-116850000D01*
X155535674Y-116661744D01*
X155477179Y-116481716D01*
X155382533Y-116317784D01*
X155350579Y-116282296D01*
X155350004Y-116281657D01*
X156222595Y-116281657D01*
X156241477Y-116605863D01*
X156242316Y-116613042D01*
X156298709Y-116932862D01*
X156300371Y-116939875D01*
X156393520Y-117251014D01*
X156395976Y-117257763D01*
X156524617Y-117555985D01*
X156527850Y-117562421D01*
X156690231Y-117843674D01*
X156694197Y-117849705D01*
X156881599Y-118101428D01*
X156889831Y-118108595D01*
X156899013Y-118102698D01*
X158712119Y-116289593D01*
X158718783Y-116278050D01*
X158712119Y-116266508D01*
X156899013Y-114453402D01*
X156889831Y-114447506D01*
X156881598Y-114454673D01*
X156694197Y-114706395D01*
X156690231Y-114712427D01*
X156527850Y-114993680D01*
X156524617Y-115000116D01*
X156395976Y-115298338D01*
X156393520Y-115305087D01*
X156300371Y-115616226D01*
X156298709Y-115623239D01*
X156242316Y-115943059D01*
X156241477Y-115950238D01*
X156222595Y-116274445D01*
X156222595Y-116281657D01*
X155350004Y-116281657D01*
X155260220Y-116181942D01*
X155260219Y-116181941D01*
X155255871Y-116177112D01*
X155250613Y-116173292D01*
X155250611Y-116173290D01*
X155107988Y-116069669D01*
X155107987Y-116069668D01*
X155102730Y-116065849D01*
X155096792Y-116063205D01*
X154935745Y-115991501D01*
X154935740Y-115991499D01*
X154929803Y-115988856D01*
X154923444Y-115987504D01*
X154923440Y-115987503D01*
X154751008Y-115950852D01*
X154751005Y-115950851D01*
X154744646Y-115949500D01*
X154555354Y-115949500D01*
X154548995Y-115950851D01*
X154548991Y-115950852D01*
X154376559Y-115987503D01*
X154376552Y-115987505D01*
X154370197Y-115988856D01*
X154364262Y-115991498D01*
X154364254Y-115991501D01*
X154249436Y-116042623D01*
X154189272Y-116052962D01*
X154131465Y-116033339D01*
X154090027Y-115988512D01*
X154075000Y-115929344D01*
X154075000Y-115866326D01*
X154071549Y-115853450D01*
X154058674Y-115850000D01*
X153049000Y-115850000D01*
X152987000Y-115833387D01*
X152941613Y-115788000D01*
X152925000Y-115726000D01*
X152925000Y-115333674D01*
X153425000Y-115333674D01*
X153428450Y-115346549D01*
X153441326Y-115350000D01*
X154058673Y-115350000D01*
X154071548Y-115346549D01*
X154074999Y-115333674D01*
X154074999Y-115271247D01*
X154074743Y-115265613D01*
X154069184Y-115204429D01*
X154066638Y-115191630D01*
X154020251Y-115042767D01*
X154014135Y-115029179D01*
X153933954Y-114896543D01*
X153924771Y-114884822D01*
X153815177Y-114775228D01*
X153803456Y-114766045D01*
X153670820Y-114685864D01*
X153657232Y-114679748D01*
X153508372Y-114633361D01*
X153495568Y-114630815D01*
X153438856Y-114625661D01*
X153428450Y-114628450D01*
X153425000Y-114641326D01*
X153425000Y-115333674D01*
X152925000Y-115333674D01*
X152925000Y-114641327D01*
X152921549Y-114628451D01*
X152911143Y-114625662D01*
X152854429Y-114630815D01*
X152841630Y-114633361D01*
X152692767Y-114679748D01*
X152679179Y-114685864D01*
X152546543Y-114766045D01*
X152534822Y-114775228D01*
X152438035Y-114872016D01*
X152382448Y-114904110D01*
X152318260Y-114904110D01*
X152262673Y-114872016D01*
X152165488Y-114774831D01*
X152165487Y-114774830D01*
X152160185Y-114769528D01*
X152055752Y-114706396D01*
X152021021Y-114685400D01*
X152021020Y-114685399D01*
X152014606Y-114681522D01*
X151983464Y-114671818D01*
X151858457Y-114632864D01*
X151858448Y-114632862D01*
X151852196Y-114630914D01*
X151845662Y-114630320D01*
X151845661Y-114630320D01*
X151784425Y-114624755D01*
X151784419Y-114624754D01*
X151781616Y-114624500D01*
X151268384Y-114624500D01*
X151265581Y-114624754D01*
X151265574Y-114624755D01*
X151204338Y-114630320D01*
X151204335Y-114630320D01*
X151197804Y-114630914D01*
X151191553Y-114632861D01*
X151191542Y-114632864D01*
X151042550Y-114679292D01*
X151035394Y-114681522D01*
X151028982Y-114685398D01*
X151028978Y-114685400D01*
X150896232Y-114765648D01*
X150896227Y-114765651D01*
X150889815Y-114769528D01*
X150884515Y-114774827D01*
X150884511Y-114774831D01*
X150774831Y-114884511D01*
X150774827Y-114884515D01*
X150769528Y-114889815D01*
X150765652Y-114896225D01*
X150765646Y-114896234D01*
X150754661Y-114914406D01*
X150714501Y-114955258D01*
X150660264Y-114973698D01*
X150603526Y-114965792D01*
X150556397Y-114933226D01*
X150510221Y-114881943D01*
X150510220Y-114881942D01*
X150505871Y-114877112D01*
X150500613Y-114873292D01*
X150500611Y-114873290D01*
X150357988Y-114769669D01*
X150357987Y-114769668D01*
X150352730Y-114765849D01*
X150346792Y-114763205D01*
X150185745Y-114691501D01*
X150185740Y-114691499D01*
X150179803Y-114688856D01*
X150173444Y-114687504D01*
X150173440Y-114687503D01*
X150001008Y-114650852D01*
X150001005Y-114650851D01*
X149994646Y-114649500D01*
X149805354Y-114649500D01*
X149798995Y-114650851D01*
X149798991Y-114650852D01*
X149626559Y-114687503D01*
X149626552Y-114687505D01*
X149620197Y-114688856D01*
X149614262Y-114691498D01*
X149614254Y-114691501D01*
X149453210Y-114763204D01*
X149453207Y-114763205D01*
X149447270Y-114765849D01*
X149442017Y-114769664D01*
X149442009Y-114769670D01*
X149435834Y-114774157D01*
X149392140Y-114794351D01*
X149344048Y-114796384D01*
X149298805Y-114779951D01*
X149193605Y-114716356D01*
X149180017Y-114710240D01*
X149031157Y-114663853D01*
X149018353Y-114661307D01*
X148961641Y-114656153D01*
X148951235Y-114658942D01*
X148947785Y-114671818D01*
X148947785Y-115756492D01*
X148931172Y-115818492D01*
X148885785Y-115863879D01*
X148823785Y-115880492D01*
X148571785Y-115880492D01*
X148509785Y-115863879D01*
X148464398Y-115818492D01*
X148447785Y-115756492D01*
X148447785Y-114671819D01*
X148444334Y-114658943D01*
X148433928Y-114656154D01*
X148377214Y-114661307D01*
X148364415Y-114663853D01*
X148215552Y-114710240D01*
X148201964Y-114716356D01*
X148069328Y-114796537D01*
X148057607Y-114805720D01*
X147960820Y-114902508D01*
X147905233Y-114934602D01*
X147841045Y-114934602D01*
X147785458Y-114902508D01*
X147688273Y-114805323D01*
X147682970Y-114800020D01*
X147673592Y-114794351D01*
X147543806Y-114715892D01*
X147543805Y-114715891D01*
X147537391Y-114712014D01*
X147508285Y-114702944D01*
X147381242Y-114663356D01*
X147381233Y-114663354D01*
X147374981Y-114661406D01*
X147368447Y-114660812D01*
X147368446Y-114660812D01*
X147307210Y-114655247D01*
X147307204Y-114655246D01*
X147304401Y-114654992D01*
X146791169Y-114654992D01*
X146788366Y-114655246D01*
X146788359Y-114655247D01*
X146727123Y-114660812D01*
X146727120Y-114660812D01*
X146720589Y-114661406D01*
X146714338Y-114663353D01*
X146714327Y-114663356D01*
X146565335Y-114709784D01*
X146558179Y-114712014D01*
X146551767Y-114715890D01*
X146551763Y-114715892D01*
X146419017Y-114796140D01*
X146419012Y-114796143D01*
X146412600Y-114800020D01*
X146407300Y-114805319D01*
X146407296Y-114805323D01*
X146297616Y-114915003D01*
X146297612Y-114915007D01*
X146292313Y-114920307D01*
X146288436Y-114926719D01*
X146288433Y-114926724D01*
X146208185Y-115059470D01*
X146208183Y-115059474D01*
X146204307Y-115065886D01*
X146202077Y-115073040D01*
X146202077Y-115073042D01*
X146155649Y-115222034D01*
X146155646Y-115222045D01*
X146153699Y-115228296D01*
X146153105Y-115234827D01*
X146153105Y-115234830D01*
X146149796Y-115271247D01*
X146147285Y-115298876D01*
X146147285Y-115962108D01*
X146153699Y-116032688D01*
X146155647Y-116038940D01*
X146155649Y-116038949D01*
X146169132Y-116082216D01*
X146204307Y-116195098D01*
X146292313Y-116340677D01*
X146293597Y-116341961D01*
X146317689Y-116398386D01*
X146310117Y-116461945D01*
X146274285Y-116510002D01*
X146274435Y-116510152D01*
X146273407Y-116511179D01*
X146273404Y-116511182D01*
X146269332Y-116515254D01*
X146269328Y-116515258D01*
X146157556Y-116627030D01*
X146157552Y-116627034D01*
X146152445Y-116632142D01*
X146148653Y-116638289D01*
X146148652Y-116638291D01*
X146079101Y-116751052D01*
X146061877Y-116778976D01*
X146059607Y-116785824D01*
X146059605Y-116785830D01*
X146036201Y-116856460D01*
X146007611Y-116942739D01*
X146006923Y-116949469D01*
X146006922Y-116949476D01*
X145997604Y-117040683D01*
X145997603Y-117040701D01*
X145997285Y-117043815D01*
X145997285Y-117046962D01*
X145997285Y-117046963D01*
X145997285Y-117614018D01*
X145997285Y-117614037D01*
X143096779Y-117614037D01*
X143126579Y-117562421D01*
X143129812Y-117555985D01*
X143258453Y-117257763D01*
X143260909Y-117251014D01*
X143354058Y-116939875D01*
X143355720Y-116932862D01*
X143412113Y-116613042D01*
X143412952Y-116605863D01*
X143431835Y-116281657D01*
X143431835Y-116274445D01*
X143412952Y-115950238D01*
X143412113Y-115943059D01*
X143355720Y-115623239D01*
X143354058Y-115616226D01*
X143260909Y-115305087D01*
X143258453Y-115298338D01*
X143129812Y-115000116D01*
X143126579Y-114993680D01*
X142964198Y-114712427D01*
X142960232Y-114706396D01*
X142772829Y-114454672D01*
X142764597Y-114447505D01*
X142755415Y-114453402D01*
X140942310Y-116266508D01*
X140935646Y-116278051D01*
X140223662Y-116278051D01*
X138399013Y-114453402D01*
X138389831Y-114447506D01*
X138381598Y-114454673D01*
X138194197Y-114706395D01*
X138190231Y-114712427D01*
X138027850Y-114993680D01*
X138024617Y-115000116D01*
X137895976Y-115298338D01*
X137893520Y-115305087D01*
X137800371Y-115616226D01*
X137798709Y-115623239D01*
X137742316Y-115943059D01*
X137741477Y-115950238D01*
X137722595Y-116274445D01*
X137722595Y-116281659D01*
X137723899Y-116304053D01*
X137710277Y-116368172D01*
X137665869Y-116416388D01*
X137603083Y-116435225D01*
X137539466Y-116419420D01*
X137492797Y-116373391D01*
X136173166Y-114094029D01*
X138752027Y-114094029D01*
X138758697Y-114105980D01*
X140565672Y-115912955D01*
X140577214Y-115919619D01*
X140588757Y-115912955D01*
X142395731Y-114105980D01*
X142402400Y-114094029D01*
X157252027Y-114094029D01*
X157258697Y-114105980D01*
X159065672Y-115912955D01*
X159077214Y-115919619D01*
X159088757Y-115912955D01*
X160895731Y-114105980D01*
X160902401Y-114094028D01*
X160894715Y-114082704D01*
X160784773Y-113990452D01*
X160778975Y-113986135D01*
X160507649Y-113807681D01*
X160501400Y-113804074D01*
X160211192Y-113658325D01*
X160204553Y-113655462D01*
X159899376Y-113544386D01*
X159892486Y-113542323D01*
X159576446Y-113467420D01*
X159569380Y-113466174D01*
X159246779Y-113428468D01*
X159239610Y-113428051D01*
X158914820Y-113428051D01*
X158907650Y-113428468D01*
X158585049Y-113466174D01*
X158577983Y-113467420D01*
X158261943Y-113542323D01*
X158255053Y-113544386D01*
X157949876Y-113655462D01*
X157943237Y-113658325D01*
X157653029Y-113804074D01*
X157646780Y-113807681D01*
X157375456Y-113986134D01*
X157369655Y-113990453D01*
X157259713Y-114082704D01*
X157252027Y-114094029D01*
X142402400Y-114094029D01*
X142402401Y-114094028D01*
X142394715Y-114082704D01*
X142284773Y-113990452D01*
X142278975Y-113986135D01*
X142007649Y-113807681D01*
X142001400Y-113804074D01*
X141711192Y-113658325D01*
X141704553Y-113655462D01*
X141399376Y-113544386D01*
X141392486Y-113542323D01*
X141076446Y-113467420D01*
X141069380Y-113466174D01*
X140746779Y-113428468D01*
X140739610Y-113428051D01*
X140414820Y-113428051D01*
X140407650Y-113428468D01*
X140085049Y-113466174D01*
X140077983Y-113467420D01*
X139761943Y-113542323D01*
X139755053Y-113544386D01*
X139449876Y-113655462D01*
X139443237Y-113658325D01*
X139153029Y-113804074D01*
X139146780Y-113807681D01*
X138875456Y-113986134D01*
X138869655Y-113990453D01*
X138759713Y-114082704D01*
X138752027Y-114094029D01*
X136173166Y-114094029D01*
X135759782Y-113380002D01*
X135743273Y-113324485D01*
X135753781Y-113267522D01*
X135789016Y-113221548D01*
X135841288Y-113196593D01*
X135899192Y-113198103D01*
X135966431Y-113216120D01*
X135977661Y-113216488D01*
X135980213Y-113205546D01*
X135980213Y-110664366D01*
X135977378Y-110653223D01*
X135966051Y-110655199D01*
X135956154Y-110659640D01*
X135950551Y-110662505D01*
X135284875Y-111046835D01*
X135279598Y-111050250D01*
X135203928Y-111104891D01*
X135193933Y-111113917D01*
X135086685Y-111234432D01*
X135078455Y-111246184D01*
X135002098Y-111387795D01*
X134996804Y-111401122D01*
X134953296Y-111563500D01*
X134950899Y-111562857D01*
X134932820Y-111606444D01*
X134885792Y-111644744D01*
X134826225Y-111656158D01*
X134768369Y-111637957D01*
X134726068Y-111594495D01*
X134249625Y-110771548D01*
X134232995Y-110713145D01*
X134246091Y-110653846D01*
X134285773Y-110607877D01*
X134342524Y-110586263D01*
X134391110Y-110592658D01*
X134391640Y-110590683D01*
X134461434Y-110609384D01*
X134472661Y-110609752D01*
X134475213Y-110598810D01*
X134475213Y-108057630D01*
X134472378Y-108046487D01*
X134461051Y-108048463D01*
X134451154Y-108052904D01*
X134445551Y-108055769D01*
X133779875Y-108440099D01*
X133774598Y-108443514D01*
X133698928Y-108498155D01*
X133688933Y-108507181D01*
X133581685Y-108627696D01*
X133573455Y-108639448D01*
X133497098Y-108781059D01*
X133491804Y-108794386D01*
X133448296Y-108956764D01*
X133447272Y-108956489D01*
X133427011Y-109005404D01*
X133379987Y-109043730D01*
X133320410Y-109055163D01*
X133262540Y-109036967D01*
X133220227Y-108993497D01*
X132739218Y-108162664D01*
X132722588Y-108104262D01*
X132735682Y-108044964D01*
X132775361Y-107998995D01*
X132832110Y-107977379D01*
X132886483Y-107984531D01*
X132886640Y-107983946D01*
X132891084Y-107985136D01*
X132892317Y-107985299D01*
X132893617Y-107985815D01*
X132956434Y-108002647D01*
X132967661Y-108003015D01*
X132970213Y-107992073D01*
X132970213Y-107953263D01*
X133470213Y-107953263D01*
X133473047Y-107964405D01*
X133484374Y-107962429D01*
X133494271Y-107957988D01*
X133499874Y-107955123D01*
X134165550Y-107570793D01*
X134170827Y-107567378D01*
X134246497Y-107512737D01*
X134256492Y-107503711D01*
X134363740Y-107383196D01*
X134371970Y-107371444D01*
X134448327Y-107229833D01*
X134453621Y-107216506D01*
X134495260Y-107061107D01*
X134498387Y-107039762D01*
X134500314Y-107040044D01*
X134514700Y-106990667D01*
X134559175Y-106946828D01*
X134619377Y-106930225D01*
X134669703Y-106942541D01*
X134670387Y-106940820D01*
X134677099Y-106943486D01*
X134683456Y-106946914D01*
X134806800Y-106979964D01*
X134845943Y-106990453D01*
X134845944Y-106990453D01*
X134852919Y-106992322D01*
X135028287Y-106997423D01*
X135200105Y-106961946D01*
X135294372Y-106919647D01*
X135404594Y-106856010D01*
X135448336Y-106830756D01*
X135510336Y-106814143D01*
X135572336Y-106830756D01*
X135617723Y-106876143D01*
X135634336Y-106938143D01*
X135634336Y-107297365D01*
X135619264Y-107356616D01*
X135577712Y-107401464D01*
X135576620Y-107402170D01*
X135573874Y-107403756D01*
X135571319Y-107405600D01*
X135571308Y-107405608D01*
X135495596Y-107460279D01*
X135495591Y-107460282D01*
X135490106Y-107464244D01*
X135485602Y-107469304D01*
X135485601Y-107469306D01*
X135378276Y-107589906D01*
X135378273Y-107589910D01*
X135373473Y-107595304D01*
X135370048Y-107601655D01*
X135370043Y-107601663D01*
X135299608Y-107732292D01*
X135290207Y-107749727D01*
X135288339Y-107756696D01*
X135288337Y-107756703D01*
X135246669Y-107912212D01*
X135246667Y-107912220D01*
X135244800Y-107919191D01*
X135244590Y-107926408D01*
X135243543Y-107933558D01*
X135241714Y-107933290D01*
X135227200Y-107983050D01*
X135182721Y-108026872D01*
X135122525Y-108043462D01*
X135072570Y-108031232D01*
X135071852Y-108033040D01*
X135051812Y-108025078D01*
X134988991Y-108008245D01*
X134977764Y-108007877D01*
X134975213Y-108018820D01*
X134975213Y-110560000D01*
X134978047Y-110571142D01*
X134989374Y-110569166D01*
X134999271Y-110564725D01*
X135004874Y-110561860D01*
X135670550Y-110177530D01*
X135675827Y-110174115D01*
X135751497Y-110119474D01*
X135761492Y-110110448D01*
X135868740Y-109989933D01*
X135876970Y-109978181D01*
X135953327Y-109836570D01*
X135958621Y-109823243D01*
X136000260Y-109667844D01*
X136003387Y-109646499D01*
X136005314Y-109646781D01*
X136019700Y-109597404D01*
X136064175Y-109553565D01*
X136124377Y-109536962D01*
X136174703Y-109549278D01*
X136175387Y-109547557D01*
X136182099Y-109550223D01*
X136188456Y-109553651D01*
X136302170Y-109584121D01*
X136350943Y-109597190D01*
X136350944Y-109597190D01*
X136357919Y-109599059D01*
X136533287Y-109604160D01*
X136705105Y-109568683D01*
X136799372Y-109526384D01*
X136866382Y-109487694D01*
X136905781Y-109473160D01*
X136947771Y-109472610D01*
X136984272Y-109478391D01*
X136995683Y-109480753D01*
X137038000Y-109491619D01*
X137058036Y-109491619D01*
X137077421Y-109493144D01*
X137097215Y-109496279D01*
X137135295Y-109492679D01*
X137140695Y-109492169D01*
X137152364Y-109491619D01*
X137514812Y-109491619D01*
X137576812Y-109508232D01*
X137622199Y-109553619D01*
X137638812Y-109615619D01*
X137622199Y-109677619D01*
X137576812Y-109723006D01*
X137081601Y-110008917D01*
X137081592Y-110008922D01*
X137078874Y-110010492D01*
X137076341Y-110012320D01*
X137076324Y-110012332D01*
X137000596Y-110067015D01*
X137000591Y-110067018D01*
X136995106Y-110070980D01*
X136990602Y-110076040D01*
X136990601Y-110076042D01*
X136883276Y-110196642D01*
X136883273Y-110196646D01*
X136878473Y-110202040D01*
X136875048Y-110208391D01*
X136875043Y-110208399D01*
X136808247Y-110332279D01*
X136795207Y-110356463D01*
X136793339Y-110363432D01*
X136793337Y-110363439D01*
X136751669Y-110518948D01*
X136751667Y-110518956D01*
X136749800Y-110525927D01*
X136749590Y-110533144D01*
X136748543Y-110540294D01*
X136746714Y-110540026D01*
X136732200Y-110589786D01*
X136687721Y-110633608D01*
X136627525Y-110650198D01*
X136577570Y-110637968D01*
X136576852Y-110639776D01*
X136556812Y-110631814D01*
X136493991Y-110614981D01*
X136482764Y-110614613D01*
X136480213Y-110625556D01*
X136480213Y-113166736D01*
X136483047Y-113177878D01*
X136494374Y-113175902D01*
X136504271Y-113171461D01*
X136509874Y-113168596D01*
X137175550Y-112784266D01*
X137180827Y-112780851D01*
X137256497Y-112726210D01*
X137266492Y-112717184D01*
X137373740Y-112596669D01*
X137381970Y-112584917D01*
X137458327Y-112443306D01*
X137463621Y-112429979D01*
X137505260Y-112274580D01*
X137508387Y-112253235D01*
X137510314Y-112253517D01*
X137524700Y-112204140D01*
X137569175Y-112160301D01*
X137629377Y-112143698D01*
X137679703Y-112156014D01*
X137680387Y-112154293D01*
X137687099Y-112156959D01*
X137693456Y-112160387D01*
X137816800Y-112193437D01*
X137855943Y-112203926D01*
X137855944Y-112203926D01*
X137862919Y-112205795D01*
X138038287Y-112210896D01*
X138210105Y-112175419D01*
X138304372Y-112133120D01*
X138975556Y-111745610D01*
X139059324Y-111685122D01*
X139175957Y-111554062D01*
X139176754Y-111554771D01*
X139209853Y-111524435D01*
X139261048Y-111508289D01*
X139314271Y-111515293D01*
X139359544Y-111544134D01*
X139552216Y-111736807D01*
X139652707Y-111837298D01*
X139660159Y-111845487D01*
X139664214Y-111851877D01*
X139690670Y-111876721D01*
X139713223Y-111897900D01*
X139716020Y-111900611D01*
X139735529Y-111920120D01*
X139738709Y-111922587D01*
X139747571Y-111930155D01*
X139758393Y-111940318D01*
X139773732Y-111954723D01*
X139773734Y-111954724D01*
X139779418Y-111960062D01*
X139786251Y-111963818D01*
X139786252Y-111963819D01*
X139796973Y-111969713D01*
X139813234Y-111980394D01*
X139829064Y-111992673D01*
X139869154Y-112010021D01*
X139879631Y-112015154D01*
X139917908Y-112036197D01*
X139934957Y-112040574D01*
X139937305Y-112041177D01*
X139955719Y-112047481D01*
X139974104Y-112055438D01*
X140017265Y-112062273D01*
X140028664Y-112064634D01*
X140070981Y-112075500D01*
X140091017Y-112075500D01*
X140110402Y-112077025D01*
X140130196Y-112080160D01*
X140168276Y-112076560D01*
X140173676Y-112076050D01*
X140185345Y-112075500D01*
X140846252Y-112075500D01*
X140896685Y-112086219D01*
X140934781Y-112113895D01*
X140934950Y-112113709D01*
X140936728Y-112115310D01*
X140938398Y-112116523D01*
X140944129Y-112122888D01*
X140949387Y-112126708D01*
X140949388Y-112126709D01*
X140972772Y-112143698D01*
X141097270Y-112234151D01*
X141270197Y-112311144D01*
X141455354Y-112350500D01*
X141638143Y-112350500D01*
X141644646Y-112350500D01*
X141829803Y-112311144D01*
X142002730Y-112234151D01*
X142155871Y-112122888D01*
X142282533Y-111982216D01*
X142377179Y-111818284D01*
X142423774Y-111674880D01*
X145627216Y-111674880D01*
X145627536Y-111681162D01*
X145637020Y-111774010D01*
X145639838Y-111787173D01*
X145690585Y-111940318D01*
X145696647Y-111953317D01*
X145781105Y-112090245D01*
X145790009Y-112101506D01*
X145903759Y-112215256D01*
X145915020Y-112224160D01*
X146051948Y-112308618D01*
X146064947Y-112314680D01*
X146218089Y-112365426D01*
X146231256Y-112368245D01*
X146324105Y-112377731D01*
X146330383Y-112378051D01*
X146460889Y-112378051D01*
X146473764Y-112374600D01*
X146477215Y-112361725D01*
X146477215Y-112361724D01*
X146977215Y-112361724D01*
X146980665Y-112374599D01*
X146993541Y-112378050D01*
X147124044Y-112378050D01*
X147130326Y-112377729D01*
X147223174Y-112368245D01*
X147236337Y-112365427D01*
X147389482Y-112314680D01*
X147402481Y-112308618D01*
X147539409Y-112224160D01*
X147550670Y-112215256D01*
X147664420Y-112101506D01*
X147673324Y-112090245D01*
X147757782Y-111953317D01*
X147763844Y-111940318D01*
X147814590Y-111787176D01*
X147817409Y-111774009D01*
X147826895Y-111681160D01*
X147827215Y-111674883D01*
X147827215Y-111674880D01*
X152227216Y-111674880D01*
X152227536Y-111681162D01*
X152237020Y-111774010D01*
X152239838Y-111787173D01*
X152290585Y-111940318D01*
X152296647Y-111953317D01*
X152381105Y-112090245D01*
X152390009Y-112101506D01*
X152503759Y-112215256D01*
X152515020Y-112224160D01*
X152651948Y-112308618D01*
X152664947Y-112314680D01*
X152818089Y-112365426D01*
X152831256Y-112368245D01*
X152924105Y-112377731D01*
X152930383Y-112378051D01*
X153060889Y-112378051D01*
X153073764Y-112374600D01*
X153077215Y-112361725D01*
X153077215Y-112361724D01*
X153577215Y-112361724D01*
X153580665Y-112374599D01*
X153593541Y-112378050D01*
X153724044Y-112378050D01*
X153730326Y-112377729D01*
X153823174Y-112368245D01*
X153836337Y-112365427D01*
X153989482Y-112314680D01*
X154002481Y-112308618D01*
X154139409Y-112224160D01*
X154150670Y-112215256D01*
X154264420Y-112101506D01*
X154273324Y-112090245D01*
X154357782Y-111953317D01*
X154363844Y-111940318D01*
X154412565Y-111793286D01*
X161200000Y-111793286D01*
X161202892Y-111805418D01*
X161214372Y-111810280D01*
X161240353Y-111814650D01*
X161257907Y-111815067D01*
X161383056Y-111800103D01*
X161400015Y-111795559D01*
X161515878Y-111745944D01*
X161530869Y-111736807D01*
X161628921Y-111655849D01*
X161639476Y-111644645D01*
X161668255Y-111605232D01*
X161671886Y-111599655D01*
X162356344Y-110414139D01*
X162359332Y-110402987D01*
X162348182Y-110400000D01*
X161216326Y-110400000D01*
X161203450Y-110403450D01*
X161200000Y-110416326D01*
X161200000Y-111793286D01*
X154412565Y-111793286D01*
X154414590Y-111787176D01*
X154417409Y-111774009D01*
X154426895Y-111681160D01*
X154427215Y-111674883D01*
X154427215Y-111244377D01*
X154423764Y-111231501D01*
X154410889Y-111228051D01*
X153593541Y-111228051D01*
X153580665Y-111231501D01*
X153577215Y-111244377D01*
X153577215Y-112361724D01*
X153077215Y-112361724D01*
X153077215Y-111244377D01*
X153073764Y-111231501D01*
X153060889Y-111228051D01*
X152243542Y-111228051D01*
X152230666Y-111231501D01*
X152227216Y-111244377D01*
X152227216Y-111674880D01*
X147827215Y-111674880D01*
X147827215Y-111244377D01*
X147823764Y-111231501D01*
X147810889Y-111228051D01*
X146993541Y-111228051D01*
X146980665Y-111231501D01*
X146977215Y-111244377D01*
X146977215Y-112361724D01*
X146477215Y-112361724D01*
X146477215Y-111244377D01*
X146473764Y-111231501D01*
X146460889Y-111228051D01*
X145643542Y-111228051D01*
X145630666Y-111231501D01*
X145627216Y-111244377D01*
X145627216Y-111674880D01*
X142423774Y-111674880D01*
X142435674Y-111638256D01*
X142455460Y-111450000D01*
X142435674Y-111261744D01*
X142377179Y-111081716D01*
X142282533Y-110917784D01*
X142198539Y-110824500D01*
X142160220Y-110781942D01*
X142160219Y-110781941D01*
X142155871Y-110777112D01*
X142150613Y-110773292D01*
X142150611Y-110773290D01*
X142065873Y-110711725D01*
X145627215Y-110711725D01*
X145630665Y-110724600D01*
X145643541Y-110728051D01*
X146460889Y-110728051D01*
X146473764Y-110724600D01*
X146477215Y-110711725D01*
X146477215Y-109594378D01*
X146473764Y-109581502D01*
X146460889Y-109578052D01*
X146330386Y-109578052D01*
X146324103Y-109578372D01*
X146231255Y-109587856D01*
X146218092Y-109590674D01*
X146064947Y-109641421D01*
X146051948Y-109647483D01*
X145915020Y-109731941D01*
X145903759Y-109740845D01*
X145790009Y-109854595D01*
X145781105Y-109865856D01*
X145696647Y-110002784D01*
X145690585Y-110015783D01*
X145639839Y-110168925D01*
X145637020Y-110182092D01*
X145627534Y-110274941D01*
X145627215Y-110281219D01*
X145627215Y-110711725D01*
X142065873Y-110711725D01*
X142007988Y-110669669D01*
X142007987Y-110669668D01*
X142002730Y-110665849D01*
X141996792Y-110663205D01*
X141835745Y-110591501D01*
X141835740Y-110591499D01*
X141829803Y-110588856D01*
X141823444Y-110587504D01*
X141823440Y-110587503D01*
X141651008Y-110550852D01*
X141651005Y-110550851D01*
X141644646Y-110549500D01*
X141455354Y-110549500D01*
X141448995Y-110550851D01*
X141448991Y-110550852D01*
X141276559Y-110587503D01*
X141276552Y-110587505D01*
X141270197Y-110588856D01*
X141264262Y-110591498D01*
X141264254Y-110591501D01*
X141103207Y-110663205D01*
X141103202Y-110663207D01*
X141097270Y-110665849D01*
X141092016Y-110669665D01*
X141092011Y-110669669D01*
X140949388Y-110773290D01*
X140949381Y-110773295D01*
X140944129Y-110777112D01*
X140939780Y-110781941D01*
X140939781Y-110781941D01*
X140938399Y-110783476D01*
X140936728Y-110784689D01*
X140934950Y-110786291D01*
X140934781Y-110786104D01*
X140896685Y-110813781D01*
X140846252Y-110824500D01*
X140460452Y-110824500D01*
X140412999Y-110815061D01*
X140372771Y-110788181D01*
X140238436Y-110653846D01*
X140075337Y-110490746D01*
X140067893Y-110482565D01*
X140063837Y-110476174D01*
X140014826Y-110430149D01*
X140012029Y-110427438D01*
X139995278Y-110410687D01*
X139995277Y-110410686D01*
X139992522Y-110407931D01*
X139989341Y-110405463D01*
X139980465Y-110397881D01*
X139954320Y-110373329D01*
X139954318Y-110373327D01*
X139948633Y-110367989D01*
X139941800Y-110364233D01*
X139941794Y-110364228D01*
X139931076Y-110358336D01*
X139914817Y-110347657D01*
X139905146Y-110340155D01*
X139905143Y-110340153D01*
X139898987Y-110335378D01*
X139891830Y-110332280D01*
X139891827Y-110332279D01*
X139858900Y-110318029D01*
X139848416Y-110312893D01*
X139827985Y-110301662D01*
X139779789Y-110254049D01*
X139763810Y-110188212D01*
X139784819Y-110123804D01*
X139828957Y-110086467D01*
X139831891Y-110082892D01*
X139834875Y-110070096D01*
X139834875Y-109797035D01*
X139835853Y-109781494D01*
X139836134Y-109779262D01*
X139838074Y-109771711D01*
X139838074Y-109751675D01*
X139839599Y-109732289D01*
X139842734Y-109712496D01*
X139838624Y-109669016D01*
X139838074Y-109657347D01*
X139838074Y-108927051D01*
X139854687Y-108865051D01*
X139900074Y-108819664D01*
X139962074Y-108803051D01*
X140210875Y-108803051D01*
X140272875Y-108819664D01*
X140318262Y-108865051D01*
X140334875Y-108927051D01*
X140334875Y-110018919D01*
X140337709Y-110030063D01*
X140344776Y-110028829D01*
X140806343Y-109762342D01*
X140811620Y-109758927D01*
X140884503Y-109706298D01*
X140894487Y-109697283D01*
X140997857Y-109581127D01*
X141006087Y-109569373D01*
X141079667Y-109432910D01*
X141084962Y-109419582D01*
X141086473Y-109413944D01*
X141118567Y-109358354D01*
X141174157Y-109326259D01*
X141238344Y-109326259D01*
X141251496Y-109329784D01*
X141421021Y-109334717D01*
X141587115Y-109300422D01*
X141678241Y-109259531D01*
X142151687Y-108986186D01*
X142232664Y-108927714D01*
X142233572Y-108928972D01*
X142261521Y-108911812D01*
X142306025Y-108903551D01*
X147102715Y-108903551D01*
X147164715Y-108920164D01*
X147210102Y-108965551D01*
X147226715Y-109027551D01*
X147226715Y-109143745D01*
X147226905Y-109146165D01*
X147226906Y-109146179D01*
X147229119Y-109174302D01*
X147229120Y-109174309D01*
X147229617Y-109180620D01*
X147231383Y-109186701D01*
X147231385Y-109186708D01*
X147273015Y-109329994D01*
X147275471Y-109338449D01*
X147279441Y-109345162D01*
X147279442Y-109345164D01*
X147310769Y-109398135D01*
X147328018Y-109463438D01*
X147308482Y-109528094D01*
X147257957Y-109572919D01*
X147191434Y-109584614D01*
X147130324Y-109578370D01*
X147124047Y-109578051D01*
X146993541Y-109578051D01*
X146980665Y-109581501D01*
X146977215Y-109594377D01*
X146977215Y-110711725D01*
X146980665Y-110724600D01*
X146993541Y-110728051D01*
X147810888Y-110728051D01*
X147823763Y-110724600D01*
X147827214Y-110711725D01*
X152227215Y-110711725D01*
X152230665Y-110724600D01*
X152243541Y-110728051D01*
X153060889Y-110728051D01*
X153073764Y-110724600D01*
X153077215Y-110711725D01*
X153577215Y-110711725D01*
X153580665Y-110724600D01*
X153593541Y-110728051D01*
X154410888Y-110728051D01*
X154423763Y-110724600D01*
X154427214Y-110711725D01*
X154427214Y-110457907D01*
X159284932Y-110457907D01*
X159299896Y-110583056D01*
X159304440Y-110600015D01*
X159354055Y-110715878D01*
X159363192Y-110730869D01*
X159444150Y-110828921D01*
X159455354Y-110839476D01*
X159494767Y-110868255D01*
X159500344Y-110871886D01*
X160685860Y-111556344D01*
X160697012Y-111559332D01*
X160700000Y-111548182D01*
X160700000Y-110416326D01*
X160696549Y-110403450D01*
X160683674Y-110400000D01*
X159306714Y-110400000D01*
X159294581Y-110402892D01*
X159289719Y-110414372D01*
X159285349Y-110440353D01*
X159284932Y-110457907D01*
X154427214Y-110457907D01*
X154427214Y-110281222D01*
X154426893Y-110274939D01*
X154417409Y-110182091D01*
X154414591Y-110168928D01*
X154363844Y-110015783D01*
X154357782Y-110002784D01*
X154273324Y-109865856D01*
X154264420Y-109854595D01*
X154150670Y-109740845D01*
X154139409Y-109731941D01*
X154002481Y-109647483D01*
X153989482Y-109641421D01*
X153836340Y-109590675D01*
X153823173Y-109587856D01*
X153730324Y-109578370D01*
X153724047Y-109578051D01*
X153593541Y-109578051D01*
X153580665Y-109581501D01*
X153577215Y-109594377D01*
X153577215Y-110711725D01*
X153077215Y-110711725D01*
X153077215Y-109594378D01*
X153073764Y-109581502D01*
X153060889Y-109578052D01*
X152930386Y-109578052D01*
X152924101Y-109578372D01*
X152862374Y-109584677D01*
X152795852Y-109572981D01*
X152745328Y-109528155D01*
X152725793Y-109463499D01*
X152743043Y-109398196D01*
X152774526Y-109344961D01*
X152780673Y-109330756D01*
X152822546Y-109186630D01*
X152824812Y-109174224D01*
X152827023Y-109146127D01*
X152827215Y-109141248D01*
X152827215Y-108719377D01*
X152823764Y-108706501D01*
X152810889Y-108703051D01*
X152293541Y-108703051D01*
X152280665Y-108706501D01*
X152277215Y-108719377D01*
X152277215Y-109708195D01*
X152281339Y-109722818D01*
X152282286Y-109723694D01*
X152328114Y-109745115D01*
X152364004Y-109792152D01*
X152374014Y-109850464D01*
X152355864Y-109906776D01*
X152296649Y-110002779D01*
X152290585Y-110015783D01*
X152239839Y-110168925D01*
X152237020Y-110182092D01*
X152227534Y-110274941D01*
X152227215Y-110281219D01*
X152227215Y-110711725D01*
X147827214Y-110711725D01*
X147827214Y-110281222D01*
X147826893Y-110274939D01*
X147817409Y-110182091D01*
X147814591Y-110168928D01*
X147763844Y-110015783D01*
X147757779Y-110002777D01*
X147705253Y-109917619D01*
X147686800Y-109853996D01*
X147703734Y-109789953D01*
X147751223Y-109743767D01*
X147811521Y-109729605D01*
X147811521Y-109728551D01*
X148240464Y-109728551D01*
X148242909Y-109728551D01*
X148279784Y-109725649D01*
X148437613Y-109679795D01*
X148464092Y-109664135D01*
X148527212Y-109646866D01*
X148590335Y-109664133D01*
X148616817Y-109679795D01*
X148774646Y-109725649D01*
X148811521Y-109728551D01*
X149240464Y-109728551D01*
X149242909Y-109728551D01*
X149279784Y-109725649D01*
X149437613Y-109679795D01*
X149464092Y-109664135D01*
X149527212Y-109646866D01*
X149590335Y-109664133D01*
X149616817Y-109679795D01*
X149774646Y-109725649D01*
X149811521Y-109728551D01*
X150240464Y-109728551D01*
X150242909Y-109728551D01*
X150279784Y-109725649D01*
X150437613Y-109679795D01*
X150464092Y-109664135D01*
X150527212Y-109646866D01*
X150590335Y-109664133D01*
X150616817Y-109679795D01*
X150774646Y-109725649D01*
X150811521Y-109728551D01*
X151240464Y-109728551D01*
X151242909Y-109728551D01*
X151279784Y-109725649D01*
X151437613Y-109679795D01*
X151464581Y-109663845D01*
X151527703Y-109646576D01*
X151590825Y-109663843D01*
X151610304Y-109675362D01*
X151624509Y-109681509D01*
X151766438Y-109722743D01*
X151773508Y-109721337D01*
X151777215Y-109708195D01*
X151777215Y-109362098D01*
X151782139Y-109327503D01*
X151782500Y-109326260D01*
X151824813Y-109180620D01*
X151827715Y-109143745D01*
X151827715Y-108186725D01*
X152277215Y-108186725D01*
X152280665Y-108199600D01*
X152293541Y-108203051D01*
X152810889Y-108203051D01*
X152823764Y-108199600D01*
X152827215Y-108186725D01*
X152827215Y-107764854D01*
X152827023Y-107759974D01*
X152824812Y-107731877D01*
X152822546Y-107719471D01*
X152780673Y-107575345D01*
X152774525Y-107561138D01*
X152698870Y-107433212D01*
X152689379Y-107420976D01*
X152584289Y-107315886D01*
X152572053Y-107306395D01*
X152444127Y-107230740D01*
X152429920Y-107224592D01*
X152287991Y-107183358D01*
X152280921Y-107184764D01*
X152277215Y-107197907D01*
X152277215Y-108186725D01*
X151827715Y-108186725D01*
X151827715Y-107762357D01*
X151824813Y-107725482D01*
X151782138Y-107578598D01*
X151777215Y-107544004D01*
X151777215Y-107197907D01*
X151773508Y-107184764D01*
X151766438Y-107183358D01*
X151624509Y-107224592D01*
X151610301Y-107230740D01*
X151590823Y-107242259D01*
X151527704Y-107259525D01*
X151464586Y-107242258D01*
X151444330Y-107230279D01*
X151444327Y-107230277D01*
X151437613Y-107226307D01*
X151428010Y-107223517D01*
X151285872Y-107182221D01*
X151285865Y-107182219D01*
X151279784Y-107180453D01*
X151273473Y-107179956D01*
X151273466Y-107179955D01*
X151245343Y-107177742D01*
X151245329Y-107177741D01*
X151242909Y-107177551D01*
X151240464Y-107177551D01*
X151134418Y-107177551D01*
X151086965Y-107168112D01*
X151046737Y-107141232D01*
X149855187Y-105949681D01*
X149824937Y-105900318D01*
X149820395Y-105842602D01*
X149842550Y-105789115D01*
X149886573Y-105751515D01*
X149942868Y-105738000D01*
X150108667Y-105738000D01*
X150112720Y-105738000D01*
X150225236Y-105723187D01*
X150225350Y-105724053D01*
X150274650Y-105724053D01*
X150274764Y-105723187D01*
X150387280Y-105738000D01*
X150608667Y-105738000D01*
X150612720Y-105738000D01*
X150725236Y-105723187D01*
X150725350Y-105724053D01*
X150774650Y-105724053D01*
X150774764Y-105723187D01*
X150887280Y-105738000D01*
X151108667Y-105738000D01*
X151112720Y-105738000D01*
X151225236Y-105723187D01*
X151225350Y-105724053D01*
X151274650Y-105724053D01*
X151274764Y-105723187D01*
X151387280Y-105738000D01*
X151608667Y-105738000D01*
X151612720Y-105738000D01*
X151725236Y-105723187D01*
X151725315Y-105723792D01*
X151774751Y-105723792D01*
X151774895Y-105722700D01*
X151832447Y-105730277D01*
X151846126Y-105728171D01*
X151852908Y-105704907D01*
X151869609Y-105669596D01*
X151896466Y-105641232D01*
X151924511Y-105619712D01*
X151924513Y-105619710D01*
X151973162Y-105597025D01*
X152026840Y-105597026D01*
X152075489Y-105619712D01*
X152103534Y-105641233D01*
X152130390Y-105669596D01*
X152147090Y-105704906D01*
X152153871Y-105728171D01*
X152167552Y-105730277D01*
X152225105Y-105722700D01*
X152225248Y-105723793D01*
X152274684Y-105723791D01*
X152274764Y-105723187D01*
X152387280Y-105738000D01*
X152608667Y-105738000D01*
X152612720Y-105738000D01*
X152725236Y-105723187D01*
X152865233Y-105665198D01*
X152871680Y-105660250D01*
X152871685Y-105660248D01*
X152921155Y-105622288D01*
X152974665Y-105598626D01*
X153033068Y-105602134D01*
X153083361Y-105632030D01*
X153114348Y-105681659D01*
X153163396Y-105829679D01*
X153169461Y-105842684D01*
X153250847Y-105974631D01*
X153259752Y-105985893D01*
X153369372Y-106095513D01*
X153380634Y-106104418D01*
X153512581Y-106185804D01*
X153525589Y-106191870D01*
X153673184Y-106240778D01*
X153686340Y-106243594D01*
X153775770Y-106252731D01*
X153782047Y-106253051D01*
X153785889Y-106253051D01*
X153798764Y-106249600D01*
X153802215Y-106236725D01*
X153802215Y-105227551D01*
X153818828Y-105165551D01*
X153864215Y-105120164D01*
X153926215Y-105103551D01*
X154178215Y-105103551D01*
X154240215Y-105120164D01*
X154285602Y-105165551D01*
X154302215Y-105227551D01*
X154302215Y-106236724D01*
X154305665Y-106249599D01*
X154318541Y-106253050D01*
X154322380Y-106253050D01*
X154328662Y-106252729D01*
X154418082Y-106243595D01*
X154431251Y-106240776D01*
X154578840Y-106191870D01*
X154591848Y-106185804D01*
X154723799Y-106104415D01*
X154735046Y-106095523D01*
X154739170Y-106091399D01*
X154794759Y-106059299D01*
X154858950Y-106059295D01*
X154914542Y-106091389D01*
X154924171Y-106101019D01*
X155068518Y-106190054D01*
X155229507Y-106243400D01*
X155328870Y-106253551D01*
X155875559Y-106253550D01*
X155974923Y-106243400D01*
X156135912Y-106190054D01*
X156280259Y-106101019D01*
X156400183Y-105981095D01*
X156411680Y-105962454D01*
X156456788Y-105919273D01*
X156517219Y-105903551D01*
X156622216Y-105903551D01*
X156687925Y-105922393D01*
X156733666Y-105973191D01*
X156744925Y-106037039D01*
X156745219Y-106037039D01*
X156745219Y-106038707D01*
X156745537Y-106040510D01*
X156744540Y-106050000D01*
X156745219Y-106056460D01*
X156763646Y-106231795D01*
X156763647Y-106231803D01*
X156764326Y-106238256D01*
X156766331Y-106244428D01*
X156766333Y-106244435D01*
X156818308Y-106404396D01*
X156822821Y-106418284D01*
X156826068Y-106423908D01*
X156826069Y-106423910D01*
X156847348Y-106460767D01*
X156917467Y-106582216D01*
X156921811Y-106587041D01*
X156921813Y-106587043D01*
X156982919Y-106654908D01*
X157044129Y-106722888D01*
X157197270Y-106834151D01*
X157370197Y-106911144D01*
X157555354Y-106950500D01*
X157614547Y-106950500D01*
X157662000Y-106959939D01*
X157702228Y-106986819D01*
X158026708Y-107311299D01*
X158034160Y-107319488D01*
X158038215Y-107325878D01*
X158087224Y-107371901D01*
X158090020Y-107374611D01*
X158109530Y-107394121D01*
X158112710Y-107396588D01*
X158121572Y-107404156D01*
X158128791Y-107410936D01*
X158147733Y-107428724D01*
X158147735Y-107428725D01*
X158153419Y-107434063D01*
X158160252Y-107437819D01*
X158160253Y-107437820D01*
X158170974Y-107443714D01*
X158187235Y-107454395D01*
X158203065Y-107466674D01*
X158243155Y-107484022D01*
X158253632Y-107489155D01*
X158291909Y-107510198D01*
X158308958Y-107514575D01*
X158311306Y-107515178D01*
X158329720Y-107521482D01*
X158348105Y-107529439D01*
X158391266Y-107536274D01*
X158402665Y-107538635D01*
X158444982Y-107549501D01*
X158465018Y-107549501D01*
X158484403Y-107551026D01*
X158504197Y-107554161D01*
X158542277Y-107550561D01*
X158547677Y-107550051D01*
X158559346Y-107549501D01*
X160767652Y-107549501D01*
X160822496Y-107562289D01*
X160866029Y-107598016D01*
X160889270Y-107649312D01*
X160887426Y-107705597D01*
X160886337Y-107709660D01*
X160886335Y-107709666D01*
X160884937Y-107714887D01*
X160884466Y-107720268D01*
X160884465Y-107720275D01*
X160868882Y-107898389D01*
X160864341Y-107950295D01*
X160864813Y-107955690D01*
X160877811Y-108104262D01*
X160884937Y-108185703D01*
X160886336Y-108190925D01*
X160886337Y-108190929D01*
X160929706Y-108352788D01*
X160930435Y-108414116D01*
X160901685Y-108468291D01*
X160850487Y-108502061D01*
X160789368Y-108507164D01*
X160659647Y-108485349D01*
X160642092Y-108484932D01*
X160516943Y-108499896D01*
X160499984Y-108504440D01*
X160384121Y-108554055D01*
X160369130Y-108563192D01*
X160271078Y-108644150D01*
X160260523Y-108655354D01*
X160231744Y-108694767D01*
X160228113Y-108700344D01*
X159543655Y-109885860D01*
X159540667Y-109897012D01*
X159551818Y-109900000D01*
X162593286Y-109900000D01*
X162605418Y-109897107D01*
X162610280Y-109885627D01*
X162614650Y-109859646D01*
X162615067Y-109842092D01*
X162600103Y-109716943D01*
X162595559Y-109699984D01*
X162545944Y-109584121D01*
X162536805Y-109569126D01*
X162453053Y-109467691D01*
X162426913Y-109412209D01*
X162430560Y-109350985D01*
X162463103Y-109298999D01*
X162516577Y-109268967D01*
X162683663Y-109224198D01*
X162897830Y-109124330D01*
X163091401Y-108988790D01*
X163258495Y-108821696D01*
X163394035Y-108628125D01*
X163493903Y-108413958D01*
X163555063Y-108185703D01*
X163575659Y-107950295D01*
X163555063Y-107714887D01*
X163493903Y-107486632D01*
X163398167Y-107281328D01*
X163386668Y-107223517D01*
X163403163Y-107166925D01*
X163443925Y-107124344D01*
X163499740Y-107105397D01*
X163725408Y-107085654D01*
X163953663Y-107024494D01*
X164167830Y-106924626D01*
X164361401Y-106789086D01*
X164528495Y-106621992D01*
X164664035Y-106428421D01*
X164763903Y-106214254D01*
X164825063Y-105985999D01*
X164845659Y-105750591D01*
X164825063Y-105515183D01*
X164763903Y-105286928D01*
X164664035Y-105072762D01*
X164528495Y-104879190D01*
X164361401Y-104712096D01*
X164356970Y-104708993D01*
X164356966Y-104708990D01*
X164172259Y-104579657D01*
X164172257Y-104579655D01*
X164167830Y-104576556D01*
X164162933Y-104574272D01*
X164162927Y-104574269D01*
X163958572Y-104478977D01*
X163958570Y-104478976D01*
X163953663Y-104476688D01*
X163948438Y-104475288D01*
X163948430Y-104475285D01*
X163730634Y-104416928D01*
X163730630Y-104416927D01*
X163725408Y-104415528D01*
X163720020Y-104415056D01*
X163720017Y-104415056D01*
X163495395Y-104395404D01*
X163490000Y-104394932D01*
X163484605Y-104395404D01*
X163259982Y-104415056D01*
X163259977Y-104415056D01*
X163254592Y-104415528D01*
X163249371Y-104416926D01*
X163249365Y-104416928D01*
X163031569Y-104475285D01*
X163031557Y-104475289D01*
X163026337Y-104476688D01*
X163021432Y-104478974D01*
X163021427Y-104478977D01*
X162817081Y-104574266D01*
X162817077Y-104574268D01*
X162812171Y-104576556D01*
X162807738Y-104579659D01*
X162807731Y-104579664D01*
X162623034Y-104708990D01*
X162623029Y-104708993D01*
X162618599Y-104712096D01*
X162614775Y-104715919D01*
X162614769Y-104715925D01*
X162455334Y-104875360D01*
X162455328Y-104875366D01*
X162451505Y-104879190D01*
X162448402Y-104883620D01*
X162448399Y-104883625D01*
X162319073Y-105068322D01*
X162319068Y-105068329D01*
X162315965Y-105072762D01*
X162313677Y-105077668D01*
X162313675Y-105077672D01*
X162218386Y-105282018D01*
X162218383Y-105282023D01*
X162216097Y-105286928D01*
X162214698Y-105292148D01*
X162214694Y-105292160D01*
X162156337Y-105509956D01*
X162156335Y-105509962D01*
X162154937Y-105515183D01*
X162154465Y-105520568D01*
X162154465Y-105520573D01*
X162135634Y-105735808D01*
X162115706Y-105793139D01*
X162070956Y-105834145D01*
X162012106Y-105849000D01*
X159734362Y-105849000D01*
X159686906Y-105839560D01*
X159646675Y-105812676D01*
X159638955Y-105804955D01*
X159614720Y-105770659D01*
X159603321Y-105730240D01*
X159600658Y-105704907D01*
X159585674Y-105562335D01*
X159585402Y-105561499D01*
X159587346Y-105504206D01*
X159617077Y-105452361D01*
X159667606Y-105420445D01*
X159753840Y-105391870D01*
X159766848Y-105385804D01*
X159898799Y-105304415D01*
X159910046Y-105295523D01*
X159914170Y-105291399D01*
X159969759Y-105259299D01*
X160033950Y-105259295D01*
X160089542Y-105291389D01*
X160099171Y-105301019D01*
X160243518Y-105390054D01*
X160404507Y-105443400D01*
X160503870Y-105453551D01*
X161050559Y-105453550D01*
X161149923Y-105443400D01*
X161310912Y-105390054D01*
X161455259Y-105301019D01*
X161575183Y-105181095D01*
X161664218Y-105036748D01*
X161717564Y-104875759D01*
X161727715Y-104776396D01*
X161727714Y-104179707D01*
X161717564Y-104080343D01*
X161676929Y-103957716D01*
X161671883Y-103901170D01*
X161692567Y-103848300D01*
X161734646Y-103810190D01*
X161789300Y-103794828D01*
X161845071Y-103805433D01*
X161970197Y-103861144D01*
X162155354Y-103900500D01*
X162338143Y-103900500D01*
X162344646Y-103900500D01*
X162529803Y-103861144D01*
X162702730Y-103784151D01*
X162855871Y-103672888D01*
X162982533Y-103532216D01*
X163077179Y-103368284D01*
X163135674Y-103188256D01*
X163155460Y-103000000D01*
X163144123Y-102892135D01*
X163136353Y-102818204D01*
X163136352Y-102818203D01*
X163135674Y-102811744D01*
X163077179Y-102631716D01*
X162982533Y-102467784D01*
X162942695Y-102423540D01*
X162860220Y-102331942D01*
X162860219Y-102331941D01*
X162855871Y-102327112D01*
X162850613Y-102323292D01*
X162850611Y-102323290D01*
X162707988Y-102219669D01*
X162707987Y-102219668D01*
X162702730Y-102215849D01*
X162696792Y-102213205D01*
X162535745Y-102141501D01*
X162535740Y-102141499D01*
X162529803Y-102138856D01*
X162523444Y-102137504D01*
X162523440Y-102137503D01*
X162351008Y-102100852D01*
X162351005Y-102100851D01*
X162344646Y-102099500D01*
X162155354Y-102099500D01*
X162148998Y-102100850D01*
X162148997Y-102100851D01*
X162146283Y-102101428D01*
X162102492Y-102110735D01*
X162047766Y-102110019D01*
X161998678Y-102085811D01*
X161964793Y-102042828D01*
X161952714Y-101989445D01*
X161952714Y-101833490D01*
X161952714Y-101830179D01*
X161946306Y-101770568D01*
X161896011Y-101635720D01*
X161833297Y-101551945D01*
X161811398Y-101503992D01*
X161811398Y-101451276D01*
X161833297Y-101403323D01*
X161890252Y-101327240D01*
X161898667Y-101311828D01*
X161943103Y-101192692D01*
X161946641Y-101177718D01*
X161951861Y-101129165D01*
X161952215Y-101122569D01*
X161952215Y-100644377D01*
X161948764Y-100631501D01*
X161935889Y-100628051D01*
X160726215Y-100628051D01*
X160664215Y-100611438D01*
X160618828Y-100566051D01*
X160602215Y-100504051D01*
X160602215Y-100281657D01*
X165472595Y-100281657D01*
X165491477Y-100605863D01*
X165492316Y-100613042D01*
X165548709Y-100932862D01*
X165550371Y-100939875D01*
X165643520Y-101251014D01*
X165645976Y-101257763D01*
X165774617Y-101555985D01*
X165777850Y-101562421D01*
X165940231Y-101843674D01*
X165944197Y-101849705D01*
X166131599Y-102101428D01*
X166139831Y-102108595D01*
X166149013Y-102102698D01*
X167962119Y-100289593D01*
X167968783Y-100278051D01*
X167962119Y-100266508D01*
X166149013Y-98453402D01*
X166139831Y-98447506D01*
X166131598Y-98454673D01*
X165944197Y-98706395D01*
X165940231Y-98712427D01*
X165777850Y-98993680D01*
X165774617Y-99000116D01*
X165645976Y-99298338D01*
X165643520Y-99305087D01*
X165550371Y-99616226D01*
X165548709Y-99623239D01*
X165492316Y-99943059D01*
X165491477Y-99950238D01*
X165472595Y-100274445D01*
X165472595Y-100281657D01*
X160602215Y-100281657D01*
X160602215Y-99509377D01*
X160598426Y-99495237D01*
X160588534Y-99485345D01*
X160561654Y-99445117D01*
X160552215Y-99397664D01*
X160552215Y-99121725D01*
X161052215Y-99121725D01*
X161056003Y-99135864D01*
X161065896Y-99145757D01*
X161092776Y-99185985D01*
X161102215Y-99233438D01*
X161102215Y-100111725D01*
X161105665Y-100124600D01*
X161118541Y-100128051D01*
X161935889Y-100128051D01*
X161948764Y-100124600D01*
X161952215Y-100111725D01*
X161952215Y-99633533D01*
X161951861Y-99626936D01*
X161946641Y-99578383D01*
X161943103Y-99563409D01*
X161898667Y-99444273D01*
X161890252Y-99428861D01*
X161814716Y-99327958D01*
X161802307Y-99315549D01*
X161697613Y-99237175D01*
X161659449Y-99190113D01*
X161648140Y-99130588D01*
X161666386Y-99072810D01*
X161684970Y-99042680D01*
X161691034Y-99029676D01*
X161739942Y-98882081D01*
X161742758Y-98868925D01*
X161751895Y-98779495D01*
X161752215Y-98773219D01*
X161752215Y-98744377D01*
X161748764Y-98731501D01*
X161735889Y-98728051D01*
X161068541Y-98728051D01*
X161055665Y-98731501D01*
X161052215Y-98744377D01*
X161052215Y-99121725D01*
X160552215Y-99121725D01*
X160552215Y-98211725D01*
X161052215Y-98211725D01*
X161055665Y-98224600D01*
X161068541Y-98228051D01*
X161735888Y-98228051D01*
X161748763Y-98224600D01*
X161752214Y-98211725D01*
X161752214Y-98182886D01*
X161751893Y-98176603D01*
X161742759Y-98087183D01*
X161739940Y-98074014D01*
X161691034Y-97926425D01*
X161684968Y-97913417D01*
X161603582Y-97781470D01*
X161594677Y-97770208D01*
X161485057Y-97660588D01*
X161473795Y-97651683D01*
X161341848Y-97570297D01*
X161328840Y-97564231D01*
X161181245Y-97515323D01*
X161168089Y-97512507D01*
X161078659Y-97503370D01*
X161072383Y-97503051D01*
X161068541Y-97503051D01*
X161055665Y-97506501D01*
X161052215Y-97519377D01*
X161052215Y-98211725D01*
X160552215Y-98211725D01*
X160552215Y-97519378D01*
X160548764Y-97506502D01*
X160535889Y-97503052D01*
X160532050Y-97503052D01*
X160525767Y-97503372D01*
X160436347Y-97512506D01*
X160423178Y-97515325D01*
X160275589Y-97564231D01*
X160262581Y-97570297D01*
X160130631Y-97651685D01*
X160119372Y-97660587D01*
X160115239Y-97664720D01*
X160059652Y-97696806D01*
X159995469Y-97696803D01*
X159939886Y-97664710D01*
X159935369Y-97660193D01*
X159930259Y-97655083D01*
X159924109Y-97651289D01*
X159924107Y-97651288D01*
X159792060Y-97569840D01*
X159792058Y-97569839D01*
X159785912Y-97566048D01*
X159779057Y-97563776D01*
X159779056Y-97563776D01*
X159631351Y-97514832D01*
X159631350Y-97514831D01*
X159624923Y-97512702D01*
X159618190Y-97512014D01*
X159618185Y-97512013D01*
X159528691Y-97502870D01*
X159528674Y-97502869D01*
X159525560Y-97502551D01*
X159522411Y-97502551D01*
X158982020Y-97502551D01*
X158982000Y-97502551D01*
X158978871Y-97502552D01*
X158975739Y-97502871D01*
X158975737Y-97502872D01*
X158886242Y-97512013D01*
X158886232Y-97512014D01*
X158879507Y-97512702D01*
X158873085Y-97514829D01*
X158873080Y-97514831D01*
X158725373Y-97563776D01*
X158725369Y-97563777D01*
X158718518Y-97566048D01*
X158712374Y-97569837D01*
X158712369Y-97569840D01*
X158580322Y-97651288D01*
X158580316Y-97651292D01*
X158574171Y-97655083D01*
X158569064Y-97660189D01*
X158569060Y-97660193D01*
X158459357Y-97769896D01*
X158459353Y-97769900D01*
X158454247Y-97775007D01*
X158450456Y-97781152D01*
X158450452Y-97781158D01*
X158369004Y-97913205D01*
X158369001Y-97913210D01*
X158365212Y-97919354D01*
X158362941Y-97926205D01*
X158362940Y-97926209D01*
X158322459Y-98048374D01*
X158311866Y-98080343D01*
X158311178Y-98087073D01*
X158311177Y-98087080D01*
X158302034Y-98176574D01*
X158302033Y-98176592D01*
X158301715Y-98179706D01*
X158301715Y-98182853D01*
X158301715Y-98182854D01*
X158301715Y-98773245D01*
X158301715Y-98773264D01*
X158301716Y-98776395D01*
X158302035Y-98779527D01*
X158302036Y-98779528D01*
X158311177Y-98869023D01*
X158311178Y-98869031D01*
X158311866Y-98875759D01*
X158313994Y-98882182D01*
X158313995Y-98882185D01*
X158362940Y-99029892D01*
X158365212Y-99036748D01*
X158369001Y-99042891D01*
X158369004Y-99042897D01*
X158374637Y-99052029D01*
X158392333Y-99103378D01*
X158386386Y-99157363D01*
X158357938Y-99203629D01*
X158324997Y-99225112D01*
X158325977Y-99226906D01*
X158318193Y-99231155D01*
X158309884Y-99234255D01*
X158302787Y-99239567D01*
X158302783Y-99239570D01*
X158201765Y-99315192D01*
X158201761Y-99315195D01*
X158194669Y-99320505D01*
X158189359Y-99327597D01*
X158189356Y-99327601D01*
X158113734Y-99428619D01*
X158113731Y-99428623D01*
X158108419Y-99435720D01*
X158105321Y-99444024D01*
X158105318Y-99444031D01*
X158094874Y-99472034D01*
X158053591Y-99527522D01*
X157989009Y-99552268D01*
X157921217Y-99538573D01*
X157871306Y-99490697D01*
X157852047Y-99457340D01*
X157799839Y-99366912D01*
X157753591Y-99315549D01*
X157677526Y-99231070D01*
X157677525Y-99231069D01*
X157673177Y-99226240D01*
X157667919Y-99222420D01*
X157667917Y-99222418D01*
X157525294Y-99118797D01*
X157525293Y-99118796D01*
X157520036Y-99114977D01*
X157511858Y-99111336D01*
X157389478Y-99056848D01*
X157347844Y-99026630D01*
X157322057Y-98982115D01*
X157316556Y-98930966D01*
X157324680Y-98851444D01*
X157325000Y-98845168D01*
X157325000Y-98841326D01*
X157321549Y-98828450D01*
X157308674Y-98825000D01*
X156224000Y-98825000D01*
X156162000Y-98808387D01*
X156116613Y-98763000D01*
X156100000Y-98701000D01*
X156100000Y-98449000D01*
X156116613Y-98387000D01*
X156162000Y-98341613D01*
X156224000Y-98325000D01*
X157308673Y-98325000D01*
X157321548Y-98321549D01*
X157324999Y-98308674D01*
X157324999Y-98304835D01*
X157324678Y-98298552D01*
X157315544Y-98209132D01*
X157312725Y-98195963D01*
X157263819Y-98048374D01*
X157257753Y-98035366D01*
X157176367Y-97903419D01*
X157167462Y-97892157D01*
X157163339Y-97888034D01*
X157131244Y-97832442D01*
X157131247Y-97768251D01*
X157163346Y-97712665D01*
X157172968Y-97703044D01*
X157262003Y-97558697D01*
X157315349Y-97397708D01*
X157325500Y-97298345D01*
X157325499Y-96751656D01*
X157315349Y-96652292D01*
X157262003Y-96491303D01*
X157180152Y-96358603D01*
X157162573Y-96308263D01*
X157167760Y-96255197D01*
X157212889Y-96116307D01*
X157232675Y-95928051D01*
X157215739Y-95766907D01*
X157652877Y-95766907D01*
X157658030Y-95823621D01*
X157660576Y-95836420D01*
X157706963Y-95985283D01*
X157713079Y-95998871D01*
X157793260Y-96131507D01*
X157802443Y-96143228D01*
X157912037Y-96252822D01*
X157923758Y-96262005D01*
X158056394Y-96342186D01*
X158069982Y-96348302D01*
X158218842Y-96394689D01*
X158231646Y-96397235D01*
X158292830Y-96402795D01*
X158298459Y-96403051D01*
X158360889Y-96403051D01*
X158373764Y-96399600D01*
X158377215Y-96386725D01*
X158377215Y-96386724D01*
X158877215Y-96386724D01*
X158880665Y-96399599D01*
X158893541Y-96403050D01*
X158955968Y-96403050D01*
X158961601Y-96402794D01*
X159022785Y-96397235D01*
X159035584Y-96394689D01*
X159184447Y-96348302D01*
X159198035Y-96342186D01*
X159330671Y-96262005D01*
X159342392Y-96252822D01*
X159451986Y-96143228D01*
X159461169Y-96131507D01*
X159541350Y-95998871D01*
X159547466Y-95985283D01*
X159593853Y-95836423D01*
X159596399Y-95823619D01*
X159601553Y-95766907D01*
X159598764Y-95756501D01*
X159585889Y-95753051D01*
X158893541Y-95753051D01*
X158880665Y-95756501D01*
X158877215Y-95769377D01*
X158877215Y-96386724D01*
X158377215Y-96386724D01*
X158377215Y-95769377D01*
X158373764Y-95756501D01*
X158360889Y-95753051D01*
X157668542Y-95753051D01*
X157655666Y-95756501D01*
X157652877Y-95766907D01*
X157215739Y-95766907D01*
X157212889Y-95739795D01*
X157154394Y-95559767D01*
X157059748Y-95395835D01*
X156984564Y-95312335D01*
X156960951Y-95273802D01*
X156952715Y-95229364D01*
X156952715Y-94980450D01*
X156965646Y-94925317D01*
X157001742Y-94881682D01*
X157053475Y-94858647D01*
X157110055Y-94861016D01*
X157157797Y-94887259D01*
X157158997Y-94888592D01*
X157312138Y-94999855D01*
X157485065Y-95076848D01*
X157556283Y-95091985D01*
X157556496Y-95092031D01*
X157609973Y-95117956D01*
X157645244Y-95165787D01*
X157654208Y-95224537D01*
X157652876Y-95239194D01*
X157655665Y-95249600D01*
X157668541Y-95253051D01*
X159585888Y-95253051D01*
X159598763Y-95249600D01*
X159601552Y-95239194D01*
X159596399Y-95182480D01*
X159593853Y-95169681D01*
X159547466Y-95020818D01*
X159541350Y-95007230D01*
X159461169Y-94874594D01*
X159451986Y-94862873D01*
X159355199Y-94766086D01*
X159323105Y-94710499D01*
X159323105Y-94646311D01*
X159355199Y-94590724D01*
X159431053Y-94514870D01*
X159471281Y-94487990D01*
X159518734Y-94478551D01*
X160892599Y-94478551D01*
X160940052Y-94487990D01*
X160980279Y-94514869D01*
X161967388Y-95501979D01*
X162929613Y-96464204D01*
X162937065Y-96472393D01*
X162941120Y-96478783D01*
X162990129Y-96524806D01*
X162992926Y-96527517D01*
X163012435Y-96547026D01*
X163015615Y-96549493D01*
X163024477Y-96557061D01*
X163037711Y-96569489D01*
X163050638Y-96581629D01*
X163050640Y-96581630D01*
X163056324Y-96586968D01*
X163063157Y-96590724D01*
X163063158Y-96590725D01*
X163073879Y-96596619D01*
X163090140Y-96607300D01*
X163105970Y-96619579D01*
X163146060Y-96636927D01*
X163156537Y-96642060D01*
X163194814Y-96663103D01*
X163211863Y-96667480D01*
X163214211Y-96668083D01*
X163232625Y-96674387D01*
X163251010Y-96682344D01*
X163294171Y-96689179D01*
X163305570Y-96691540D01*
X163347887Y-96702406D01*
X163367923Y-96702406D01*
X163387308Y-96703931D01*
X163407102Y-96707066D01*
X163445182Y-96703466D01*
X163450582Y-96702956D01*
X163462251Y-96702406D01*
X163725043Y-96702406D01*
X163764902Y-96708987D01*
X163800530Y-96728031D01*
X163853704Y-96768834D01*
X163853712Y-96768838D01*
X163860157Y-96773784D01*
X163982110Y-96824298D01*
X164112981Y-96841528D01*
X164243852Y-96824298D01*
X164365805Y-96773784D01*
X165664843Y-96023784D01*
X165769565Y-95943427D01*
X165849922Y-95838705D01*
X165900436Y-95716752D01*
X165917666Y-95585881D01*
X165900437Y-95455010D01*
X165849922Y-95333058D01*
X165837958Y-95312336D01*
X165592472Y-94887141D01*
X165349922Y-94467032D01*
X165275276Y-94368112D01*
X165274216Y-94367257D01*
X165250766Y-94331385D01*
X165233104Y-94288256D01*
X165199922Y-94207226D01*
X165182429Y-94176928D01*
X164626948Y-93214805D01*
X164626947Y-93214804D01*
X164624922Y-93211296D01*
X164544566Y-93106573D01*
X164536000Y-93100000D01*
X164446290Y-93031162D01*
X164446284Y-93031159D01*
X164439843Y-93026216D01*
X164375139Y-92999415D01*
X164325404Y-92978814D01*
X164325401Y-92978813D01*
X164317890Y-92975702D01*
X164309830Y-92974640D01*
X164309827Y-92974640D01*
X164195078Y-92959533D01*
X164187019Y-92958472D01*
X164178960Y-92959533D01*
X164064210Y-92974640D01*
X164064205Y-92974641D01*
X164056148Y-92975702D01*
X164048638Y-92978812D01*
X164048633Y-92978814D01*
X163937955Y-93024658D01*
X163937947Y-93024661D01*
X163934195Y-93026216D01*
X163930677Y-93028246D01*
X163930671Y-93028250D01*
X163885928Y-93054082D01*
X163829553Y-93070566D01*
X163771917Y-93059258D01*
X163725950Y-93022694D01*
X163724093Y-93020300D01*
X163720119Y-93013580D01*
X163705954Y-92999415D01*
X163693319Y-92984622D01*
X163681543Y-92968413D01*
X163675532Y-92963440D01*
X163675530Y-92963438D01*
X163647890Y-92940573D01*
X163639249Y-92932710D01*
X163461819Y-92755279D01*
X163434939Y-92715051D01*
X163425500Y-92667598D01*
X163425500Y-91827775D01*
X163426021Y-91816719D01*
X163427673Y-91809333D01*
X163425561Y-91742127D01*
X163425500Y-91738232D01*
X163425500Y-91714541D01*
X163425500Y-91710650D01*
X163424998Y-91706677D01*
X163424080Y-91695018D01*
X163422954Y-91659173D01*
X163422709Y-91651373D01*
X163417120Y-91632140D01*
X163413174Y-91613083D01*
X163411641Y-91600944D01*
X163410664Y-91593208D01*
X163394582Y-91552591D01*
X163390803Y-91541551D01*
X163380795Y-91507102D01*
X163380793Y-91507099D01*
X163378618Y-91499610D01*
X163368417Y-91482360D01*
X163359863Y-91464901D01*
X163352486Y-91446268D01*
X163326808Y-91410925D01*
X163320401Y-91401171D01*
X163302142Y-91370296D01*
X163302141Y-91370294D01*
X163298170Y-91363580D01*
X163284005Y-91349415D01*
X163271370Y-91334622D01*
X163259594Y-91318413D01*
X163253583Y-91313440D01*
X163253581Y-91313438D01*
X163225941Y-91290573D01*
X163217300Y-91282710D01*
X162300337Y-90365746D01*
X162292893Y-90357565D01*
X162288837Y-90351174D01*
X162239826Y-90305149D01*
X162237029Y-90302438D01*
X162220278Y-90285687D01*
X162217522Y-90282931D01*
X162214341Y-90280463D01*
X162205465Y-90272881D01*
X162179320Y-90248329D01*
X162179318Y-90248327D01*
X162173633Y-90242989D01*
X162166800Y-90239233D01*
X162166794Y-90239228D01*
X162156076Y-90233336D01*
X162139817Y-90222657D01*
X162130146Y-90215155D01*
X162130143Y-90215153D01*
X162123987Y-90210378D01*
X162116830Y-90207280D01*
X162116827Y-90207279D01*
X162083900Y-90193029D01*
X162073414Y-90187892D01*
X162041983Y-90170613D01*
X162041974Y-90170609D01*
X162035143Y-90166854D01*
X162027586Y-90164913D01*
X162027582Y-90164912D01*
X162015739Y-90161871D01*
X161997335Y-90155570D01*
X161986108Y-90150711D01*
X161986101Y-90150709D01*
X161978947Y-90147613D01*
X161971243Y-90146392D01*
X161971241Y-90146392D01*
X161935810Y-90140780D01*
X161924375Y-90138412D01*
X161889622Y-90129489D01*
X161889614Y-90129488D01*
X161882070Y-90127551D01*
X161874274Y-90127551D01*
X161862034Y-90127551D01*
X161842648Y-90126025D01*
X161822855Y-90122891D01*
X161815089Y-90123625D01*
X161815086Y-90123625D01*
X161779375Y-90127001D01*
X161767706Y-90127551D01*
X161250694Y-90127551D01*
X161196662Y-90115160D01*
X161153666Y-90080654D01*
X161150183Y-90075007D01*
X161030259Y-89955083D01*
X161024109Y-89951289D01*
X161024107Y-89951288D01*
X160892060Y-89869840D01*
X160892058Y-89869839D01*
X160885912Y-89866048D01*
X160879057Y-89863776D01*
X160879056Y-89863776D01*
X160731351Y-89814832D01*
X160731350Y-89814831D01*
X160724923Y-89812702D01*
X160718190Y-89812014D01*
X160718185Y-89812013D01*
X160628691Y-89802870D01*
X160628674Y-89802869D01*
X160625560Y-89802551D01*
X160622411Y-89802551D01*
X160032020Y-89802551D01*
X160032000Y-89802551D01*
X160028871Y-89802552D01*
X160025739Y-89802871D01*
X160025737Y-89802872D01*
X159936242Y-89812013D01*
X159936232Y-89812014D01*
X159929507Y-89812702D01*
X159923085Y-89814829D01*
X159923080Y-89814831D01*
X159775373Y-89863776D01*
X159775369Y-89863777D01*
X159768518Y-89866048D01*
X159762374Y-89869837D01*
X159762369Y-89869840D01*
X159630319Y-89951290D01*
X159630314Y-89951293D01*
X159624171Y-89955083D01*
X159619066Y-89960187D01*
X159619057Y-89960195D01*
X159618105Y-89961147D01*
X159617171Y-89961685D01*
X159613396Y-89964671D01*
X159612958Y-89964117D01*
X159562518Y-89993236D01*
X159498334Y-89993233D01*
X159442750Y-89961140D01*
X159347098Y-89865488D01*
X159341580Y-89859970D01*
X159334866Y-89855999D01*
X159334863Y-89855997D01*
X159206828Y-89780278D01*
X159206826Y-89780277D01*
X159200113Y-89776307D01*
X159190627Y-89773551D01*
X159048372Y-89732221D01*
X159048365Y-89732219D01*
X159042284Y-89730453D01*
X159035973Y-89729956D01*
X159035966Y-89729955D01*
X159007843Y-89727742D01*
X159007829Y-89727741D01*
X159005409Y-89727551D01*
X157849021Y-89727551D01*
X157846601Y-89727741D01*
X157846586Y-89727742D01*
X157818463Y-89729955D01*
X157818454Y-89729956D01*
X157812146Y-89730453D01*
X157806066Y-89732219D01*
X157806057Y-89732221D01*
X157661809Y-89774130D01*
X157661806Y-89774131D01*
X157654317Y-89776307D01*
X157647606Y-89780275D01*
X157647601Y-89780278D01*
X157519566Y-89855997D01*
X157519559Y-89856001D01*
X157512850Y-89859970D01*
X157507335Y-89865484D01*
X157507331Y-89865488D01*
X157402152Y-89970667D01*
X157402148Y-89970671D01*
X157396634Y-89976186D01*
X157392662Y-89982901D01*
X157387881Y-89989066D01*
X157385538Y-89987249D01*
X157351137Y-90021100D01*
X157289715Y-90037381D01*
X157228293Y-90021100D01*
X157193891Y-89987249D01*
X157191549Y-89989066D01*
X157186768Y-89982903D01*
X157182796Y-89976186D01*
X157066580Y-89859970D01*
X156992312Y-89816048D01*
X156933604Y-89781328D01*
X156888901Y-89735833D01*
X156872726Y-89674136D01*
X156886791Y-89622063D01*
X156885094Y-89621308D01*
X156887738Y-89615367D01*
X156890987Y-89609741D01*
X156949482Y-89429713D01*
X156969268Y-89241457D01*
X156949482Y-89053201D01*
X156890987Y-88873173D01*
X156796341Y-88709241D01*
X156764251Y-88673602D01*
X156674028Y-88573399D01*
X156674027Y-88573398D01*
X156669679Y-88568569D01*
X156664421Y-88564749D01*
X156664419Y-88564747D01*
X156521796Y-88461126D01*
X156521795Y-88461125D01*
X156516538Y-88457306D01*
X156510600Y-88454662D01*
X156349553Y-88382958D01*
X156349548Y-88382956D01*
X156343611Y-88380313D01*
X156337252Y-88378961D01*
X156337248Y-88378960D01*
X156164816Y-88342309D01*
X156164813Y-88342308D01*
X156158454Y-88340957D01*
X155969162Y-88340957D01*
X155962803Y-88342308D01*
X155962799Y-88342309D01*
X155790367Y-88378960D01*
X155790360Y-88378962D01*
X155784005Y-88380313D01*
X155778070Y-88382955D01*
X155778062Y-88382958D01*
X155617015Y-88454662D01*
X155617010Y-88454664D01*
X155611078Y-88457306D01*
X155605824Y-88461122D01*
X155605819Y-88461126D01*
X155463196Y-88564747D01*
X155463189Y-88564752D01*
X155457937Y-88568569D01*
X155453592Y-88573394D01*
X155453587Y-88573399D01*
X155420586Y-88610051D01*
X155364762Y-88672051D01*
X155363365Y-88673602D01*
X155314438Y-88706853D01*
X155255674Y-88713652D01*
X155200447Y-88692453D01*
X155161326Y-88648079D01*
X155147215Y-88590630D01*
X155147215Y-88399377D01*
X155143764Y-88386501D01*
X155130889Y-88383051D01*
X154021215Y-88383051D01*
X153959215Y-88366438D01*
X153913828Y-88321051D01*
X153897215Y-88259051D01*
X153897215Y-87866725D01*
X154397215Y-87866725D01*
X154400665Y-87879600D01*
X154413541Y-87883051D01*
X155130889Y-87883051D01*
X155143764Y-87879600D01*
X155147215Y-87866725D01*
X155147215Y-87535481D01*
X155146897Y-87529215D01*
X155132431Y-87386966D01*
X155129913Y-87374715D01*
X155072795Y-87192665D01*
X155067859Y-87181161D01*
X154975260Y-87014330D01*
X154968117Y-87004068D01*
X154843835Y-86859296D01*
X154834756Y-86850665D01*
X154683885Y-86733883D01*
X154673257Y-86727258D01*
X154501958Y-86643233D01*
X154490217Y-86638885D01*
X154410961Y-86618364D01*
X154399750Y-86618079D01*
X154397215Y-86629005D01*
X154397215Y-87866725D01*
X153897215Y-87866725D01*
X153897215Y-86623089D01*
X153894877Y-86612405D01*
X153889712Y-86612077D01*
X153889374Y-86612165D01*
X153710454Y-86678429D01*
X153699208Y-86683945D01*
X153537288Y-86784870D01*
X153527394Y-86792529D01*
X153389100Y-86923987D01*
X153380952Y-86933478D01*
X153271949Y-87090087D01*
X153265879Y-87101024D01*
X153255291Y-87125696D01*
X153222209Y-87170796D01*
X153172674Y-87196770D01*
X153116764Y-87198334D01*
X153065854Y-87175169D01*
X153013900Y-87135302D01*
X153013890Y-87135296D01*
X153007448Y-87130353D01*
X152999939Y-87127242D01*
X152999938Y-87127242D01*
X152874960Y-87075474D01*
X152874957Y-87075473D01*
X152867451Y-87072364D01*
X152859397Y-87071303D01*
X152859391Y-87071302D01*
X152758958Y-87058080D01*
X152758948Y-87058079D01*
X152754935Y-87057551D01*
X152755022Y-87056886D01*
X152700085Y-87038901D01*
X152658000Y-86993963D01*
X152642715Y-86934323D01*
X152642715Y-86694990D01*
X152643236Y-86683934D01*
X152644888Y-86676548D01*
X152642776Y-86609328D01*
X152642715Y-86605434D01*
X152642715Y-86581757D01*
X152642715Y-86577865D01*
X152642213Y-86573898D01*
X152641296Y-86562241D01*
X152639925Y-86518588D01*
X152634333Y-86499343D01*
X152630389Y-86480298D01*
X152628087Y-86462071D01*
X157252027Y-86462071D01*
X157259714Y-86473397D01*
X157369656Y-86565649D01*
X157375454Y-86569966D01*
X157646780Y-86748420D01*
X157653029Y-86752027D01*
X157943237Y-86897776D01*
X157949876Y-86900639D01*
X158255053Y-87011715D01*
X158261943Y-87013778D01*
X158577983Y-87088681D01*
X158585049Y-87089927D01*
X158907650Y-87127633D01*
X158914820Y-87128051D01*
X159239610Y-87128051D01*
X159246779Y-87127633D01*
X159569380Y-87089927D01*
X159576446Y-87088681D01*
X159892486Y-87013778D01*
X159899376Y-87011715D01*
X160204553Y-86900639D01*
X160211192Y-86897776D01*
X160501400Y-86752027D01*
X160507649Y-86748420D01*
X160778975Y-86569966D01*
X160784773Y-86565649D01*
X160894714Y-86473397D01*
X160902401Y-86462071D01*
X160895730Y-86450119D01*
X159088757Y-84643146D01*
X159077215Y-84636482D01*
X159065672Y-84643146D01*
X157258697Y-86450120D01*
X157252027Y-86462071D01*
X152628087Y-86462071D01*
X152627879Y-86460423D01*
X152611794Y-86419798D01*
X152608021Y-86408777D01*
X152595833Y-86366825D01*
X152585632Y-86349575D01*
X152577078Y-86332116D01*
X152569701Y-86313483D01*
X152544023Y-86278140D01*
X152537616Y-86268386D01*
X152519357Y-86237511D01*
X152519356Y-86237509D01*
X152515385Y-86230795D01*
X152501220Y-86216629D01*
X152488585Y-86201837D01*
X152476809Y-86185628D01*
X152443147Y-86157780D01*
X152434517Y-86149926D01*
X152197290Y-85912700D01*
X152189841Y-85904515D01*
X152185786Y-85898123D01*
X152180095Y-85892779D01*
X152180092Y-85892775D01*
X152136774Y-85852096D01*
X152133977Y-85849386D01*
X152117227Y-85832636D01*
X152114471Y-85829880D01*
X152111290Y-85827412D01*
X152102414Y-85819830D01*
X152076269Y-85795278D01*
X152076267Y-85795276D01*
X152070582Y-85789938D01*
X152063749Y-85786182D01*
X152063743Y-85786177D01*
X152053025Y-85780285D01*
X152036766Y-85769606D01*
X152027095Y-85762104D01*
X152027092Y-85762102D01*
X152020936Y-85757327D01*
X152013779Y-85754229D01*
X152013776Y-85754228D01*
X151980849Y-85739978D01*
X151970363Y-85734841D01*
X151938932Y-85717562D01*
X151938923Y-85717558D01*
X151932092Y-85713803D01*
X151924535Y-85711862D01*
X151924531Y-85711861D01*
X151912688Y-85708820D01*
X151894284Y-85702519D01*
X151883057Y-85697660D01*
X151883050Y-85697658D01*
X151875896Y-85694562D01*
X151868192Y-85693341D01*
X151868190Y-85693341D01*
X151832759Y-85687729D01*
X151821324Y-85685361D01*
X151786571Y-85676438D01*
X151786563Y-85676437D01*
X151779019Y-85674500D01*
X151771223Y-85674500D01*
X151758983Y-85674500D01*
X151739597Y-85672974D01*
X151719804Y-85669840D01*
X151712038Y-85670574D01*
X151712035Y-85670574D01*
X151676324Y-85673950D01*
X151664655Y-85674500D01*
X149337986Y-85674500D01*
X149326933Y-85673979D01*
X149319547Y-85672328D01*
X149311749Y-85672573D01*
X149252359Y-85674439D01*
X149248465Y-85674500D01*
X149220865Y-85674500D01*
X149217014Y-85674986D01*
X149216983Y-85674988D01*
X149216855Y-85675005D01*
X149205244Y-85675918D01*
X149169386Y-85677045D01*
X149169379Y-85677046D01*
X149161587Y-85677291D01*
X149154103Y-85679465D01*
X149154092Y-85679467D01*
X149142343Y-85682881D01*
X149123298Y-85686825D01*
X149111162Y-85688358D01*
X149111159Y-85688358D01*
X149103423Y-85689336D01*
X149096175Y-85692205D01*
X149096165Y-85692208D01*
X149062807Y-85705415D01*
X149051765Y-85709196D01*
X149017312Y-85719207D01*
X149017307Y-85719208D01*
X149009825Y-85721383D01*
X149003117Y-85725349D01*
X149003112Y-85725352D01*
X148992579Y-85731581D01*
X148975115Y-85740136D01*
X148963739Y-85744640D01*
X148963732Y-85744643D01*
X148956483Y-85747514D01*
X148950177Y-85752094D01*
X148950172Y-85752098D01*
X148921142Y-85773189D01*
X148911384Y-85779598D01*
X148880513Y-85797856D01*
X148873794Y-85801830D01*
X148868278Y-85807344D01*
X148868271Y-85807351D01*
X148859622Y-85816000D01*
X148844839Y-85828626D01*
X148834942Y-85835817D01*
X148834935Y-85835823D01*
X148828628Y-85840406D01*
X148823661Y-85846408D01*
X148823650Y-85846420D01*
X148800785Y-85874059D01*
X148792925Y-85882697D01*
X147484174Y-87191448D01*
X147433780Y-87222028D01*
X147374960Y-87225883D01*
X147321006Y-87202143D01*
X147233895Y-87135299D01*
X147233889Y-87135296D01*
X147227448Y-87130353D01*
X147219939Y-87127242D01*
X147219938Y-87127242D01*
X147094960Y-87075474D01*
X147094957Y-87075473D01*
X147087451Y-87072364D01*
X147079397Y-87071303D01*
X147079391Y-87071302D01*
X146978954Y-87058080D01*
X146978952Y-87058079D01*
X146974935Y-87057551D01*
X146899495Y-87057551D01*
X146895478Y-87058079D01*
X146895475Y-87058080D01*
X146795038Y-87071302D01*
X146795030Y-87071303D01*
X146786979Y-87072364D01*
X146779474Y-87075472D01*
X146779469Y-87075474D01*
X146654491Y-87127242D01*
X146654487Y-87127244D01*
X146646982Y-87130353D01*
X146640536Y-87135298D01*
X146640531Y-87135302D01*
X146587635Y-87175890D01*
X146539796Y-87198392D01*
X146486932Y-87198922D01*
X146438652Y-87177383D01*
X146403731Y-87137691D01*
X146335260Y-87014330D01*
X146328117Y-87004068D01*
X146203835Y-86859296D01*
X146194756Y-86850665D01*
X146043885Y-86733883D01*
X146033257Y-86727258D01*
X145861958Y-86643233D01*
X145850217Y-86638885D01*
X145770961Y-86618364D01*
X145759750Y-86618079D01*
X145757215Y-86629005D01*
X145757215Y-89643013D01*
X145759552Y-89653696D01*
X145764717Y-89654024D01*
X145765051Y-89653937D01*
X145860039Y-89618758D01*
X145920894Y-89612322D01*
X145977416Y-89635772D01*
X146078025Y-89711088D01*
X146093437Y-89719503D01*
X146212573Y-89763939D01*
X146227547Y-89767477D01*
X146276100Y-89772697D01*
X146282697Y-89773051D01*
X146310889Y-89773051D01*
X146323764Y-89769600D01*
X146327215Y-89756725D01*
X146327215Y-88672051D01*
X146343828Y-88610051D01*
X146389215Y-88564664D01*
X146451215Y-88548051D01*
X146502715Y-88548051D01*
X146564715Y-88564664D01*
X146610102Y-88610051D01*
X146626715Y-88672051D01*
X146626715Y-89317611D01*
X146626715Y-89317629D01*
X146626716Y-89320923D01*
X146627068Y-89324201D01*
X146627069Y-89324212D01*
X146627215Y-89325565D01*
X146632294Y-89372819D01*
X146632295Y-89372824D01*
X146633124Y-89380534D01*
X146635834Y-89387800D01*
X146635835Y-89387804D01*
X146653771Y-89435892D01*
X146683419Y-89515382D01*
X146688733Y-89522481D01*
X146688734Y-89522482D01*
X146749430Y-89603562D01*
X146769669Y-89630597D01*
X146776765Y-89635909D01*
X146884884Y-89716847D01*
X146884170Y-89717800D01*
X146912940Y-89742136D01*
X146923629Y-89763490D01*
X146929401Y-89769262D01*
X146943541Y-89773051D01*
X146971721Y-89773051D01*
X146978347Y-89772695D01*
X147009164Y-89769382D01*
X147077253Y-89781453D01*
X147128289Y-89828112D01*
X147146402Y-89894848D01*
X147125958Y-89960907D01*
X147073314Y-90005746D01*
X147069764Y-90007343D01*
X147062609Y-90009573D01*
X147056199Y-90013447D01*
X147056190Y-90013452D01*
X146923447Y-90093699D01*
X146923442Y-90093702D01*
X146917030Y-90097579D01*
X146911730Y-90102878D01*
X146911726Y-90102882D01*
X146802046Y-90212562D01*
X146802042Y-90212566D01*
X146796743Y-90217866D01*
X146792866Y-90224278D01*
X146792863Y-90224283D01*
X146712615Y-90357029D01*
X146712613Y-90357033D01*
X146708737Y-90363445D01*
X146706507Y-90370599D01*
X146706507Y-90370601D01*
X146660079Y-90519593D01*
X146660076Y-90519604D01*
X146658129Y-90525855D01*
X146651715Y-90596435D01*
X146651715Y-91109667D01*
X146651969Y-91112470D01*
X146651970Y-91112476D01*
X146655571Y-91152098D01*
X146658129Y-91180247D01*
X146660077Y-91186499D01*
X146660079Y-91186508D01*
X146683239Y-91260831D01*
X146708737Y-91342657D01*
X146712614Y-91349071D01*
X146712615Y-91349072D01*
X146775170Y-91452551D01*
X146796743Y-91488236D01*
X146802046Y-91493538D01*
X146802046Y-91493539D01*
X146899231Y-91590724D01*
X146931325Y-91646311D01*
X146931325Y-91710499D01*
X146899231Y-91766086D01*
X146802443Y-91862873D01*
X146793260Y-91874594D01*
X146713079Y-92007230D01*
X146706963Y-92020818D01*
X146678429Y-92112390D01*
X146652859Y-92157727D01*
X146610935Y-92188576D01*
X146568204Y-92197748D01*
X146568317Y-92198821D01*
X146561856Y-92199500D01*
X146555354Y-92199500D01*
X146548995Y-92200851D01*
X146548991Y-92200852D01*
X146376559Y-92237503D01*
X146376552Y-92237505D01*
X146370197Y-92238856D01*
X146364262Y-92241498D01*
X146364254Y-92241501D01*
X146203207Y-92313205D01*
X146203202Y-92313207D01*
X146197270Y-92315849D01*
X146192016Y-92319665D01*
X146192011Y-92319669D01*
X146049388Y-92423290D01*
X146049381Y-92423295D01*
X146044129Y-92427112D01*
X146039784Y-92431937D01*
X146039779Y-92431942D01*
X145921813Y-92562956D01*
X145921808Y-92562962D01*
X145917467Y-92567784D01*
X145914222Y-92573404D01*
X145914218Y-92573410D01*
X145826069Y-92726089D01*
X145826066Y-92726094D01*
X145822821Y-92731716D01*
X145820815Y-92737888D01*
X145820813Y-92737894D01*
X145766333Y-92905564D01*
X145766331Y-92905573D01*
X145764326Y-92911744D01*
X145763648Y-92918194D01*
X145763646Y-92918204D01*
X145746580Y-93080586D01*
X145744540Y-93100000D01*
X145745219Y-93106460D01*
X145763646Y-93281795D01*
X145763647Y-93281803D01*
X145764326Y-93288256D01*
X145766331Y-93294428D01*
X145766333Y-93294435D01*
X145808694Y-93424808D01*
X145811337Y-93492071D01*
X145778448Y-93550804D01*
X145759353Y-93569899D01*
X145759345Y-93569908D01*
X145754247Y-93575007D01*
X145750457Y-93581150D01*
X145750454Y-93581155D01*
X145742749Y-93593648D01*
X145697642Y-93636829D01*
X145637211Y-93652551D01*
X144524063Y-93652551D01*
X144476610Y-93643112D01*
X144436382Y-93616232D01*
X144197379Y-93377228D01*
X144170499Y-93337000D01*
X144161060Y-93289547D01*
X144161060Y-93213335D01*
X144161581Y-93202279D01*
X144163233Y-93194893D01*
X144161121Y-93127673D01*
X144161060Y-93123779D01*
X144161060Y-93100102D01*
X144161060Y-93096210D01*
X144160558Y-93092243D01*
X144159641Y-93080586D01*
X144158875Y-93056203D01*
X144158270Y-93036933D01*
X144152678Y-93017688D01*
X144148734Y-92998643D01*
X144146224Y-92978768D01*
X144130139Y-92938143D01*
X144126366Y-92927122D01*
X144114178Y-92885170D01*
X144103977Y-92867920D01*
X144095423Y-92850461D01*
X144088046Y-92831828D01*
X144062368Y-92796485D01*
X144055961Y-92786731D01*
X144037702Y-92755856D01*
X144037701Y-92755854D01*
X144033730Y-92749140D01*
X144019564Y-92734974D01*
X144006930Y-92720182D01*
X143995154Y-92703973D01*
X143989143Y-92699000D01*
X143989141Y-92698998D01*
X143961501Y-92676133D01*
X143952860Y-92668270D01*
X142497286Y-91212695D01*
X142489842Y-91204514D01*
X142485786Y-91198123D01*
X142436775Y-91152098D01*
X142433978Y-91149387D01*
X142417227Y-91132636D01*
X142414471Y-91129880D01*
X142411290Y-91127412D01*
X142402414Y-91119830D01*
X142376269Y-91095278D01*
X142376267Y-91095276D01*
X142370582Y-91089938D01*
X142363749Y-91086182D01*
X142363743Y-91086177D01*
X142353025Y-91080285D01*
X142336766Y-91069606D01*
X142327095Y-91062104D01*
X142327092Y-91062102D01*
X142320936Y-91057327D01*
X142313779Y-91054229D01*
X142313776Y-91054228D01*
X142280849Y-91039978D01*
X142270363Y-91034841D01*
X142238932Y-91017562D01*
X142238923Y-91017558D01*
X142232092Y-91013803D01*
X142224535Y-91011862D01*
X142224531Y-91011861D01*
X142212688Y-91008820D01*
X142194284Y-91002519D01*
X142183057Y-90997660D01*
X142183050Y-90997658D01*
X142175896Y-90994562D01*
X142168192Y-90993341D01*
X142168190Y-90993341D01*
X142132759Y-90987729D01*
X142121324Y-90985361D01*
X142086571Y-90976438D01*
X142086563Y-90976437D01*
X142079019Y-90974500D01*
X142071223Y-90974500D01*
X142058983Y-90974500D01*
X142039597Y-90972974D01*
X142019804Y-90969840D01*
X142012038Y-90970574D01*
X142012035Y-90970574D01*
X141976324Y-90973950D01*
X141964655Y-90974500D01*
X140677771Y-90974500D01*
X140666718Y-90973979D01*
X140659332Y-90972328D01*
X140651534Y-90972573D01*
X140592144Y-90974439D01*
X140588250Y-90974500D01*
X140560650Y-90974500D01*
X140556799Y-90974986D01*
X140556768Y-90974988D01*
X140556640Y-90975005D01*
X140545029Y-90975918D01*
X140509171Y-90977045D01*
X140509164Y-90977046D01*
X140501372Y-90977291D01*
X140493888Y-90979465D01*
X140493877Y-90979467D01*
X140482128Y-90982881D01*
X140463083Y-90986825D01*
X140450947Y-90988358D01*
X140450944Y-90988358D01*
X140443208Y-90989336D01*
X140435960Y-90992205D01*
X140435950Y-90992208D01*
X140402592Y-91005415D01*
X140391550Y-91009196D01*
X140357097Y-91019207D01*
X140357092Y-91019208D01*
X140349610Y-91021383D01*
X140342902Y-91025349D01*
X140342897Y-91025352D01*
X140332364Y-91031581D01*
X140314900Y-91040136D01*
X140303524Y-91044640D01*
X140303517Y-91044643D01*
X140296268Y-91047514D01*
X140289962Y-91052094D01*
X140289957Y-91052098D01*
X140260927Y-91073189D01*
X140251169Y-91079598D01*
X140220298Y-91097856D01*
X140213579Y-91101830D01*
X140208063Y-91107344D01*
X140208056Y-91107351D01*
X140199407Y-91116000D01*
X140184624Y-91128626D01*
X140174727Y-91135817D01*
X140174720Y-91135823D01*
X140168413Y-91140406D01*
X140163446Y-91146408D01*
X140163435Y-91146420D01*
X140140570Y-91174059D01*
X140132710Y-91182697D01*
X139397770Y-91917637D01*
X139389585Y-91925085D01*
X139383197Y-91929140D01*
X139377862Y-91934820D01*
X139377857Y-91934825D01*
X139337170Y-91978151D01*
X139334466Y-91980942D01*
X139317702Y-91997706D01*
X139317695Y-91997713D01*
X139314954Y-92000455D01*
X139312574Y-92003522D01*
X139312563Y-92003535D01*
X139312474Y-92003651D01*
X139304916Y-92012496D01*
X139280354Y-92038653D01*
X139280347Y-92038662D01*
X139275012Y-92044344D01*
X139271256Y-92051175D01*
X139271253Y-92051180D01*
X139265359Y-92061901D01*
X139254683Y-92078153D01*
X139247183Y-92087822D01*
X139247175Y-92087833D01*
X139242401Y-92093990D01*
X139239308Y-92101134D01*
X139239303Y-92101145D01*
X139225048Y-92134086D01*
X139219912Y-92144569D01*
X139202634Y-92175999D01*
X139198877Y-92182834D01*
X139196938Y-92190382D01*
X139196937Y-92190387D01*
X139193896Y-92202233D01*
X139187595Y-92220637D01*
X139182732Y-92231874D01*
X139182730Y-92231878D01*
X139179636Y-92239030D01*
X139178416Y-92246729D01*
X139178416Y-92246731D01*
X139172803Y-92282167D01*
X139170435Y-92293602D01*
X139161512Y-92328354D01*
X139161510Y-92328362D01*
X139159574Y-92335907D01*
X139159574Y-92343703D01*
X139159574Y-92355943D01*
X139158048Y-92375328D01*
X139154914Y-92395122D01*
X139155648Y-92402887D01*
X139155648Y-92402890D01*
X139159024Y-92438602D01*
X139159574Y-92450271D01*
X139159574Y-92793375D01*
X139151338Y-92837812D01*
X139127724Y-92876347D01*
X139062013Y-92949326D01*
X139062008Y-92949331D01*
X139057666Y-92954155D01*
X139054421Y-92959775D01*
X139054417Y-92959781D01*
X138966931Y-93111312D01*
X138966928Y-93111318D01*
X138963682Y-93116941D01*
X138961675Y-93123117D01*
X138961674Y-93123120D01*
X138907602Y-93289533D01*
X138907600Y-93289539D01*
X138905596Y-93295709D01*
X138904917Y-93302162D01*
X138904917Y-93302166D01*
X138898100Y-93367023D01*
X138874586Y-93427644D01*
X138823629Y-93468032D01*
X138759241Y-93477083D01*
X138754148Y-93476439D01*
X138746593Y-93474500D01*
X138738790Y-93474500D01*
X138726557Y-93474500D01*
X138707171Y-93472974D01*
X138687378Y-93469840D01*
X138679612Y-93470574D01*
X138679609Y-93470574D01*
X138643898Y-93473950D01*
X138632229Y-93474500D01*
X138603748Y-93474500D01*
X138553315Y-93463781D01*
X138515218Y-93436104D01*
X138515050Y-93436291D01*
X138513271Y-93434689D01*
X138511601Y-93433476D01*
X138505871Y-93427112D01*
X138500613Y-93423292D01*
X138500611Y-93423290D01*
X138357988Y-93319669D01*
X138357987Y-93319668D01*
X138352730Y-93315849D01*
X138344494Y-93312182D01*
X138185745Y-93241501D01*
X138185740Y-93241499D01*
X138179803Y-93238856D01*
X138173444Y-93237504D01*
X138173440Y-93237503D01*
X138001008Y-93200852D01*
X138001005Y-93200851D01*
X137994646Y-93199500D01*
X137805354Y-93199500D01*
X137798995Y-93200851D01*
X137798991Y-93200852D01*
X137626559Y-93237503D01*
X137626552Y-93237505D01*
X137620197Y-93238856D01*
X137614262Y-93241498D01*
X137614254Y-93241501D01*
X137453207Y-93313205D01*
X137453202Y-93313207D01*
X137447270Y-93315849D01*
X137442016Y-93319665D01*
X137442011Y-93319669D01*
X137299388Y-93423290D01*
X137299381Y-93423295D01*
X137294129Y-93427112D01*
X137289784Y-93431937D01*
X137289779Y-93431942D01*
X137171813Y-93562956D01*
X137171808Y-93562962D01*
X137167467Y-93567784D01*
X137164222Y-93573404D01*
X137164218Y-93573410D01*
X137076069Y-93726089D01*
X137076066Y-93726094D01*
X137072821Y-93731716D01*
X137070815Y-93737888D01*
X137070813Y-93737894D01*
X137016333Y-93905564D01*
X137016331Y-93905573D01*
X137014326Y-93911744D01*
X137013648Y-93918194D01*
X137013646Y-93918204D01*
X137000763Y-94040792D01*
X136994540Y-94100000D01*
X136995219Y-94106460D01*
X137013646Y-94281795D01*
X137013647Y-94281803D01*
X137014326Y-94288256D01*
X137016331Y-94294428D01*
X137016333Y-94294435D01*
X137042250Y-94374197D01*
X137072821Y-94468284D01*
X137076068Y-94473908D01*
X137076069Y-94473910D01*
X137143511Y-94590724D01*
X137167467Y-94632216D01*
X137171811Y-94637041D01*
X137171813Y-94637043D01*
X137276718Y-94753551D01*
X137294129Y-94772888D01*
X137299387Y-94776708D01*
X137299388Y-94776709D01*
X137311941Y-94785829D01*
X137447270Y-94884151D01*
X137620197Y-94961144D01*
X137690692Y-94976128D01*
X137702035Y-94978539D01*
X137754290Y-95003463D01*
X137789535Y-95049393D01*
X137800085Y-95106319D01*
X137783642Y-95161829D01*
X137697389Y-95311222D01*
X137692133Y-95323027D01*
X137638096Y-95489337D01*
X137635408Y-95501979D01*
X137617130Y-95675892D01*
X137617130Y-95688814D01*
X137619311Y-95709567D01*
X137608475Y-95774711D01*
X137565734Y-95825054D01*
X137506595Y-95845165D01*
X137506682Y-95845905D01*
X137503239Y-95846307D01*
X137503237Y-95846307D01*
X137503108Y-95846322D01*
X137503103Y-95846323D01*
X137384121Y-95860230D01*
X137384118Y-95860230D01*
X137376954Y-95861068D01*
X137370175Y-95863535D01*
X137370172Y-95863536D01*
X137219910Y-95918227D01*
X137219906Y-95918228D01*
X137213125Y-95920697D01*
X137207098Y-95924660D01*
X137207088Y-95924666D01*
X137073500Y-96012529D01*
X137073494Y-96012533D01*
X137067464Y-96016500D01*
X137062511Y-96021749D01*
X137062506Y-96021754D01*
X136952779Y-96138057D01*
X136952775Y-96138061D01*
X136947822Y-96143312D01*
X136944213Y-96149562D01*
X136944210Y-96149567D01*
X136864261Y-96288044D01*
X136864258Y-96288048D01*
X136860651Y-96294298D01*
X136858581Y-96301210D01*
X136858580Y-96301214D01*
X136824878Y-96413789D01*
X136810649Y-96461317D01*
X136810229Y-96468520D01*
X136810229Y-96468523D01*
X136801250Y-96622678D01*
X136800511Y-96635365D01*
X136801763Y-96642468D01*
X136801764Y-96642476D01*
X136829531Y-96799945D01*
X136829532Y-96799949D01*
X136830786Y-96807059D01*
X136833645Y-96813687D01*
X136833646Y-96813690D01*
X136890876Y-96946366D01*
X136899839Y-96967143D01*
X136904152Y-96972936D01*
X136904153Y-96972938D01*
X136970533Y-97062101D01*
X137003950Y-97106988D01*
X137137504Y-97219054D01*
X137293303Y-97297299D01*
X137462947Y-97337505D01*
X137589955Y-97337505D01*
X137593554Y-97337505D01*
X137723282Y-97322342D01*
X137887111Y-97262713D01*
X138032772Y-97166910D01*
X138152414Y-97040098D01*
X138239585Y-96889112D01*
X138289587Y-96722093D01*
X138291327Y-96692208D01*
X138312588Y-96629677D01*
X138362939Y-96586931D01*
X138421142Y-96577255D01*
X138421142Y-96576052D01*
X138602503Y-96576052D01*
X138615361Y-96574700D01*
X138639876Y-96569489D01*
X138699836Y-96571582D01*
X138751796Y-96601579D01*
X138783590Y-96652458D01*
X138791524Y-96676875D01*
X138791526Y-96676880D01*
X138793534Y-96683059D01*
X138796781Y-96688684D01*
X138796783Y-96688687D01*
X138887518Y-96845845D01*
X138886474Y-96846447D01*
X138907184Y-96901680D01*
X138895338Y-96966649D01*
X138851821Y-97016323D01*
X138833263Y-97028529D01*
X138833253Y-97028536D01*
X138827228Y-97032500D01*
X138822276Y-97037748D01*
X138822272Y-97037752D01*
X138712543Y-97154057D01*
X138712539Y-97154061D01*
X138707586Y-97159312D01*
X138703977Y-97165562D01*
X138703974Y-97165567D01*
X138624025Y-97304044D01*
X138624022Y-97304048D01*
X138620415Y-97310298D01*
X138618345Y-97317210D01*
X138618344Y-97317214D01*
X138584601Y-97429924D01*
X138570413Y-97477317D01*
X138569993Y-97484520D01*
X138569993Y-97484523D01*
X138561399Y-97632062D01*
X138560275Y-97651365D01*
X138561527Y-97658468D01*
X138561528Y-97658476D01*
X138589295Y-97815945D01*
X138589296Y-97815949D01*
X138590550Y-97823059D01*
X138593409Y-97829687D01*
X138593410Y-97829690D01*
X138656305Y-97975499D01*
X138659603Y-97983143D01*
X138663916Y-97988936D01*
X138663917Y-97988938D01*
X138720249Y-98064605D01*
X138763714Y-98122988D01*
X138897268Y-98235054D01*
X139053067Y-98313299D01*
X139222711Y-98353505D01*
X139349719Y-98353505D01*
X139353318Y-98353505D01*
X139483046Y-98338342D01*
X139646875Y-98278713D01*
X139792536Y-98182910D01*
X139912178Y-98056098D01*
X139999349Y-97905112D01*
X140049351Y-97738093D01*
X140059489Y-97564045D01*
X140029214Y-97392351D01*
X139976210Y-97269474D01*
X139966854Y-97206444D01*
X139990036Y-97147088D01*
X140039634Y-97107083D01*
X140064489Y-97096018D01*
X140216559Y-96985533D01*
X140220909Y-96980701D01*
X140225738Y-96976354D01*
X140226794Y-96977527D01*
X140259755Y-96953575D01*
X140310197Y-96942852D01*
X141341974Y-96942852D01*
X141392409Y-96953572D01*
X141434124Y-96983880D01*
X141459905Y-97028534D01*
X141470811Y-97062101D01*
X141470814Y-97062109D01*
X141472821Y-97068284D01*
X141476068Y-97073909D01*
X141476070Y-97073912D01*
X141557188Y-97214412D01*
X141567467Y-97232216D01*
X141691570Y-97370046D01*
X141719193Y-97420921D01*
X141720708Y-97478795D01*
X141695785Y-97531050D01*
X141649854Y-97566294D01*
X141520128Y-97624053D01*
X141514190Y-97626697D01*
X141508936Y-97630513D01*
X141508931Y-97630517D01*
X141366308Y-97734138D01*
X141366301Y-97734143D01*
X141361049Y-97737960D01*
X141356704Y-97742785D01*
X141356699Y-97742790D01*
X141238733Y-97873804D01*
X141238728Y-97873810D01*
X141234387Y-97878632D01*
X141231142Y-97884252D01*
X141231138Y-97884258D01*
X141142989Y-98036937D01*
X141142986Y-98036942D01*
X141139741Y-98042564D01*
X141137735Y-98048736D01*
X141137733Y-98048742D01*
X141083253Y-98216412D01*
X141083251Y-98216421D01*
X141081246Y-98222592D01*
X141080568Y-98229042D01*
X141080566Y-98229052D01*
X141067487Y-98353505D01*
X141061460Y-98410848D01*
X141062139Y-98417308D01*
X141080566Y-98592643D01*
X141080567Y-98592651D01*
X141081246Y-98599104D01*
X141083251Y-98605276D01*
X141083253Y-98605283D01*
X141128448Y-98744377D01*
X141139741Y-98779132D01*
X141142988Y-98784756D01*
X141142989Y-98784758D01*
X141224255Y-98925516D01*
X141234387Y-98943064D01*
X141238731Y-98947889D01*
X141238733Y-98947891D01*
X141324082Y-99042680D01*
X141361049Y-99083736D01*
X141366307Y-99087556D01*
X141366308Y-99087557D01*
X141432797Y-99135864D01*
X141514190Y-99194999D01*
X141687117Y-99271992D01*
X141726784Y-99280423D01*
X141777341Y-99303998D01*
X141812450Y-99347353D01*
X141825000Y-99401711D01*
X141825000Y-99495164D01*
X141825321Y-99501447D01*
X141834455Y-99590867D01*
X141837274Y-99604036D01*
X141886180Y-99751625D01*
X141892246Y-99764633D01*
X141973632Y-99896580D01*
X141982537Y-99907842D01*
X141986659Y-99911964D01*
X142018752Y-99967547D01*
X142018755Y-100031730D01*
X141986668Y-100087317D01*
X141982144Y-100091841D01*
X141982132Y-100091855D01*
X141977032Y-100096956D01*
X141973242Y-100103099D01*
X141973239Y-100103104D01*
X141891789Y-100235154D01*
X141891786Y-100235159D01*
X141887997Y-100241303D01*
X141885726Y-100248154D01*
X141885725Y-100248158D01*
X141840742Y-100383910D01*
X141834651Y-100402292D01*
X141833963Y-100409022D01*
X141833962Y-100409029D01*
X141824819Y-100498523D01*
X141824818Y-100498541D01*
X141824500Y-100501655D01*
X141824500Y-100504802D01*
X141824500Y-100504803D01*
X141824500Y-101045194D01*
X141824500Y-101045213D01*
X141824501Y-101048344D01*
X141824820Y-101051476D01*
X141824821Y-101051477D01*
X141833962Y-101140972D01*
X141833963Y-101140980D01*
X141834651Y-101147708D01*
X141836779Y-101154131D01*
X141836780Y-101154134D01*
X141853259Y-101203864D01*
X141887997Y-101308697D01*
X141897596Y-101324259D01*
X141908976Y-101342709D01*
X141926795Y-101395203D01*
X141919959Y-101450216D01*
X141889834Y-101496752D01*
X141842441Y-101525511D01*
X141725587Y-101564232D01*
X141712581Y-101570297D01*
X141580634Y-101651683D01*
X141569372Y-101660588D01*
X141459752Y-101770208D01*
X141450847Y-101781470D01*
X141369461Y-101913417D01*
X141363395Y-101926425D01*
X141314487Y-102074020D01*
X141311671Y-102087176D01*
X141302534Y-102176606D01*
X141302215Y-102182883D01*
X141302215Y-102211725D01*
X141305665Y-102224600D01*
X141318541Y-102228051D01*
X142378215Y-102228051D01*
X142440215Y-102244664D01*
X142485602Y-102290051D01*
X142502215Y-102352051D01*
X142502215Y-104204051D01*
X142485602Y-104266051D01*
X142440215Y-104311438D01*
X142378215Y-104328051D01*
X141318542Y-104328051D01*
X141305666Y-104331501D01*
X141302216Y-104344377D01*
X141302216Y-104373216D01*
X141302536Y-104379498D01*
X141311670Y-104468918D01*
X141314489Y-104482087D01*
X141363395Y-104629676D01*
X141369461Y-104642684D01*
X141450847Y-104774631D01*
X141464229Y-104791555D01*
X141462471Y-104792944D01*
X141488647Y-104838281D01*
X141488647Y-104902469D01*
X141456553Y-104958056D01*
X141452046Y-104962562D01*
X141452042Y-104962566D01*
X141446743Y-104967866D01*
X141442866Y-104974278D01*
X141442863Y-104974283D01*
X141362615Y-105107029D01*
X141362613Y-105107033D01*
X141358737Y-105113445D01*
X141356507Y-105120599D01*
X141356507Y-105120601D01*
X141310079Y-105269593D01*
X141310076Y-105269604D01*
X141308129Y-105275855D01*
X141307535Y-105282386D01*
X141307535Y-105282389D01*
X141303522Y-105326553D01*
X141301715Y-105346435D01*
X141301715Y-105349254D01*
X141301715Y-105642598D01*
X141292276Y-105690051D01*
X141265395Y-105730280D01*
X141147725Y-105847948D01*
X141092138Y-105880041D01*
X141027952Y-105880041D01*
X140881082Y-105840687D01*
X140881075Y-105840686D01*
X140874104Y-105838818D01*
X140866891Y-105838608D01*
X140866884Y-105838607D01*
X140803291Y-105836757D01*
X140738258Y-105816077D01*
X140694014Y-105764121D01*
X140683960Y-105696626D01*
X140701375Y-105564348D01*
X140680737Y-105407586D01*
X140635421Y-105298186D01*
X140577989Y-105198712D01*
X140561377Y-105136713D01*
X140577990Y-105074713D01*
X140623377Y-105029326D01*
X140722849Y-104971896D01*
X140816794Y-104899811D01*
X140913048Y-104774370D01*
X140973557Y-104628291D01*
X140994194Y-104471529D01*
X140973556Y-104314766D01*
X140928241Y-104205366D01*
X140799846Y-103982981D01*
X140783826Y-103933081D01*
X140789851Y-103881018D01*
X140816842Y-103836099D01*
X140829656Y-103822455D01*
X140835554Y-103811725D01*
X141302215Y-103811725D01*
X141305665Y-103824600D01*
X141318541Y-103828051D01*
X141985889Y-103828051D01*
X141998764Y-103824600D01*
X142002215Y-103811725D01*
X142002215Y-102744377D01*
X141998764Y-102731501D01*
X141985889Y-102728051D01*
X141318542Y-102728051D01*
X141305666Y-102731501D01*
X141302216Y-102744377D01*
X141302216Y-102773216D01*
X141302536Y-102779498D01*
X141311670Y-102868918D01*
X141314489Y-102882087D01*
X141363395Y-103029676D01*
X141369461Y-103042684D01*
X141450847Y-103174631D01*
X141459752Y-103185893D01*
X141464229Y-103190370D01*
X141496323Y-103245957D01*
X141496323Y-103310145D01*
X141464229Y-103365732D01*
X141459752Y-103370208D01*
X141450847Y-103381470D01*
X141369461Y-103513417D01*
X141363395Y-103526425D01*
X141314487Y-103674020D01*
X141311671Y-103687176D01*
X141302534Y-103776606D01*
X141302215Y-103782883D01*
X141302215Y-103811725D01*
X140835554Y-103811725D01*
X140839307Y-103804896D01*
X140849984Y-103788643D01*
X140862267Y-103772809D01*
X140879620Y-103732705D01*
X140884752Y-103722234D01*
X140902029Y-103690808D01*
X140902029Y-103690807D01*
X140905791Y-103683965D01*
X140910771Y-103664564D01*
X140917075Y-103646154D01*
X140920410Y-103638448D01*
X140925032Y-103627769D01*
X140931866Y-103584614D01*
X140934232Y-103573194D01*
X140943154Y-103538447D01*
X140945094Y-103530892D01*
X140945094Y-103510856D01*
X140946619Y-103491470D01*
X140949754Y-103471677D01*
X140945644Y-103428197D01*
X140945094Y-103416528D01*
X140945094Y-102412034D01*
X140945614Y-102400981D01*
X140947266Y-102393595D01*
X140945155Y-102326407D01*
X140945094Y-102322513D01*
X140945094Y-102298808D01*
X140945094Y-102294913D01*
X140944592Y-102290944D01*
X140943674Y-102279287D01*
X140942303Y-102235636D01*
X140936713Y-102216398D01*
X140932769Y-102197354D01*
X140930258Y-102177471D01*
X140914176Y-102136854D01*
X140910392Y-102125802D01*
X140909627Y-102123169D01*
X140898211Y-102083873D01*
X140894239Y-102077157D01*
X140894237Y-102077152D01*
X140888016Y-102066633D01*
X140879454Y-102049155D01*
X140874954Y-102037790D01*
X140874953Y-102037789D01*
X140872080Y-102030531D01*
X140846406Y-101995194D01*
X140840003Y-101985447D01*
X140817764Y-101947842D01*
X140803600Y-101933677D01*
X140790962Y-101918881D01*
X140783778Y-101908992D01*
X140783772Y-101908986D01*
X140779188Y-101902676D01*
X140745540Y-101874840D01*
X140736899Y-101866977D01*
X139760668Y-100890746D01*
X139753224Y-100882565D01*
X139749168Y-100876174D01*
X139700157Y-100830149D01*
X139697360Y-100827438D01*
X139680609Y-100810687D01*
X139677853Y-100807931D01*
X139674672Y-100805463D01*
X139665796Y-100797881D01*
X139639651Y-100773329D01*
X139639649Y-100773327D01*
X139633964Y-100767989D01*
X139627131Y-100764233D01*
X139627125Y-100764228D01*
X139616407Y-100758336D01*
X139600148Y-100747657D01*
X139590477Y-100740155D01*
X139590474Y-100740153D01*
X139584318Y-100735378D01*
X139577161Y-100732280D01*
X139577158Y-100732279D01*
X139544231Y-100718029D01*
X139533745Y-100712892D01*
X139502314Y-100695613D01*
X139502305Y-100695609D01*
X139495474Y-100691854D01*
X139487917Y-100689913D01*
X139487913Y-100689912D01*
X139476070Y-100686871D01*
X139457666Y-100680570D01*
X139446439Y-100675711D01*
X139446432Y-100675709D01*
X139439278Y-100672613D01*
X139431574Y-100671392D01*
X139431572Y-100671392D01*
X139396141Y-100665780D01*
X139384706Y-100663412D01*
X139349953Y-100654489D01*
X139349945Y-100654488D01*
X139342401Y-100652551D01*
X139334605Y-100652551D01*
X139322365Y-100652551D01*
X139302979Y-100651025D01*
X139283186Y-100647891D01*
X139275420Y-100648625D01*
X139275417Y-100648625D01*
X139239706Y-100652001D01*
X139228037Y-100652551D01*
X137777482Y-100652551D01*
X137715482Y-100635938D01*
X137670095Y-100590551D01*
X137649637Y-100555118D01*
X137641263Y-100540613D01*
X137600418Y-100482696D01*
X137475385Y-100367349D01*
X137371527Y-100310144D01*
X137332951Y-100288896D01*
X137332948Y-100288895D01*
X137326380Y-100285277D01*
X137319137Y-100283336D01*
X137319134Y-100283335D01*
X137169308Y-100243189D01*
X137169302Y-100243188D01*
X137162065Y-100241249D01*
X137154574Y-100241098D01*
X137154567Y-100241097D01*
X136999484Y-100237974D01*
X136991987Y-100237823D01*
X136984678Y-100239469D01*
X136984669Y-100239470D01*
X136832427Y-100273759D01*
X136832420Y-100273761D01*
X136826032Y-100275200D01*
X136820086Y-100277948D01*
X136820081Y-100277950D01*
X136764254Y-100303754D01*
X136764237Y-100303762D01*
X136761701Y-100304935D01*
X136759281Y-100306331D01*
X136759262Y-100306342D01*
X136319670Y-100560141D01*
X136319658Y-100560148D01*
X136317229Y-100561551D01*
X136314933Y-100563169D01*
X136314927Y-100563174D01*
X136264672Y-100598615D01*
X136264666Y-100598619D01*
X136259312Y-100602396D01*
X136254865Y-100607215D01*
X136254863Y-100607218D01*
X136149052Y-100721914D01*
X136149049Y-100721917D01*
X136143965Y-100727429D01*
X136140347Y-100733997D01*
X136140346Y-100733999D01*
X136065512Y-100869862D01*
X136065509Y-100869867D01*
X136061893Y-100876434D01*
X136059952Y-100883676D01*
X136059951Y-100883680D01*
X136024379Y-101016435D01*
X135992285Y-101072023D01*
X135936697Y-101104116D01*
X135872511Y-101104116D01*
X135862053Y-101101314D01*
X135850824Y-101100946D01*
X135848273Y-101111888D01*
X135848273Y-103033435D01*
X135833488Y-103088617D01*
X135834201Y-103088913D01*
X135831091Y-103096419D01*
X135831089Y-103096424D01*
X135790492Y-103194435D01*
X135773693Y-103234991D01*
X135772632Y-103243044D01*
X135772631Y-103243051D01*
X135759041Y-103346277D01*
X135747314Y-103384935D01*
X135723783Y-103417772D01*
X135613907Y-103527648D01*
X135588226Y-103547354D01*
X135481464Y-103608993D01*
X135416218Y-103625564D01*
X135351929Y-103605601D01*
X135307543Y-103554989D01*
X135296143Y-103488644D01*
X135297927Y-103471677D01*
X135305460Y-103400000D01*
X135287155Y-103225835D01*
X135292462Y-103174813D01*
X135317966Y-103130304D01*
X135338643Y-103115108D01*
X135345289Y-103107010D01*
X135348273Y-103094214D01*
X135348273Y-102369377D01*
X135344822Y-102356501D01*
X135331947Y-102353051D01*
X134719706Y-102353051D01*
X134708554Y-102356039D01*
X134709863Y-102360924D01*
X134710272Y-102423540D01*
X134680034Y-102478372D01*
X134626860Y-102511438D01*
X134564308Y-102514307D01*
X134494646Y-102499500D01*
X134305354Y-102499500D01*
X134298995Y-102500851D01*
X134298991Y-102500852D01*
X134126559Y-102537503D01*
X134126552Y-102537505D01*
X134120197Y-102538856D01*
X134114262Y-102541498D01*
X134114254Y-102541501D01*
X133953207Y-102613205D01*
X133953202Y-102613207D01*
X133947270Y-102615849D01*
X133942016Y-102619665D01*
X133942011Y-102619669D01*
X133799388Y-102723290D01*
X133799381Y-102723295D01*
X133794129Y-102727112D01*
X133789784Y-102731937D01*
X133789779Y-102731942D01*
X133671813Y-102862956D01*
X133671808Y-102862962D01*
X133667467Y-102867784D01*
X133664222Y-102873404D01*
X133664218Y-102873410D01*
X133576069Y-103026089D01*
X133576066Y-103026094D01*
X133572821Y-103031716D01*
X133570815Y-103037888D01*
X133570813Y-103037894D01*
X133516333Y-103205564D01*
X133516331Y-103205573D01*
X133514326Y-103211744D01*
X133513648Y-103218194D01*
X133513646Y-103218204D01*
X133497873Y-103368284D01*
X133494540Y-103400000D01*
X133495219Y-103406459D01*
X133495219Y-103406460D01*
X133513646Y-103581795D01*
X133513647Y-103581803D01*
X133514326Y-103588256D01*
X133516331Y-103594428D01*
X133516333Y-103594435D01*
X133562888Y-103737715D01*
X133572821Y-103768284D01*
X133576068Y-103773908D01*
X133576069Y-103773910D01*
X133664123Y-103926425D01*
X133667467Y-103932216D01*
X133671811Y-103937041D01*
X133671813Y-103937043D01*
X133742650Y-104015715D01*
X133766264Y-104054249D01*
X133774500Y-104098687D01*
X133774500Y-105166625D01*
X133770275Y-105198718D01*
X133741669Y-105305475D01*
X133741667Y-105305483D01*
X133739800Y-105312454D01*
X133739590Y-105319671D01*
X133738543Y-105326821D01*
X133736714Y-105326553D01*
X133722200Y-105376313D01*
X133677721Y-105420135D01*
X133617525Y-105436725D01*
X133567570Y-105424495D01*
X133566852Y-105426303D01*
X133546812Y-105418341D01*
X133483991Y-105401508D01*
X133472764Y-105401140D01*
X133470213Y-105412083D01*
X133470213Y-107953263D01*
X132970213Y-107953263D01*
X132970213Y-105450893D01*
X132967378Y-105439750D01*
X132956051Y-105441726D01*
X132946154Y-105446167D01*
X132940551Y-105449032D01*
X132274875Y-105833362D01*
X132269598Y-105836777D01*
X132193928Y-105891418D01*
X132183933Y-105900444D01*
X132076685Y-106020959D01*
X132068455Y-106032711D01*
X131992098Y-106174322D01*
X131986804Y-106187649D01*
X131945163Y-106343055D01*
X131944389Y-106348345D01*
X131921178Y-106404396D01*
X131874155Y-106442728D01*
X131814576Y-106454165D01*
X131756702Y-106435970D01*
X131714386Y-106392498D01*
X129687860Y-102892135D01*
X129671180Y-102828683D01*
X129689212Y-102765601D01*
X129736907Y-102720549D01*
X129800913Y-102706140D01*
X129863313Y-102726407D01*
X129896789Y-102748425D01*
X129903029Y-102752027D01*
X130193237Y-102897776D01*
X130199876Y-102900639D01*
X130505053Y-103011715D01*
X130511943Y-103013778D01*
X130827983Y-103088681D01*
X130835049Y-103089927D01*
X131157650Y-103127633D01*
X131164820Y-103128051D01*
X131489610Y-103128051D01*
X131496779Y-103127633D01*
X131819380Y-103089927D01*
X131826446Y-103088681D01*
X132142486Y-103013778D01*
X132149376Y-103011715D01*
X132454553Y-102900639D01*
X132461192Y-102897776D01*
X132751400Y-102752027D01*
X132757649Y-102748420D01*
X133028975Y-102569966D01*
X133034773Y-102565649D01*
X133144714Y-102473397D01*
X133152401Y-102462071D01*
X133145730Y-102450119D01*
X131061343Y-100365732D01*
X131029249Y-100310145D01*
X131029249Y-100278051D01*
X131685646Y-100278051D01*
X131692310Y-100289593D01*
X133505415Y-102102698D01*
X133514597Y-102108595D01*
X133522829Y-102101428D01*
X133709641Y-101850499D01*
X134596167Y-101850499D01*
X134607110Y-101853051D01*
X135331947Y-101853051D01*
X135344822Y-101849600D01*
X135348273Y-101836725D01*
X135348273Y-101138930D01*
X135345419Y-101127778D01*
X135334340Y-101129822D01*
X135330544Y-101131791D01*
X134891005Y-101385560D01*
X134886281Y-101388580D01*
X134836058Y-101423997D01*
X134826245Y-101432602D01*
X134720515Y-101547213D01*
X134711815Y-101559289D01*
X134637034Y-101695055D01*
X134631477Y-101708863D01*
X134596535Y-101839270D01*
X134596167Y-101850499D01*
X133709641Y-101850499D01*
X133710232Y-101849705D01*
X133714198Y-101843674D01*
X133876579Y-101562421D01*
X133879812Y-101555985D01*
X134008453Y-101257763D01*
X134010909Y-101251014D01*
X134104058Y-100939875D01*
X134105720Y-100932862D01*
X134162113Y-100613042D01*
X134162952Y-100605863D01*
X134181835Y-100281657D01*
X134181835Y-100274445D01*
X134162952Y-99950238D01*
X134162113Y-99943059D01*
X134105720Y-99623239D01*
X134104058Y-99616226D01*
X134010909Y-99305087D01*
X134008453Y-99298338D01*
X133879812Y-99000116D01*
X133876579Y-98993680D01*
X133714198Y-98712427D01*
X133710232Y-98706396D01*
X133522829Y-98454672D01*
X133514597Y-98447505D01*
X133505415Y-98453402D01*
X131692310Y-100266508D01*
X131685646Y-100278051D01*
X131029249Y-100278051D01*
X131029249Y-100245957D01*
X131061343Y-100190370D01*
X131327215Y-99924498D01*
X133145731Y-98105980D01*
X133152401Y-98094028D01*
X133144715Y-98082704D01*
X133034773Y-97990452D01*
X133028975Y-97986135D01*
X132757649Y-97807681D01*
X132751400Y-97804074D01*
X132461192Y-97658325D01*
X132454553Y-97655462D01*
X132149376Y-97544386D01*
X132142486Y-97542323D01*
X131826446Y-97467420D01*
X131819380Y-97466174D01*
X131496779Y-97428468D01*
X131489610Y-97428051D01*
X131164820Y-97428051D01*
X131157650Y-97428468D01*
X130835049Y-97466174D01*
X130827983Y-97467420D01*
X130511943Y-97542323D01*
X130505053Y-97544386D01*
X130199876Y-97655462D01*
X130193237Y-97658325D01*
X129903029Y-97804074D01*
X129896788Y-97807677D01*
X129863308Y-97829697D01*
X129800909Y-97849962D01*
X129736903Y-97835552D01*
X129689209Y-97790500D01*
X129671178Y-97727419D01*
X129687856Y-97663970D01*
X134859796Y-88730621D01*
X144507215Y-88730621D01*
X144507532Y-88736886D01*
X144521998Y-88879135D01*
X144524516Y-88891386D01*
X144581634Y-89073436D01*
X144586570Y-89084940D01*
X144679169Y-89251771D01*
X144686312Y-89262033D01*
X144810594Y-89406805D01*
X144819673Y-89415436D01*
X144970544Y-89532218D01*
X144981172Y-89538843D01*
X145152471Y-89622868D01*
X145164212Y-89627216D01*
X145243468Y-89647737D01*
X145254679Y-89648022D01*
X145257215Y-89637097D01*
X145257215Y-88399377D01*
X145253764Y-88386501D01*
X145240889Y-88383051D01*
X144523541Y-88383051D01*
X144510665Y-88386501D01*
X144507215Y-88399377D01*
X144507215Y-88730621D01*
X134859796Y-88730621D01*
X135359946Y-87866725D01*
X144507215Y-87866725D01*
X144510665Y-87879600D01*
X144523541Y-87883051D01*
X145240889Y-87883051D01*
X145253764Y-87879600D01*
X145257215Y-87866725D01*
X145257215Y-86623089D01*
X145254877Y-86612405D01*
X145249712Y-86612077D01*
X145249374Y-86612165D01*
X145070454Y-86678429D01*
X145059208Y-86683945D01*
X144897288Y-86784870D01*
X144887394Y-86792529D01*
X144749100Y-86923987D01*
X144740952Y-86933478D01*
X144631949Y-87090087D01*
X144625880Y-87101021D01*
X144550633Y-87276369D01*
X144546890Y-87288298D01*
X144508480Y-87475203D01*
X144507215Y-87487649D01*
X144507215Y-87866725D01*
X135359946Y-87866725D01*
X136173167Y-86462071D01*
X138752027Y-86462071D01*
X138759714Y-86473397D01*
X138869656Y-86565649D01*
X138875454Y-86569966D01*
X139146780Y-86748420D01*
X139153029Y-86752027D01*
X139443237Y-86897776D01*
X139449876Y-86900639D01*
X139755053Y-87011715D01*
X139761943Y-87013778D01*
X140077983Y-87088681D01*
X140085049Y-87089927D01*
X140407650Y-87127633D01*
X140414820Y-87128051D01*
X140739610Y-87128051D01*
X140746779Y-87127633D01*
X141069380Y-87089927D01*
X141076446Y-87088681D01*
X141392486Y-87013778D01*
X141399376Y-87011715D01*
X141704553Y-86900639D01*
X141711192Y-86897776D01*
X142001400Y-86752027D01*
X142007649Y-86748420D01*
X142278975Y-86569966D01*
X142284773Y-86565649D01*
X142394714Y-86473397D01*
X142402401Y-86462071D01*
X142395730Y-86450119D01*
X140588757Y-84643146D01*
X140577215Y-84636482D01*
X140565672Y-84643146D01*
X138758697Y-86450120D01*
X138752027Y-86462071D01*
X136173167Y-86462071D01*
X137492798Y-84182708D01*
X137539466Y-84136681D01*
X137603083Y-84120876D01*
X137665868Y-84139713D01*
X137710277Y-84187928D01*
X137723899Y-84252048D01*
X137722595Y-84274443D01*
X137722595Y-84281657D01*
X137741477Y-84605863D01*
X137742316Y-84613042D01*
X137798709Y-84932862D01*
X137800371Y-84939875D01*
X137893520Y-85251014D01*
X137895976Y-85257763D01*
X138024617Y-85555985D01*
X138027850Y-85562421D01*
X138190231Y-85843674D01*
X138194197Y-85849705D01*
X138381599Y-86101428D01*
X138389831Y-86108595D01*
X138399013Y-86102698D01*
X140223662Y-84278051D01*
X140935646Y-84278051D01*
X140942310Y-84289593D01*
X142755415Y-86102698D01*
X142764597Y-86108595D01*
X142772829Y-86101428D01*
X142960232Y-85849705D01*
X142964198Y-85843674D01*
X143126579Y-85562421D01*
X143129812Y-85555985D01*
X143258453Y-85257763D01*
X143260909Y-85251014D01*
X143354058Y-84939875D01*
X143355720Y-84932862D01*
X143412113Y-84613042D01*
X143412952Y-84605863D01*
X143430730Y-84300621D01*
X144507215Y-84300621D01*
X144507532Y-84306886D01*
X144521998Y-84449135D01*
X144524516Y-84461386D01*
X144581634Y-84643436D01*
X144586570Y-84654940D01*
X144679169Y-84821771D01*
X144686312Y-84832033D01*
X144810594Y-84976805D01*
X144819673Y-84985436D01*
X144970544Y-85102218D01*
X144981172Y-85108843D01*
X145152471Y-85192868D01*
X145164212Y-85197216D01*
X145243468Y-85217737D01*
X145254679Y-85218022D01*
X145255842Y-85213013D01*
X145757215Y-85213013D01*
X145759552Y-85223696D01*
X145764717Y-85224024D01*
X145765055Y-85223936D01*
X145943975Y-85157672D01*
X145955221Y-85152156D01*
X146117141Y-85051231D01*
X146127035Y-85043572D01*
X146265329Y-84912114D01*
X146273477Y-84902623D01*
X146382480Y-84746014D01*
X146388549Y-84735080D01*
X146463796Y-84559732D01*
X146467539Y-84547803D01*
X146505949Y-84360898D01*
X146507215Y-84348453D01*
X146507215Y-84300621D01*
X153147215Y-84300621D01*
X153147532Y-84306886D01*
X153161998Y-84449135D01*
X153164516Y-84461386D01*
X153221634Y-84643436D01*
X153226570Y-84654940D01*
X153319169Y-84821771D01*
X153326312Y-84832033D01*
X153450594Y-84976805D01*
X153459673Y-84985436D01*
X153610544Y-85102218D01*
X153621172Y-85108843D01*
X153792471Y-85192868D01*
X153804212Y-85197216D01*
X153883468Y-85217737D01*
X153894679Y-85218022D01*
X153895842Y-85213013D01*
X154397215Y-85213013D01*
X154399552Y-85223696D01*
X154404717Y-85224024D01*
X154405055Y-85223936D01*
X154583975Y-85157672D01*
X154595221Y-85152156D01*
X154757141Y-85051231D01*
X154767035Y-85043572D01*
X154905329Y-84912114D01*
X154913477Y-84902623D01*
X155022480Y-84746014D01*
X155028549Y-84735080D01*
X155103796Y-84559732D01*
X155107539Y-84547803D01*
X155145949Y-84360898D01*
X155147215Y-84348453D01*
X155147215Y-84281657D01*
X156222595Y-84281657D01*
X156241477Y-84605863D01*
X156242316Y-84613042D01*
X156298709Y-84932862D01*
X156300371Y-84939875D01*
X156393520Y-85251014D01*
X156395976Y-85257763D01*
X156524617Y-85555985D01*
X156527850Y-85562421D01*
X156690231Y-85843674D01*
X156694197Y-85849705D01*
X156881599Y-86101428D01*
X156889831Y-86108595D01*
X156899013Y-86102698D01*
X158712119Y-84289593D01*
X158718783Y-84278051D01*
X158712119Y-84266508D01*
X156899013Y-82453402D01*
X156889831Y-82447506D01*
X156881598Y-82454673D01*
X156694197Y-82706395D01*
X156690231Y-82712427D01*
X156527850Y-82993680D01*
X156524617Y-83000116D01*
X156395976Y-83298338D01*
X156393520Y-83305087D01*
X156300371Y-83616226D01*
X156298709Y-83623239D01*
X156242316Y-83943059D01*
X156241477Y-83950238D01*
X156222595Y-84274445D01*
X156222595Y-84281657D01*
X155147215Y-84281657D01*
X155147215Y-84219377D01*
X155143764Y-84206501D01*
X155130889Y-84203051D01*
X154413541Y-84203051D01*
X154400665Y-84206501D01*
X154397215Y-84219377D01*
X154397215Y-85213013D01*
X153895842Y-85213013D01*
X153897215Y-85207097D01*
X153897215Y-84219377D01*
X153893764Y-84206501D01*
X153880889Y-84203051D01*
X153163541Y-84203051D01*
X153150665Y-84206501D01*
X153147215Y-84219377D01*
X153147215Y-84300621D01*
X146507215Y-84300621D01*
X146507215Y-84219377D01*
X146503764Y-84206501D01*
X146490889Y-84203051D01*
X145773541Y-84203051D01*
X145760665Y-84206501D01*
X145757215Y-84219377D01*
X145757215Y-85213013D01*
X145255842Y-85213013D01*
X145257215Y-85207097D01*
X145257215Y-84219377D01*
X145253764Y-84206501D01*
X145240889Y-84203051D01*
X144523541Y-84203051D01*
X144510665Y-84206501D01*
X144507215Y-84219377D01*
X144507215Y-84300621D01*
X143430730Y-84300621D01*
X143431835Y-84281657D01*
X143431835Y-84274445D01*
X143412952Y-83950238D01*
X143412113Y-83943059D01*
X143366914Y-83686725D01*
X144507215Y-83686725D01*
X144510665Y-83699600D01*
X144523541Y-83703051D01*
X145240889Y-83703051D01*
X145253764Y-83699600D01*
X145257215Y-83686725D01*
X145757215Y-83686725D01*
X145760665Y-83699600D01*
X145773541Y-83703051D01*
X146490889Y-83703051D01*
X146503764Y-83699600D01*
X146507215Y-83686725D01*
X153147215Y-83686725D01*
X153150665Y-83699600D01*
X153163541Y-83703051D01*
X153880889Y-83703051D01*
X153893764Y-83699600D01*
X153897215Y-83686725D01*
X154397215Y-83686725D01*
X154400665Y-83699600D01*
X154413541Y-83703051D01*
X155130889Y-83703051D01*
X155143764Y-83699600D01*
X155147215Y-83686725D01*
X155147215Y-83605481D01*
X155146897Y-83599215D01*
X155132431Y-83456966D01*
X155129913Y-83444715D01*
X155072795Y-83262665D01*
X155067859Y-83251161D01*
X154975260Y-83084330D01*
X154968117Y-83074068D01*
X154843835Y-82929296D01*
X154834756Y-82920665D01*
X154683885Y-82803883D01*
X154673257Y-82797258D01*
X154501958Y-82713233D01*
X154490217Y-82708885D01*
X154410961Y-82688364D01*
X154399750Y-82688079D01*
X154397215Y-82699005D01*
X154397215Y-83686725D01*
X153897215Y-83686725D01*
X153897215Y-82693089D01*
X153894877Y-82682405D01*
X153889712Y-82682077D01*
X153889374Y-82682165D01*
X153710454Y-82748429D01*
X153699208Y-82753945D01*
X153537288Y-82854870D01*
X153527394Y-82862529D01*
X153389100Y-82993987D01*
X153380952Y-83003478D01*
X153271949Y-83160087D01*
X153265880Y-83171021D01*
X153190633Y-83346369D01*
X153186890Y-83358298D01*
X153148480Y-83545203D01*
X153147215Y-83557649D01*
X153147215Y-83686725D01*
X146507215Y-83686725D01*
X146507215Y-83605481D01*
X146506897Y-83599215D01*
X146492431Y-83456966D01*
X146489913Y-83444715D01*
X146432795Y-83262665D01*
X146427859Y-83251161D01*
X146335260Y-83084330D01*
X146328117Y-83074068D01*
X146203835Y-82929296D01*
X146194756Y-82920665D01*
X146043885Y-82803883D01*
X146033257Y-82797258D01*
X145861958Y-82713233D01*
X145850217Y-82708885D01*
X145770961Y-82688364D01*
X145759750Y-82688079D01*
X145757215Y-82699005D01*
X145757215Y-83686725D01*
X145257215Y-83686725D01*
X145257215Y-82693089D01*
X145254877Y-82682405D01*
X145249712Y-82682077D01*
X145249374Y-82682165D01*
X145070454Y-82748429D01*
X145059208Y-82753945D01*
X144897288Y-82854870D01*
X144887394Y-82862529D01*
X144749100Y-82993987D01*
X144740952Y-83003478D01*
X144631949Y-83160087D01*
X144625880Y-83171021D01*
X144550633Y-83346369D01*
X144546890Y-83358298D01*
X144508480Y-83545203D01*
X144507215Y-83557649D01*
X144507215Y-83686725D01*
X143366914Y-83686725D01*
X143355720Y-83623239D01*
X143354058Y-83616226D01*
X143260909Y-83305087D01*
X143258453Y-83298338D01*
X143129812Y-83000116D01*
X143126579Y-82993680D01*
X142964198Y-82712427D01*
X142960232Y-82706396D01*
X142772829Y-82454672D01*
X142764597Y-82447505D01*
X142755415Y-82453402D01*
X140942310Y-84266508D01*
X140935646Y-84278051D01*
X140223662Y-84278051D01*
X140577215Y-83924498D01*
X142395731Y-82105980D01*
X142402401Y-82094028D01*
X142394715Y-82082704D01*
X142284773Y-81990452D01*
X142278975Y-81986135D01*
X142005322Y-81806151D01*
X141963306Y-81759488D01*
X141949537Y-81698223D01*
X141967546Y-81638069D01*
X142012715Y-81594450D01*
X142073461Y-81578551D01*
X157580969Y-81578551D01*
X157641715Y-81594450D01*
G37*
%TD.AperFunction*%
%TD*%
M02*
