%TF.GenerationSoftware,KiCad,Pcbnew,(7.0.0)*%
%TF.CreationDate,2023-12-11T14:41:33-05:00*%
%TF.ProjectId,stm32-accel-breakout,73746d33-322d-4616-9363-656c2d627265,rev?*%
%TF.SameCoordinates,Original*%
%TF.FileFunction,Soldermask,Top*%
%TF.FilePolarity,Negative*%
%FSLAX46Y46*%
G04 Gerber Fmt 4.6, Leading zero omitted, Abs format (unit mm)*
G04 Created by KiCad (PCBNEW (7.0.0)) date 2023-12-11 14:41:33*
%MOMM*%
%LPD*%
G01*
G04 APERTURE LIST*
G04 Aperture macros list*
%AMRoundRect*
0 Rectangle with rounded corners*
0 $1 Rounding radius*
0 $2 $3 $4 $5 $6 $7 $8 $9 X,Y pos of 4 corners*
0 Add a 4 corners polygon primitive as box body*
4,1,4,$2,$3,$4,$5,$6,$7,$8,$9,$2,$3,0*
0 Add four circle primitives for the rounded corners*
1,1,$1+$1,$2,$3*
1,1,$1+$1,$4,$5*
1,1,$1+$1,$6,$7*
1,1,$1+$1,$8,$9*
0 Add four rect primitives between the rounded corners*
20,1,$1+$1,$2,$3,$4,$5,0*
20,1,$1+$1,$4,$5,$6,$7,0*
20,1,$1+$1,$6,$7,$8,$9,0*
20,1,$1+$1,$8,$9,$2,$3,0*%
%AMHorizOval*
0 Thick line with rounded ends*
0 $1 width*
0 $2 $3 position (X,Y) of the first rounded end (center of the circle)*
0 $4 $5 position (X,Y) of the second rounded end (center of the circle)*
0 Add line between two ends*
20,1,$1,$2,$3,$4,$5,0*
0 Add two circle primitives to create the rounded ends*
1,1,$1,$2,$3*
1,1,$1,$4,$5*%
%AMRotRect*
0 Rectangle, with rotation*
0 The origin of the aperture is its center*
0 $1 length*
0 $2 width*
0 $3 Rotation angle, in degrees counterclockwise*
0 Add horizontal line*
21,1,$1,$2,0,0,$3*%
%AMFreePoly0*
4,1,6,0.500000,-0.750000,-0.650000,-0.750000,-0.150000,0.000000,-0.650000,0.750000,0.500000,0.750000,0.500000,-0.750000,0.500000,-0.750000,$1*%
%AMFreePoly1*
4,1,6,1.000000,0.000000,0.500000,-0.750000,-0.500000,-0.750000,-0.500000,0.750000,0.500000,0.750000,1.000000,0.000000,1.000000,0.000000,$1*%
G04 Aperture macros list end*
%ADD10C,4.700000*%
%ADD11C,0.650000*%
%ADD12R,0.300000X1.150000*%
%ADD13O,1.000000X2.100000*%
%ADD14O,1.000000X1.600000*%
%ADD15RoundRect,0.150000X-0.512500X-0.150000X0.512500X-0.150000X0.512500X0.150000X-0.512500X0.150000X0*%
%ADD16RoundRect,0.250000X0.054784X0.580112X-0.529784X0.242612X-0.054784X-0.580112X0.529784X-0.242612X0*%
%ADD17RoundRect,0.100000X0.101554X0.174103X-0.201554X-0.000897X-0.101554X-0.174103X0.201554X0.000897X0*%
%ADD18RoundRect,0.100000X-0.000897X0.201554X-0.174103X0.101554X0.000897X-0.201554X0.174103X-0.101554X0*%
%ADD19RotRect,1.950000X1.950000X210.000000*%
%ADD20RoundRect,0.200000X0.275000X-0.200000X0.275000X0.200000X-0.275000X0.200000X-0.275000X-0.200000X0*%
%ADD21RotRect,1.700000X1.700000X150.000000*%
%ADD22HorizOval,1.700000X0.000000X0.000000X0.000000X0.000000X0*%
%ADD23RoundRect,0.200000X0.200000X0.275000X-0.200000X0.275000X-0.200000X-0.275000X0.200000X-0.275000X0*%
%ADD24RoundRect,0.075000X-0.662500X-0.075000X0.662500X-0.075000X0.662500X0.075000X-0.662500X0.075000X0*%
%ADD25RoundRect,0.075000X-0.075000X-0.662500X0.075000X-0.662500X0.075000X0.662500X-0.075000X0.662500X0*%
%ADD26RoundRect,0.200000X-0.275000X0.200000X-0.275000X-0.200000X0.275000X-0.200000X0.275000X0.200000X0*%
%ADD27RoundRect,0.237500X-0.287500X-0.237500X0.287500X-0.237500X0.287500X0.237500X-0.287500X0.237500X0*%
%ADD28RoundRect,0.225000X0.250000X-0.225000X0.250000X0.225000X-0.250000X0.225000X-0.250000X-0.225000X0*%
%ADD29RoundRect,0.225000X0.069856X0.329006X-0.319856X0.104006X-0.069856X-0.329006X0.319856X-0.104006X0*%
%ADD30RoundRect,0.225000X0.225000X0.250000X-0.225000X0.250000X-0.225000X-0.250000X0.225000X-0.250000X0*%
%ADD31RoundRect,0.225000X-0.225000X-0.250000X0.225000X-0.250000X0.225000X0.250000X-0.225000X0.250000X0*%
%ADD32RoundRect,0.225000X-0.250000X0.225000X-0.250000X-0.225000X0.250000X-0.225000X0.250000X0.225000X0*%
%ADD33FreePoly0,120.000000*%
%ADD34FreePoly1,120.000000*%
%ADD35RoundRect,0.150000X0.150000X0.625000X-0.150000X0.625000X-0.150000X-0.625000X0.150000X-0.625000X0*%
%ADD36RoundRect,0.250000X0.350000X0.650000X-0.350000X0.650000X-0.350000X-0.650000X0.350000X-0.650000X0*%
%ADD37C,0.990600*%
%ADD38C,0.787400*%
%ADD39RoundRect,0.200000X-0.035705X-0.338157X0.310705X-0.138157X0.035705X0.338157X-0.310705X0.138157X0*%
%ADD40R,1.200000X1.400000*%
G04 APERTURE END LIST*
D10*
%TO.C,H6*%
X168327215Y-100278051D03*
%TD*%
%TO.C,H5*%
X131327215Y-100278051D03*
%TD*%
%TO.C,H4*%
X140577215Y-84278051D03*
%TD*%
%TO.C,H3*%
X159077215Y-84278051D03*
%TD*%
%TO.C,H2*%
X159077215Y-116278051D03*
%TD*%
%TO.C,H1*%
X140577215Y-116278051D03*
%TD*%
D11*
%TO.C,J1*%
X152717215Y-87633051D03*
X146937215Y-87633051D03*
D12*
X153177214Y-88698050D03*
X152377214Y-88698050D03*
X151077214Y-88698050D03*
X150077214Y-88698050D03*
X149577214Y-88698050D03*
X148577214Y-88698050D03*
X147277214Y-88698050D03*
X146477214Y-88698050D03*
X146777214Y-88698050D03*
X147577214Y-88698050D03*
X148077214Y-88698050D03*
X149077214Y-88698050D03*
X150577214Y-88698050D03*
X151577214Y-88698050D03*
X152077214Y-88698050D03*
X152877214Y-88698050D03*
D13*
X154147214Y-88133050D03*
D14*
X154147214Y-83953050D03*
D13*
X145507214Y-88133050D03*
D14*
X145507214Y-83953050D03*
%TD*%
D15*
%TO.C,U2*%
X156152215Y-90528051D03*
X156152215Y-91478051D03*
X156152215Y-92428051D03*
X158427215Y-92428051D03*
X158427215Y-90528051D03*
%TD*%
D16*
%TO.C,C7*%
X135017215Y-105664578D03*
X133220213Y-106702078D03*
%TD*%
D17*
%TO.C,U3*%
X140186958Y-104472426D03*
X139861958Y-103909509D03*
X139536958Y-103346593D03*
X139211958Y-102783676D03*
D18*
X138221590Y-102518308D03*
X137658673Y-102843308D03*
X137095757Y-103168308D03*
X136532840Y-103493308D03*
D17*
X136267472Y-104483676D03*
X136592472Y-105046593D03*
X136917472Y-105609509D03*
X137242472Y-106172426D03*
D18*
X138232840Y-106437794D03*
X138795757Y-106112794D03*
X139358673Y-105787794D03*
X139921590Y-105462794D03*
D19*
X138227214Y-104478050D03*
%TD*%
D20*
%TO.C,R6*%
X149227215Y-92503051D03*
X149227215Y-90853051D03*
%TD*%
D21*
%TO.C,J3*%
X160949999Y-110149999D03*
D22*
X162219999Y-107950294D03*
X163489999Y-105750590D03*
%TD*%
D23*
%TO.C,R7*%
X143852215Y-105678051D03*
X142202215Y-105678051D03*
%TD*%
%TO.C,R10*%
X153175000Y-115600000D03*
X151525000Y-115600000D03*
%TD*%
D24*
%TO.C,U1*%
X145587500Y-97587500D03*
X145587500Y-98087500D03*
X145587500Y-98587500D03*
X145587500Y-99087500D03*
X145587500Y-99587500D03*
X145587500Y-100087500D03*
X145587500Y-100587500D03*
X145587500Y-101087500D03*
X145587500Y-101587500D03*
X145587500Y-102087500D03*
X145587500Y-102587500D03*
X145587500Y-103087500D03*
D25*
X147000000Y-104500000D03*
X147500000Y-104500000D03*
X148000000Y-104500000D03*
X148500000Y-104500000D03*
X149000000Y-104500000D03*
X149500000Y-104500000D03*
X150000000Y-104500000D03*
X150500000Y-104500000D03*
X151000000Y-104500000D03*
X151500000Y-104500000D03*
X152000000Y-104500000D03*
X152500000Y-104500000D03*
D24*
X153912500Y-103087500D03*
X153912500Y-102587500D03*
X153912500Y-102087500D03*
X153912500Y-101587500D03*
X153912500Y-101087500D03*
X153912500Y-100587500D03*
X153912500Y-100087500D03*
X153912500Y-99587500D03*
X153912500Y-99087500D03*
X153912500Y-98587500D03*
X153912500Y-98087500D03*
X153912500Y-97587500D03*
D25*
X152500000Y-96175000D03*
X152000000Y-96175000D03*
X151500000Y-96175000D03*
X151000000Y-96175000D03*
X150500000Y-96175000D03*
X150000000Y-96175000D03*
X149500000Y-96175000D03*
X149000000Y-96175000D03*
X148500000Y-96175000D03*
X148000000Y-96175000D03*
X147500000Y-96175000D03*
X147000000Y-96175000D03*
%TD*%
D26*
%TO.C,R2*%
X147627215Y-90853051D03*
X147627215Y-92503051D03*
%TD*%
%TO.C,R1*%
X152427215Y-90853051D03*
X152427215Y-92503051D03*
%TD*%
D27*
%TO.C,D2*%
X151425000Y-117300000D03*
X153175000Y-117300000D03*
%TD*%
D28*
%TO.C,C1*%
X160327215Y-92303051D03*
X160327215Y-90753051D03*
%TD*%
D29*
%TO.C,C11*%
X141427215Y-108278051D03*
X140084875Y-109053051D03*
%TD*%
D26*
%TO.C,R3*%
X158627215Y-93853051D03*
X158627215Y-95503051D03*
%TD*%
D30*
%TO.C,C4*%
X155602215Y-105278051D03*
X154052215Y-105278051D03*
%TD*%
D31*
%TO.C,C14*%
X159252215Y-98478051D03*
X160802215Y-98478051D03*
%TD*%
D26*
%TO.C,R4*%
X150827215Y-90853051D03*
X150827215Y-92503051D03*
%TD*%
D32*
%TO.C,C3*%
X156350000Y-97025000D03*
X156350000Y-98575000D03*
%TD*%
D16*
%TO.C,C9*%
X138027215Y-110878051D03*
X136230213Y-111915551D03*
%TD*%
D27*
%TO.C,D1*%
X147022785Y-117330492D03*
X148772785Y-117330492D03*
%TD*%
D33*
%TO.C,JP1*%
X163787500Y-94272132D03*
D34*
X164512500Y-95527868D03*
%TD*%
D23*
%TO.C,R9*%
X148697785Y-115630492D03*
X147047785Y-115630492D03*
%TD*%
D30*
%TO.C,C15*%
X160777215Y-104478051D03*
X159227215Y-104478051D03*
%TD*%
D31*
%TO.C,C6*%
X146552215Y-94278051D03*
X148102215Y-94278051D03*
%TD*%
D28*
%TO.C,C2*%
X154427215Y-92253051D03*
X154427215Y-90703051D03*
%TD*%
%TO.C,C5*%
X142800000Y-100775000D03*
X142800000Y-99225000D03*
%TD*%
D29*
%TO.C,C10*%
X140698385Y-106890551D03*
X139356045Y-107665551D03*
%TD*%
D23*
%TO.C,R5*%
X154802215Y-94078051D03*
X153152215Y-94078051D03*
%TD*%
D16*
%TO.C,C8*%
X136522215Y-108271315D03*
X134725213Y-109308815D03*
%TD*%
D30*
%TO.C,C12*%
X143802215Y-104078051D03*
X142252215Y-104078051D03*
%TD*%
D35*
%TO.C,J2*%
X152027215Y-108453051D03*
X151027215Y-108453051D03*
X150027215Y-108453051D03*
X149027215Y-108453051D03*
X148027215Y-108453051D03*
D36*
X153327215Y-110978051D03*
X146727215Y-110978051D03*
%TD*%
D37*
%TO.C,J4*%
X140970000Y-92700295D03*
X139309882Y-97607705D03*
X137550118Y-96591705D03*
D38*
X139785074Y-93482648D03*
X140884926Y-94117648D03*
X139150074Y-94582500D03*
X140249926Y-95217500D03*
X138515074Y-95682352D03*
X139614926Y-96317352D03*
%TD*%
D30*
%TO.C,C13*%
X143802215Y-102478051D03*
X142252215Y-102478051D03*
%TD*%
D39*
%TO.C,R8*%
X135598273Y-102103051D03*
X137027215Y-101278051D03*
%TD*%
D40*
%TO.C,Y1*%
X159152214Y-100378050D03*
X159152214Y-102578050D03*
X160852214Y-102578050D03*
X160852214Y-100378050D03*
%TD*%
M02*
