%TF.GenerationSoftware,KiCad,Pcbnew,(7.0.0)*%
%TF.CreationDate,2023-12-11T14:41:33-05:00*%
%TF.ProjectId,stm32-accel-breakout,73746d33-322d-4616-9363-656c2d627265,rev?*%
%TF.SameCoordinates,Original*%
%TF.FileFunction,Other,Comment*%
%FSLAX46Y46*%
G04 Gerber Fmt 4.6, Leading zero omitted, Abs format (unit mm)*
G04 Created by KiCad (PCBNEW (7.0.0)) date 2023-12-11 14:41:33*
%MOMM*%
%LPD*%
G01*
G04 APERTURE LIST*
%ADD10C,0.150000*%
%ADD11C,0.070000*%
G04 APERTURE END LIST*
D10*
X183738095Y-80662380D02*
X183738095Y-79662380D01*
X184214285Y-79995714D02*
X184214285Y-80662380D01*
X184214285Y-80090952D02*
X184261904Y-80043333D01*
X184261904Y-80043333D02*
X184357142Y-79995714D01*
X184357142Y-79995714D02*
X184499999Y-79995714D01*
X184499999Y-79995714D02*
X184595237Y-80043333D01*
X184595237Y-80043333D02*
X184642856Y-80138571D01*
X184642856Y-80138571D02*
X184642856Y-80662380D01*
X185071428Y-80614761D02*
X185166666Y-80662380D01*
X185166666Y-80662380D02*
X185357142Y-80662380D01*
X185357142Y-80662380D02*
X185452380Y-80614761D01*
X185452380Y-80614761D02*
X185499999Y-80519523D01*
X185499999Y-80519523D02*
X185499999Y-80471904D01*
X185499999Y-80471904D02*
X185452380Y-80376666D01*
X185452380Y-80376666D02*
X185357142Y-80329047D01*
X185357142Y-80329047D02*
X185214285Y-80329047D01*
X185214285Y-80329047D02*
X185119047Y-80281428D01*
X185119047Y-80281428D02*
X185071428Y-80186190D01*
X185071428Y-80186190D02*
X185071428Y-80138571D01*
X185071428Y-80138571D02*
X185119047Y-80043333D01*
X185119047Y-80043333D02*
X185214285Y-79995714D01*
X185214285Y-79995714D02*
X185357142Y-79995714D01*
X185357142Y-79995714D02*
X185452380Y-80043333D01*
X185785714Y-79995714D02*
X186166666Y-79995714D01*
X185928571Y-79662380D02*
X185928571Y-80519523D01*
X185928571Y-80519523D02*
X185976190Y-80614761D01*
X185976190Y-80614761D02*
X186071428Y-80662380D01*
X186071428Y-80662380D02*
X186166666Y-80662380D01*
X186928571Y-80662380D02*
X186928571Y-80138571D01*
X186928571Y-80138571D02*
X186880952Y-80043333D01*
X186880952Y-80043333D02*
X186785714Y-79995714D01*
X186785714Y-79995714D02*
X186595238Y-79995714D01*
X186595238Y-79995714D02*
X186500000Y-80043333D01*
X186928571Y-80614761D02*
X186833333Y-80662380D01*
X186833333Y-80662380D02*
X186595238Y-80662380D01*
X186595238Y-80662380D02*
X186500000Y-80614761D01*
X186500000Y-80614761D02*
X186452381Y-80519523D01*
X186452381Y-80519523D02*
X186452381Y-80424285D01*
X186452381Y-80424285D02*
X186500000Y-80329047D01*
X186500000Y-80329047D02*
X186595238Y-80281428D01*
X186595238Y-80281428D02*
X186833333Y-80281428D01*
X186833333Y-80281428D02*
X186928571Y-80233809D01*
X187547619Y-80662380D02*
X187452381Y-80614761D01*
X187452381Y-80614761D02*
X187404762Y-80519523D01*
X187404762Y-80519523D02*
X187404762Y-79662380D01*
X188071429Y-80662380D02*
X187976191Y-80614761D01*
X187976191Y-80614761D02*
X187928572Y-80519523D01*
X187928572Y-80519523D02*
X187928572Y-79662380D01*
X189052382Y-79995714D02*
X189052382Y-80995714D01*
X189052382Y-80043333D02*
X189147620Y-79995714D01*
X189147620Y-79995714D02*
X189338096Y-79995714D01*
X189338096Y-79995714D02*
X189433334Y-80043333D01*
X189433334Y-80043333D02*
X189480953Y-80090952D01*
X189480953Y-80090952D02*
X189528572Y-80186190D01*
X189528572Y-80186190D02*
X189528572Y-80471904D01*
X189528572Y-80471904D02*
X189480953Y-80567142D01*
X189480953Y-80567142D02*
X189433334Y-80614761D01*
X189433334Y-80614761D02*
X189338096Y-80662380D01*
X189338096Y-80662380D02*
X189147620Y-80662380D01*
X189147620Y-80662380D02*
X189052382Y-80614761D01*
X190100001Y-80662380D02*
X190004763Y-80614761D01*
X190004763Y-80614761D02*
X189957144Y-80519523D01*
X189957144Y-80519523D02*
X189957144Y-79662380D01*
X190909525Y-79995714D02*
X190909525Y-80662380D01*
X190480954Y-79995714D02*
X190480954Y-80519523D01*
X190480954Y-80519523D02*
X190528573Y-80614761D01*
X190528573Y-80614761D02*
X190623811Y-80662380D01*
X190623811Y-80662380D02*
X190766668Y-80662380D01*
X190766668Y-80662380D02*
X190861906Y-80614761D01*
X190861906Y-80614761D02*
X190909525Y-80567142D01*
X191814287Y-79995714D02*
X191814287Y-80805238D01*
X191814287Y-80805238D02*
X191766668Y-80900476D01*
X191766668Y-80900476D02*
X191719049Y-80948095D01*
X191719049Y-80948095D02*
X191623811Y-80995714D01*
X191623811Y-80995714D02*
X191480954Y-80995714D01*
X191480954Y-80995714D02*
X191385716Y-80948095D01*
X191814287Y-80614761D02*
X191719049Y-80662380D01*
X191719049Y-80662380D02*
X191528573Y-80662380D01*
X191528573Y-80662380D02*
X191433335Y-80614761D01*
X191433335Y-80614761D02*
X191385716Y-80567142D01*
X191385716Y-80567142D02*
X191338097Y-80471904D01*
X191338097Y-80471904D02*
X191338097Y-80186190D01*
X191338097Y-80186190D02*
X191385716Y-80090952D01*
X191385716Y-80090952D02*
X191433335Y-80043333D01*
X191433335Y-80043333D02*
X191528573Y-79995714D01*
X191528573Y-79995714D02*
X191719049Y-79995714D01*
X191719049Y-79995714D02*
X191814287Y-80043333D01*
X192290478Y-80662380D02*
X192290478Y-79995714D01*
X192290478Y-79662380D02*
X192242859Y-79710000D01*
X192242859Y-79710000D02*
X192290478Y-79757619D01*
X192290478Y-79757619D02*
X192338097Y-79710000D01*
X192338097Y-79710000D02*
X192290478Y-79662380D01*
X192290478Y-79662380D02*
X192290478Y-79757619D01*
X192766668Y-79995714D02*
X192766668Y-80662380D01*
X192766668Y-80090952D02*
X192814287Y-80043333D01*
X192814287Y-80043333D02*
X192909525Y-79995714D01*
X192909525Y-79995714D02*
X193052382Y-79995714D01*
X193052382Y-79995714D02*
X193147620Y-80043333D01*
X193147620Y-80043333D02*
X193195239Y-80138571D01*
X193195239Y-80138571D02*
X193195239Y-80662380D01*
X194271430Y-80662380D02*
X194271430Y-79662380D01*
X194700001Y-80662380D02*
X194700001Y-80138571D01*
X194700001Y-80138571D02*
X194652382Y-80043333D01*
X194652382Y-80043333D02*
X194557144Y-79995714D01*
X194557144Y-79995714D02*
X194414287Y-79995714D01*
X194414287Y-79995714D02*
X194319049Y-80043333D01*
X194319049Y-80043333D02*
X194271430Y-80090952D01*
X195033335Y-79995714D02*
X195414287Y-79995714D01*
X195176192Y-79662380D02*
X195176192Y-80519523D01*
X195176192Y-80519523D02*
X195223811Y-80614761D01*
X195223811Y-80614761D02*
X195319049Y-80662380D01*
X195319049Y-80662380D02*
X195414287Y-80662380D01*
X195604764Y-79995714D02*
X195985716Y-79995714D01*
X195747621Y-79662380D02*
X195747621Y-80519523D01*
X195747621Y-80519523D02*
X195795240Y-80614761D01*
X195795240Y-80614761D02*
X195890478Y-80662380D01*
X195890478Y-80662380D02*
X195985716Y-80662380D01*
X196319050Y-79995714D02*
X196319050Y-80995714D01*
X196319050Y-80043333D02*
X196414288Y-79995714D01*
X196414288Y-79995714D02*
X196604764Y-79995714D01*
X196604764Y-79995714D02*
X196700002Y-80043333D01*
X196700002Y-80043333D02*
X196747621Y-80090952D01*
X196747621Y-80090952D02*
X196795240Y-80186190D01*
X196795240Y-80186190D02*
X196795240Y-80471904D01*
X196795240Y-80471904D02*
X196747621Y-80567142D01*
X196747621Y-80567142D02*
X196700002Y-80614761D01*
X196700002Y-80614761D02*
X196604764Y-80662380D01*
X196604764Y-80662380D02*
X196414288Y-80662380D01*
X196414288Y-80662380D02*
X196319050Y-80614761D01*
X197176193Y-80614761D02*
X197271431Y-80662380D01*
X197271431Y-80662380D02*
X197461907Y-80662380D01*
X197461907Y-80662380D02*
X197557145Y-80614761D01*
X197557145Y-80614761D02*
X197604764Y-80519523D01*
X197604764Y-80519523D02*
X197604764Y-80471904D01*
X197604764Y-80471904D02*
X197557145Y-80376666D01*
X197557145Y-80376666D02*
X197461907Y-80329047D01*
X197461907Y-80329047D02*
X197319050Y-80329047D01*
X197319050Y-80329047D02*
X197223812Y-80281428D01*
X197223812Y-80281428D02*
X197176193Y-80186190D01*
X197176193Y-80186190D02*
X197176193Y-80138571D01*
X197176193Y-80138571D02*
X197223812Y-80043333D01*
X197223812Y-80043333D02*
X197319050Y-79995714D01*
X197319050Y-79995714D02*
X197461907Y-79995714D01*
X197461907Y-79995714D02*
X197557145Y-80043333D01*
X198033336Y-80567142D02*
X198080955Y-80614761D01*
X198080955Y-80614761D02*
X198033336Y-80662380D01*
X198033336Y-80662380D02*
X197985717Y-80614761D01*
X197985717Y-80614761D02*
X198033336Y-80567142D01*
X198033336Y-80567142D02*
X198033336Y-80662380D01*
X198033336Y-80043333D02*
X198080955Y-80090952D01*
X198080955Y-80090952D02*
X198033336Y-80138571D01*
X198033336Y-80138571D02*
X197985717Y-80090952D01*
X197985717Y-80090952D02*
X198033336Y-80043333D01*
X198033336Y-80043333D02*
X198033336Y-80138571D01*
X199223811Y-79614761D02*
X198366669Y-80900476D01*
X200271430Y-79614761D02*
X199414288Y-80900476D01*
X201033335Y-79995714D02*
X201033335Y-80805238D01*
X201033335Y-80805238D02*
X200985716Y-80900476D01*
X200985716Y-80900476D02*
X200938097Y-80948095D01*
X200938097Y-80948095D02*
X200842859Y-80995714D01*
X200842859Y-80995714D02*
X200700002Y-80995714D01*
X200700002Y-80995714D02*
X200604764Y-80948095D01*
X201033335Y-80614761D02*
X200938097Y-80662380D01*
X200938097Y-80662380D02*
X200747621Y-80662380D01*
X200747621Y-80662380D02*
X200652383Y-80614761D01*
X200652383Y-80614761D02*
X200604764Y-80567142D01*
X200604764Y-80567142D02*
X200557145Y-80471904D01*
X200557145Y-80471904D02*
X200557145Y-80186190D01*
X200557145Y-80186190D02*
X200604764Y-80090952D01*
X200604764Y-80090952D02*
X200652383Y-80043333D01*
X200652383Y-80043333D02*
X200747621Y-79995714D01*
X200747621Y-79995714D02*
X200938097Y-79995714D01*
X200938097Y-79995714D02*
X201033335Y-80043333D01*
X201509526Y-80662380D02*
X201509526Y-79995714D01*
X201509526Y-79662380D02*
X201461907Y-79710000D01*
X201461907Y-79710000D02*
X201509526Y-79757619D01*
X201509526Y-79757619D02*
X201557145Y-79710000D01*
X201557145Y-79710000D02*
X201509526Y-79662380D01*
X201509526Y-79662380D02*
X201509526Y-79757619D01*
X201842859Y-79995714D02*
X202223811Y-79995714D01*
X201985716Y-79662380D02*
X201985716Y-80519523D01*
X201985716Y-80519523D02*
X202033335Y-80614761D01*
X202033335Y-80614761D02*
X202128573Y-80662380D01*
X202128573Y-80662380D02*
X202223811Y-80662380D01*
X202557145Y-80662380D02*
X202557145Y-79662380D01*
X202985716Y-80662380D02*
X202985716Y-80138571D01*
X202985716Y-80138571D02*
X202938097Y-80043333D01*
X202938097Y-80043333D02*
X202842859Y-79995714D01*
X202842859Y-79995714D02*
X202700002Y-79995714D01*
X202700002Y-79995714D02*
X202604764Y-80043333D01*
X202604764Y-80043333D02*
X202557145Y-80090952D01*
X203890478Y-79995714D02*
X203890478Y-80662380D01*
X203461907Y-79995714D02*
X203461907Y-80519523D01*
X203461907Y-80519523D02*
X203509526Y-80614761D01*
X203509526Y-80614761D02*
X203604764Y-80662380D01*
X203604764Y-80662380D02*
X203747621Y-80662380D01*
X203747621Y-80662380D02*
X203842859Y-80614761D01*
X203842859Y-80614761D02*
X203890478Y-80567142D01*
X204366669Y-80662380D02*
X204366669Y-79662380D01*
X204366669Y-80043333D02*
X204461907Y-79995714D01*
X204461907Y-79995714D02*
X204652383Y-79995714D01*
X204652383Y-79995714D02*
X204747621Y-80043333D01*
X204747621Y-80043333D02*
X204795240Y-80090952D01*
X204795240Y-80090952D02*
X204842859Y-80186190D01*
X204842859Y-80186190D02*
X204842859Y-80471904D01*
X204842859Y-80471904D02*
X204795240Y-80567142D01*
X204795240Y-80567142D02*
X204747621Y-80614761D01*
X204747621Y-80614761D02*
X204652383Y-80662380D01*
X204652383Y-80662380D02*
X204461907Y-80662380D01*
X204461907Y-80662380D02*
X204366669Y-80614761D01*
X205271431Y-80567142D02*
X205319050Y-80614761D01*
X205319050Y-80614761D02*
X205271431Y-80662380D01*
X205271431Y-80662380D02*
X205223812Y-80614761D01*
X205223812Y-80614761D02*
X205271431Y-80567142D01*
X205271431Y-80567142D02*
X205271431Y-80662380D01*
X206176192Y-80614761D02*
X206080954Y-80662380D01*
X206080954Y-80662380D02*
X205890478Y-80662380D01*
X205890478Y-80662380D02*
X205795240Y-80614761D01*
X205795240Y-80614761D02*
X205747621Y-80567142D01*
X205747621Y-80567142D02*
X205700002Y-80471904D01*
X205700002Y-80471904D02*
X205700002Y-80186190D01*
X205700002Y-80186190D02*
X205747621Y-80090952D01*
X205747621Y-80090952D02*
X205795240Y-80043333D01*
X205795240Y-80043333D02*
X205890478Y-79995714D01*
X205890478Y-79995714D02*
X206080954Y-79995714D01*
X206080954Y-79995714D02*
X206176192Y-80043333D01*
X206747621Y-80662380D02*
X206652383Y-80614761D01*
X206652383Y-80614761D02*
X206604764Y-80567142D01*
X206604764Y-80567142D02*
X206557145Y-80471904D01*
X206557145Y-80471904D02*
X206557145Y-80186190D01*
X206557145Y-80186190D02*
X206604764Y-80090952D01*
X206604764Y-80090952D02*
X206652383Y-80043333D01*
X206652383Y-80043333D02*
X206747621Y-79995714D01*
X206747621Y-79995714D02*
X206890478Y-79995714D01*
X206890478Y-79995714D02*
X206985716Y-80043333D01*
X206985716Y-80043333D02*
X207033335Y-80090952D01*
X207033335Y-80090952D02*
X207080954Y-80186190D01*
X207080954Y-80186190D02*
X207080954Y-80471904D01*
X207080954Y-80471904D02*
X207033335Y-80567142D01*
X207033335Y-80567142D02*
X206985716Y-80614761D01*
X206985716Y-80614761D02*
X206890478Y-80662380D01*
X206890478Y-80662380D02*
X206747621Y-80662380D01*
X207509526Y-80662380D02*
X207509526Y-79995714D01*
X207509526Y-80090952D02*
X207557145Y-80043333D01*
X207557145Y-80043333D02*
X207652383Y-79995714D01*
X207652383Y-79995714D02*
X207795240Y-79995714D01*
X207795240Y-79995714D02*
X207890478Y-80043333D01*
X207890478Y-80043333D02*
X207938097Y-80138571D01*
X207938097Y-80138571D02*
X207938097Y-80662380D01*
X207938097Y-80138571D02*
X207985716Y-80043333D01*
X207985716Y-80043333D02*
X208080954Y-79995714D01*
X208080954Y-79995714D02*
X208223811Y-79995714D01*
X208223811Y-79995714D02*
X208319050Y-80043333D01*
X208319050Y-80043333D02*
X208366669Y-80138571D01*
X208366669Y-80138571D02*
X208366669Y-80662380D01*
X209557144Y-79614761D02*
X208700002Y-80900476D01*
X210223811Y-80138571D02*
X210366668Y-80186190D01*
X210366668Y-80186190D02*
X210414287Y-80233809D01*
X210414287Y-80233809D02*
X210461906Y-80329047D01*
X210461906Y-80329047D02*
X210461906Y-80471904D01*
X210461906Y-80471904D02*
X210414287Y-80567142D01*
X210414287Y-80567142D02*
X210366668Y-80614761D01*
X210366668Y-80614761D02*
X210271430Y-80662380D01*
X210271430Y-80662380D02*
X209890478Y-80662380D01*
X209890478Y-80662380D02*
X209890478Y-79662380D01*
X209890478Y-79662380D02*
X210223811Y-79662380D01*
X210223811Y-79662380D02*
X210319049Y-79710000D01*
X210319049Y-79710000D02*
X210366668Y-79757619D01*
X210366668Y-79757619D02*
X210414287Y-79852857D01*
X210414287Y-79852857D02*
X210414287Y-79948095D01*
X210414287Y-79948095D02*
X210366668Y-80043333D01*
X210366668Y-80043333D02*
X210319049Y-80090952D01*
X210319049Y-80090952D02*
X210223811Y-80138571D01*
X210223811Y-80138571D02*
X209890478Y-80138571D01*
X211033335Y-80662380D02*
X210938097Y-80614761D01*
X210938097Y-80614761D02*
X210890478Y-80567142D01*
X210890478Y-80567142D02*
X210842859Y-80471904D01*
X210842859Y-80471904D02*
X210842859Y-80186190D01*
X210842859Y-80186190D02*
X210890478Y-80090952D01*
X210890478Y-80090952D02*
X210938097Y-80043333D01*
X210938097Y-80043333D02*
X211033335Y-79995714D01*
X211033335Y-79995714D02*
X211176192Y-79995714D01*
X211176192Y-79995714D02*
X211271430Y-80043333D01*
X211271430Y-80043333D02*
X211319049Y-80090952D01*
X211319049Y-80090952D02*
X211366668Y-80186190D01*
X211366668Y-80186190D02*
X211366668Y-80471904D01*
X211366668Y-80471904D02*
X211319049Y-80567142D01*
X211319049Y-80567142D02*
X211271430Y-80614761D01*
X211271430Y-80614761D02*
X211176192Y-80662380D01*
X211176192Y-80662380D02*
X211033335Y-80662380D01*
X212223811Y-79995714D02*
X212223811Y-80662380D01*
X211795240Y-79995714D02*
X211795240Y-80519523D01*
X211795240Y-80519523D02*
X211842859Y-80614761D01*
X211842859Y-80614761D02*
X211938097Y-80662380D01*
X211938097Y-80662380D02*
X212080954Y-80662380D01*
X212080954Y-80662380D02*
X212176192Y-80614761D01*
X212176192Y-80614761D02*
X212223811Y-80567142D01*
X212700002Y-79995714D02*
X212700002Y-80662380D01*
X212700002Y-80090952D02*
X212747621Y-80043333D01*
X212747621Y-80043333D02*
X212842859Y-79995714D01*
X212842859Y-79995714D02*
X212985716Y-79995714D01*
X212985716Y-79995714D02*
X213080954Y-80043333D01*
X213080954Y-80043333D02*
X213128573Y-80138571D01*
X213128573Y-80138571D02*
X213128573Y-80662380D01*
X213604764Y-80662380D02*
X213604764Y-79995714D01*
X213604764Y-79662380D02*
X213557145Y-79710000D01*
X213557145Y-79710000D02*
X213604764Y-79757619D01*
X213604764Y-79757619D02*
X213652383Y-79710000D01*
X213652383Y-79710000D02*
X213604764Y-79662380D01*
X213604764Y-79662380D02*
X213604764Y-79757619D01*
X214795239Y-79614761D02*
X213938097Y-80900476D01*
X215128573Y-80662380D02*
X215128573Y-79662380D01*
X215223811Y-80281428D02*
X215509525Y-80662380D01*
X215509525Y-79995714D02*
X215128573Y-80376666D01*
X215938097Y-80662380D02*
X215938097Y-79995714D01*
X215938097Y-79662380D02*
X215890478Y-79710000D01*
X215890478Y-79710000D02*
X215938097Y-79757619D01*
X215938097Y-79757619D02*
X215985716Y-79710000D01*
X215985716Y-79710000D02*
X215938097Y-79662380D01*
X215938097Y-79662380D02*
X215938097Y-79757619D01*
X216842858Y-80614761D02*
X216747620Y-80662380D01*
X216747620Y-80662380D02*
X216557144Y-80662380D01*
X216557144Y-80662380D02*
X216461906Y-80614761D01*
X216461906Y-80614761D02*
X216414287Y-80567142D01*
X216414287Y-80567142D02*
X216366668Y-80471904D01*
X216366668Y-80471904D02*
X216366668Y-80186190D01*
X216366668Y-80186190D02*
X216414287Y-80090952D01*
X216414287Y-80090952D02*
X216461906Y-80043333D01*
X216461906Y-80043333D02*
X216557144Y-79995714D01*
X216557144Y-79995714D02*
X216747620Y-79995714D01*
X216747620Y-79995714D02*
X216842858Y-80043333D01*
X217700001Y-80662380D02*
X217700001Y-80138571D01*
X217700001Y-80138571D02*
X217652382Y-80043333D01*
X217652382Y-80043333D02*
X217557144Y-79995714D01*
X217557144Y-79995714D02*
X217366668Y-79995714D01*
X217366668Y-79995714D02*
X217271430Y-80043333D01*
X217700001Y-80614761D02*
X217604763Y-80662380D01*
X217604763Y-80662380D02*
X217366668Y-80662380D01*
X217366668Y-80662380D02*
X217271430Y-80614761D01*
X217271430Y-80614761D02*
X217223811Y-80519523D01*
X217223811Y-80519523D02*
X217223811Y-80424285D01*
X217223811Y-80424285D02*
X217271430Y-80329047D01*
X217271430Y-80329047D02*
X217366668Y-80281428D01*
X217366668Y-80281428D02*
X217604763Y-80281428D01*
X217604763Y-80281428D02*
X217700001Y-80233809D01*
X218604763Y-80662380D02*
X218604763Y-79662380D01*
X218604763Y-80614761D02*
X218509525Y-80662380D01*
X218509525Y-80662380D02*
X218319049Y-80662380D01*
X218319049Y-80662380D02*
X218223811Y-80614761D01*
X218223811Y-80614761D02*
X218176192Y-80567142D01*
X218176192Y-80567142D02*
X218128573Y-80471904D01*
X218128573Y-80471904D02*
X218128573Y-80186190D01*
X218128573Y-80186190D02*
X218176192Y-80090952D01*
X218176192Y-80090952D02*
X218223811Y-80043333D01*
X218223811Y-80043333D02*
X218319049Y-79995714D01*
X218319049Y-79995714D02*
X218509525Y-79995714D01*
X218509525Y-79995714D02*
X218604763Y-80043333D01*
X219080954Y-80281428D02*
X219842859Y-80281428D01*
X220319049Y-79995714D02*
X220319049Y-80852857D01*
X220319049Y-80852857D02*
X220271430Y-80948095D01*
X220271430Y-80948095D02*
X220176192Y-80995714D01*
X220176192Y-80995714D02*
X220128573Y-80995714D01*
X220319049Y-79662380D02*
X220271430Y-79710000D01*
X220271430Y-79710000D02*
X220319049Y-79757619D01*
X220319049Y-79757619D02*
X220366668Y-79710000D01*
X220366668Y-79710000D02*
X220319049Y-79662380D01*
X220319049Y-79662380D02*
X220319049Y-79757619D01*
X220938096Y-80662380D02*
X220842858Y-80614761D01*
X220842858Y-80614761D02*
X220795239Y-80519523D01*
X220795239Y-80519523D02*
X220795239Y-79662380D01*
X221747620Y-80614761D02*
X221652382Y-80662380D01*
X221652382Y-80662380D02*
X221461906Y-80662380D01*
X221461906Y-80662380D02*
X221366668Y-80614761D01*
X221366668Y-80614761D02*
X221319049Y-80567142D01*
X221319049Y-80567142D02*
X221271430Y-80471904D01*
X221271430Y-80471904D02*
X221271430Y-80186190D01*
X221271430Y-80186190D02*
X221319049Y-80090952D01*
X221319049Y-80090952D02*
X221366668Y-80043333D01*
X221366668Y-80043333D02*
X221461906Y-79995714D01*
X221461906Y-79995714D02*
X221652382Y-79995714D01*
X221652382Y-79995714D02*
X221747620Y-80043333D01*
X222176192Y-79995714D02*
X222176192Y-80995714D01*
X222176192Y-80043333D02*
X222271430Y-79995714D01*
X222271430Y-79995714D02*
X222461906Y-79995714D01*
X222461906Y-79995714D02*
X222557144Y-80043333D01*
X222557144Y-80043333D02*
X222604763Y-80090952D01*
X222604763Y-80090952D02*
X222652382Y-80186190D01*
X222652382Y-80186190D02*
X222652382Y-80471904D01*
X222652382Y-80471904D02*
X222604763Y-80567142D01*
X222604763Y-80567142D02*
X222557144Y-80614761D01*
X222557144Y-80614761D02*
X222461906Y-80662380D01*
X222461906Y-80662380D02*
X222271430Y-80662380D01*
X222271430Y-80662380D02*
X222176192Y-80614761D01*
X223509525Y-80614761D02*
X223414287Y-80662380D01*
X223414287Y-80662380D02*
X223223811Y-80662380D01*
X223223811Y-80662380D02*
X223128573Y-80614761D01*
X223128573Y-80614761D02*
X223080954Y-80567142D01*
X223080954Y-80567142D02*
X223033335Y-80471904D01*
X223033335Y-80471904D02*
X223033335Y-80186190D01*
X223033335Y-80186190D02*
X223080954Y-80090952D01*
X223080954Y-80090952D02*
X223128573Y-80043333D01*
X223128573Y-80043333D02*
X223223811Y-79995714D01*
X223223811Y-79995714D02*
X223414287Y-79995714D01*
X223414287Y-79995714D02*
X223509525Y-80043333D01*
X223938097Y-80662380D02*
X223938097Y-79662380D01*
X223938097Y-80043333D02*
X224033335Y-79995714D01*
X224033335Y-79995714D02*
X224223811Y-79995714D01*
X224223811Y-79995714D02*
X224319049Y-80043333D01*
X224319049Y-80043333D02*
X224366668Y-80090952D01*
X224366668Y-80090952D02*
X224414287Y-80186190D01*
X224414287Y-80186190D02*
X224414287Y-80471904D01*
X224414287Y-80471904D02*
X224366668Y-80567142D01*
X224366668Y-80567142D02*
X224319049Y-80614761D01*
X224319049Y-80614761D02*
X224223811Y-80662380D01*
X224223811Y-80662380D02*
X224033335Y-80662380D01*
X224033335Y-80662380D02*
X223938097Y-80614761D01*
X224842859Y-80281428D02*
X225604764Y-80281428D01*
X225938097Y-79995714D02*
X226319049Y-79995714D01*
X226080954Y-79662380D02*
X226080954Y-80519523D01*
X226080954Y-80519523D02*
X226128573Y-80614761D01*
X226128573Y-80614761D02*
X226223811Y-80662380D01*
X226223811Y-80662380D02*
X226319049Y-80662380D01*
X226795240Y-80662380D02*
X226700002Y-80614761D01*
X226700002Y-80614761D02*
X226652383Y-80567142D01*
X226652383Y-80567142D02*
X226604764Y-80471904D01*
X226604764Y-80471904D02*
X226604764Y-80186190D01*
X226604764Y-80186190D02*
X226652383Y-80090952D01*
X226652383Y-80090952D02*
X226700002Y-80043333D01*
X226700002Y-80043333D02*
X226795240Y-79995714D01*
X226795240Y-79995714D02*
X226938097Y-79995714D01*
X226938097Y-79995714D02*
X227033335Y-80043333D01*
X227033335Y-80043333D02*
X227080954Y-80090952D01*
X227080954Y-80090952D02*
X227128573Y-80186190D01*
X227128573Y-80186190D02*
X227128573Y-80471904D01*
X227128573Y-80471904D02*
X227080954Y-80567142D01*
X227080954Y-80567142D02*
X227033335Y-80614761D01*
X227033335Y-80614761D02*
X226938097Y-80662380D01*
X226938097Y-80662380D02*
X226795240Y-80662380D01*
X227700002Y-80662380D02*
X227604764Y-80614761D01*
X227604764Y-80614761D02*
X227557145Y-80567142D01*
X227557145Y-80567142D02*
X227509526Y-80471904D01*
X227509526Y-80471904D02*
X227509526Y-80186190D01*
X227509526Y-80186190D02*
X227557145Y-80090952D01*
X227557145Y-80090952D02*
X227604764Y-80043333D01*
X227604764Y-80043333D02*
X227700002Y-79995714D01*
X227700002Y-79995714D02*
X227842859Y-79995714D01*
X227842859Y-79995714D02*
X227938097Y-80043333D01*
X227938097Y-80043333D02*
X227985716Y-80090952D01*
X227985716Y-80090952D02*
X228033335Y-80186190D01*
X228033335Y-80186190D02*
X228033335Y-80471904D01*
X228033335Y-80471904D02*
X227985716Y-80567142D01*
X227985716Y-80567142D02*
X227938097Y-80614761D01*
X227938097Y-80614761D02*
X227842859Y-80662380D01*
X227842859Y-80662380D02*
X227700002Y-80662380D01*
X228604764Y-80662380D02*
X228509526Y-80614761D01*
X228509526Y-80614761D02*
X228461907Y-80519523D01*
X228461907Y-80519523D02*
X228461907Y-79662380D01*
X228938098Y-80614761D02*
X229033336Y-80662380D01*
X229033336Y-80662380D02*
X229223812Y-80662380D01*
X229223812Y-80662380D02*
X229319050Y-80614761D01*
X229319050Y-80614761D02*
X229366669Y-80519523D01*
X229366669Y-80519523D02*
X229366669Y-80471904D01*
X229366669Y-80471904D02*
X229319050Y-80376666D01*
X229319050Y-80376666D02*
X229223812Y-80329047D01*
X229223812Y-80329047D02*
X229080955Y-80329047D01*
X229080955Y-80329047D02*
X228985717Y-80281428D01*
X228985717Y-80281428D02*
X228938098Y-80186190D01*
X228938098Y-80186190D02*
X228938098Y-80138571D01*
X228938098Y-80138571D02*
X228985717Y-80043333D01*
X228985717Y-80043333D02*
X229080955Y-79995714D01*
X229080955Y-79995714D02*
X229223812Y-79995714D01*
X229223812Y-79995714D02*
X229319050Y-80043333D01*
X183595238Y-81615714D02*
X183976190Y-81615714D01*
X183738095Y-82282380D02*
X183738095Y-81425238D01*
X183738095Y-81425238D02*
X183785714Y-81330000D01*
X183785714Y-81330000D02*
X183880952Y-81282380D01*
X183880952Y-81282380D02*
X183976190Y-81282380D01*
X184452381Y-82282380D02*
X184357143Y-82234761D01*
X184357143Y-82234761D02*
X184309524Y-82187142D01*
X184309524Y-82187142D02*
X184261905Y-82091904D01*
X184261905Y-82091904D02*
X184261905Y-81806190D01*
X184261905Y-81806190D02*
X184309524Y-81710952D01*
X184309524Y-81710952D02*
X184357143Y-81663333D01*
X184357143Y-81663333D02*
X184452381Y-81615714D01*
X184452381Y-81615714D02*
X184595238Y-81615714D01*
X184595238Y-81615714D02*
X184690476Y-81663333D01*
X184690476Y-81663333D02*
X184738095Y-81710952D01*
X184738095Y-81710952D02*
X184785714Y-81806190D01*
X184785714Y-81806190D02*
X184785714Y-82091904D01*
X184785714Y-82091904D02*
X184738095Y-82187142D01*
X184738095Y-82187142D02*
X184690476Y-82234761D01*
X184690476Y-82234761D02*
X184595238Y-82282380D01*
X184595238Y-82282380D02*
X184452381Y-82282380D01*
X185214286Y-82282380D02*
X185214286Y-81615714D01*
X185214286Y-81806190D02*
X185261905Y-81710952D01*
X185261905Y-81710952D02*
X185309524Y-81663333D01*
X185309524Y-81663333D02*
X185404762Y-81615714D01*
X185404762Y-81615714D02*
X185500000Y-81615714D01*
X186290477Y-81615714D02*
X186671429Y-81615714D01*
X186433334Y-82282380D02*
X186433334Y-81425238D01*
X186433334Y-81425238D02*
X186480953Y-81330000D01*
X186480953Y-81330000D02*
X186576191Y-81282380D01*
X186576191Y-81282380D02*
X186671429Y-81282380D01*
X187004763Y-82282380D02*
X187004763Y-81615714D01*
X187004763Y-81282380D02*
X186957144Y-81330000D01*
X186957144Y-81330000D02*
X187004763Y-81377619D01*
X187004763Y-81377619D02*
X187052382Y-81330000D01*
X187052382Y-81330000D02*
X187004763Y-81282380D01*
X187004763Y-81282380D02*
X187004763Y-81377619D01*
X187480953Y-81615714D02*
X187480953Y-82282380D01*
X187480953Y-81710952D02*
X187528572Y-81663333D01*
X187528572Y-81663333D02*
X187623810Y-81615714D01*
X187623810Y-81615714D02*
X187766667Y-81615714D01*
X187766667Y-81615714D02*
X187861905Y-81663333D01*
X187861905Y-81663333D02*
X187909524Y-81758571D01*
X187909524Y-81758571D02*
X187909524Y-82282380D01*
X188814286Y-82282380D02*
X188814286Y-81758571D01*
X188814286Y-81758571D02*
X188766667Y-81663333D01*
X188766667Y-81663333D02*
X188671429Y-81615714D01*
X188671429Y-81615714D02*
X188480953Y-81615714D01*
X188480953Y-81615714D02*
X188385715Y-81663333D01*
X188814286Y-82234761D02*
X188719048Y-82282380D01*
X188719048Y-82282380D02*
X188480953Y-82282380D01*
X188480953Y-82282380D02*
X188385715Y-82234761D01*
X188385715Y-82234761D02*
X188338096Y-82139523D01*
X188338096Y-82139523D02*
X188338096Y-82044285D01*
X188338096Y-82044285D02*
X188385715Y-81949047D01*
X188385715Y-81949047D02*
X188480953Y-81901428D01*
X188480953Y-81901428D02*
X188719048Y-81901428D01*
X188719048Y-81901428D02*
X188814286Y-81853809D01*
X189433334Y-82282380D02*
X189338096Y-82234761D01*
X189338096Y-82234761D02*
X189290477Y-82139523D01*
X189290477Y-82139523D02*
X189290477Y-81282380D01*
X190747620Y-81758571D02*
X190890477Y-81806190D01*
X190890477Y-81806190D02*
X190938096Y-81853809D01*
X190938096Y-81853809D02*
X190985715Y-81949047D01*
X190985715Y-81949047D02*
X190985715Y-82091904D01*
X190985715Y-82091904D02*
X190938096Y-82187142D01*
X190938096Y-82187142D02*
X190890477Y-82234761D01*
X190890477Y-82234761D02*
X190795239Y-82282380D01*
X190795239Y-82282380D02*
X190414287Y-82282380D01*
X190414287Y-82282380D02*
X190414287Y-81282380D01*
X190414287Y-81282380D02*
X190747620Y-81282380D01*
X190747620Y-81282380D02*
X190842858Y-81330000D01*
X190842858Y-81330000D02*
X190890477Y-81377619D01*
X190890477Y-81377619D02*
X190938096Y-81472857D01*
X190938096Y-81472857D02*
X190938096Y-81568095D01*
X190938096Y-81568095D02*
X190890477Y-81663333D01*
X190890477Y-81663333D02*
X190842858Y-81710952D01*
X190842858Y-81710952D02*
X190747620Y-81758571D01*
X190747620Y-81758571D02*
X190414287Y-81758571D01*
X191604763Y-81282380D02*
X191795239Y-81282380D01*
X191795239Y-81282380D02*
X191890477Y-81330000D01*
X191890477Y-81330000D02*
X191985715Y-81425238D01*
X191985715Y-81425238D02*
X192033334Y-81615714D01*
X192033334Y-81615714D02*
X192033334Y-81949047D01*
X192033334Y-81949047D02*
X191985715Y-82139523D01*
X191985715Y-82139523D02*
X191890477Y-82234761D01*
X191890477Y-82234761D02*
X191795239Y-82282380D01*
X191795239Y-82282380D02*
X191604763Y-82282380D01*
X191604763Y-82282380D02*
X191509525Y-82234761D01*
X191509525Y-82234761D02*
X191414287Y-82139523D01*
X191414287Y-82139523D02*
X191366668Y-81949047D01*
X191366668Y-81949047D02*
X191366668Y-81615714D01*
X191366668Y-81615714D02*
X191414287Y-81425238D01*
X191414287Y-81425238D02*
X191509525Y-81330000D01*
X191509525Y-81330000D02*
X191604763Y-81282380D01*
X192461906Y-82282380D02*
X192461906Y-81282380D01*
X192461906Y-81282380D02*
X192795239Y-81996666D01*
X192795239Y-81996666D02*
X193128572Y-81282380D01*
X193128572Y-81282380D02*
X193128572Y-82282380D01*
X194633334Y-82282380D02*
X194633334Y-81758571D01*
X194633334Y-81758571D02*
X194585715Y-81663333D01*
X194585715Y-81663333D02*
X194490477Y-81615714D01*
X194490477Y-81615714D02*
X194300001Y-81615714D01*
X194300001Y-81615714D02*
X194204763Y-81663333D01*
X194633334Y-82234761D02*
X194538096Y-82282380D01*
X194538096Y-82282380D02*
X194300001Y-82282380D01*
X194300001Y-82282380D02*
X194204763Y-82234761D01*
X194204763Y-82234761D02*
X194157144Y-82139523D01*
X194157144Y-82139523D02*
X194157144Y-82044285D01*
X194157144Y-82044285D02*
X194204763Y-81949047D01*
X194204763Y-81949047D02*
X194300001Y-81901428D01*
X194300001Y-81901428D02*
X194538096Y-81901428D01*
X194538096Y-81901428D02*
X194633334Y-81853809D01*
X195061906Y-82234761D02*
X195157144Y-82282380D01*
X195157144Y-82282380D02*
X195347620Y-82282380D01*
X195347620Y-82282380D02*
X195442858Y-82234761D01*
X195442858Y-82234761D02*
X195490477Y-82139523D01*
X195490477Y-82139523D02*
X195490477Y-82091904D01*
X195490477Y-82091904D02*
X195442858Y-81996666D01*
X195442858Y-81996666D02*
X195347620Y-81949047D01*
X195347620Y-81949047D02*
X195204763Y-81949047D01*
X195204763Y-81949047D02*
X195109525Y-81901428D01*
X195109525Y-81901428D02*
X195061906Y-81806190D01*
X195061906Y-81806190D02*
X195061906Y-81758571D01*
X195061906Y-81758571D02*
X195109525Y-81663333D01*
X195109525Y-81663333D02*
X195204763Y-81615714D01*
X195204763Y-81615714D02*
X195347620Y-81615714D01*
X195347620Y-81615714D02*
X195442858Y-81663333D01*
X195871430Y-82234761D02*
X195966668Y-82282380D01*
X195966668Y-82282380D02*
X196157144Y-82282380D01*
X196157144Y-82282380D02*
X196252382Y-82234761D01*
X196252382Y-82234761D02*
X196300001Y-82139523D01*
X196300001Y-82139523D02*
X196300001Y-82091904D01*
X196300001Y-82091904D02*
X196252382Y-81996666D01*
X196252382Y-81996666D02*
X196157144Y-81949047D01*
X196157144Y-81949047D02*
X196014287Y-81949047D01*
X196014287Y-81949047D02*
X195919049Y-81901428D01*
X195919049Y-81901428D02*
X195871430Y-81806190D01*
X195871430Y-81806190D02*
X195871430Y-81758571D01*
X195871430Y-81758571D02*
X195919049Y-81663333D01*
X195919049Y-81663333D02*
X196014287Y-81615714D01*
X196014287Y-81615714D02*
X196157144Y-81615714D01*
X196157144Y-81615714D02*
X196252382Y-81663333D01*
X196728573Y-82282380D02*
X196728573Y-81615714D01*
X196728573Y-81282380D02*
X196680954Y-81330000D01*
X196680954Y-81330000D02*
X196728573Y-81377619D01*
X196728573Y-81377619D02*
X196776192Y-81330000D01*
X196776192Y-81330000D02*
X196728573Y-81282380D01*
X196728573Y-81282380D02*
X196728573Y-81377619D01*
X197633334Y-81615714D02*
X197633334Y-82425238D01*
X197633334Y-82425238D02*
X197585715Y-82520476D01*
X197585715Y-82520476D02*
X197538096Y-82568095D01*
X197538096Y-82568095D02*
X197442858Y-82615714D01*
X197442858Y-82615714D02*
X197300001Y-82615714D01*
X197300001Y-82615714D02*
X197204763Y-82568095D01*
X197633334Y-82234761D02*
X197538096Y-82282380D01*
X197538096Y-82282380D02*
X197347620Y-82282380D01*
X197347620Y-82282380D02*
X197252382Y-82234761D01*
X197252382Y-82234761D02*
X197204763Y-82187142D01*
X197204763Y-82187142D02*
X197157144Y-82091904D01*
X197157144Y-82091904D02*
X197157144Y-81806190D01*
X197157144Y-81806190D02*
X197204763Y-81710952D01*
X197204763Y-81710952D02*
X197252382Y-81663333D01*
X197252382Y-81663333D02*
X197347620Y-81615714D01*
X197347620Y-81615714D02*
X197538096Y-81615714D01*
X197538096Y-81615714D02*
X197633334Y-81663333D01*
X198109525Y-81615714D02*
X198109525Y-82282380D01*
X198109525Y-81710952D02*
X198157144Y-81663333D01*
X198157144Y-81663333D02*
X198252382Y-81615714D01*
X198252382Y-81615714D02*
X198395239Y-81615714D01*
X198395239Y-81615714D02*
X198490477Y-81663333D01*
X198490477Y-81663333D02*
X198538096Y-81758571D01*
X198538096Y-81758571D02*
X198538096Y-82282380D01*
X199014287Y-82282380D02*
X199014287Y-81615714D01*
X199014287Y-81710952D02*
X199061906Y-81663333D01*
X199061906Y-81663333D02*
X199157144Y-81615714D01*
X199157144Y-81615714D02*
X199300001Y-81615714D01*
X199300001Y-81615714D02*
X199395239Y-81663333D01*
X199395239Y-81663333D02*
X199442858Y-81758571D01*
X199442858Y-81758571D02*
X199442858Y-82282380D01*
X199442858Y-81758571D02*
X199490477Y-81663333D01*
X199490477Y-81663333D02*
X199585715Y-81615714D01*
X199585715Y-81615714D02*
X199728572Y-81615714D01*
X199728572Y-81615714D02*
X199823811Y-81663333D01*
X199823811Y-81663333D02*
X199871430Y-81758571D01*
X199871430Y-81758571D02*
X199871430Y-82282380D01*
X200728572Y-82234761D02*
X200633334Y-82282380D01*
X200633334Y-82282380D02*
X200442858Y-82282380D01*
X200442858Y-82282380D02*
X200347620Y-82234761D01*
X200347620Y-82234761D02*
X200300001Y-82139523D01*
X200300001Y-82139523D02*
X200300001Y-81758571D01*
X200300001Y-81758571D02*
X200347620Y-81663333D01*
X200347620Y-81663333D02*
X200442858Y-81615714D01*
X200442858Y-81615714D02*
X200633334Y-81615714D01*
X200633334Y-81615714D02*
X200728572Y-81663333D01*
X200728572Y-81663333D02*
X200776191Y-81758571D01*
X200776191Y-81758571D02*
X200776191Y-81853809D01*
X200776191Y-81853809D02*
X200300001Y-81949047D01*
X201204763Y-81615714D02*
X201204763Y-82282380D01*
X201204763Y-81710952D02*
X201252382Y-81663333D01*
X201252382Y-81663333D02*
X201347620Y-81615714D01*
X201347620Y-81615714D02*
X201490477Y-81615714D01*
X201490477Y-81615714D02*
X201585715Y-81663333D01*
X201585715Y-81663333D02*
X201633334Y-81758571D01*
X201633334Y-81758571D02*
X201633334Y-82282380D01*
X201966668Y-81615714D02*
X202347620Y-81615714D01*
X202109525Y-81282380D02*
X202109525Y-82139523D01*
X202109525Y-82139523D02*
X202157144Y-82234761D01*
X202157144Y-82234761D02*
X202252382Y-82282380D01*
X202252382Y-82282380D02*
X202347620Y-82282380D01*
X202633335Y-82234761D02*
X202728573Y-82282380D01*
X202728573Y-82282380D02*
X202919049Y-82282380D01*
X202919049Y-82282380D02*
X203014287Y-82234761D01*
X203014287Y-82234761D02*
X203061906Y-82139523D01*
X203061906Y-82139523D02*
X203061906Y-82091904D01*
X203061906Y-82091904D02*
X203014287Y-81996666D01*
X203014287Y-81996666D02*
X202919049Y-81949047D01*
X202919049Y-81949047D02*
X202776192Y-81949047D01*
X202776192Y-81949047D02*
X202680954Y-81901428D01*
X202680954Y-81901428D02*
X202633335Y-81806190D01*
X202633335Y-81806190D02*
X202633335Y-81758571D01*
X202633335Y-81758571D02*
X202680954Y-81663333D01*
X202680954Y-81663333D02*
X202776192Y-81615714D01*
X202776192Y-81615714D02*
X202919049Y-81615714D01*
X202919049Y-81615714D02*
X203014287Y-81663333D01*
D11*
%TO.C,J4*%
X139208216Y-96045698D02*
X138861806Y-95845698D01*
X139322502Y-95847750D02*
X139038839Y-95881925D01*
X138976092Y-95647750D02*
X139059755Y-95959984D01*
X139226763Y-95594526D02*
X139293430Y-95479056D01*
X139503454Y-95534331D02*
X139408216Y-95699288D01*
X139408216Y-95699288D02*
X139061806Y-95499288D01*
X139061806Y-95499288D02*
X139157044Y-95334331D01*
X139407716Y-95281107D02*
X139474382Y-95165637D01*
X139684407Y-95220912D02*
X139589169Y-95385869D01*
X139589169Y-95385869D02*
X139242758Y-95185869D01*
X139242758Y-95185869D02*
X139337996Y-95020912D01*
X139770121Y-95072450D02*
X139423711Y-94872450D01*
X139423711Y-94872450D02*
X139499901Y-94740484D01*
X139499901Y-94740484D02*
X139535445Y-94717017D01*
X139535445Y-94717017D02*
X139561464Y-94710045D01*
X139561464Y-94710045D02*
X139603979Y-94712597D01*
X139603979Y-94712597D02*
X139653467Y-94741168D01*
X139653467Y-94741168D02*
X139676934Y-94776712D01*
X139676934Y-94776712D02*
X139683906Y-94802731D01*
X139683906Y-94802731D02*
X139681354Y-94845246D01*
X139681354Y-94845246D02*
X139605164Y-94977212D01*
X139661806Y-94460057D02*
X139699901Y-94394074D01*
X139699901Y-94394074D02*
X139735445Y-94370607D01*
X139735445Y-94370607D02*
X139787484Y-94356663D01*
X139787484Y-94356663D02*
X139862990Y-94378262D01*
X139862990Y-94378262D02*
X139978461Y-94444929D01*
X139978461Y-94444929D02*
X140034920Y-94499520D01*
X140034920Y-94499520D02*
X140048863Y-94551559D01*
X140048863Y-94551559D02*
X140046312Y-94594074D01*
X140046312Y-94594074D02*
X140008216Y-94660057D01*
X140008216Y-94660057D02*
X139972673Y-94683525D01*
X139972673Y-94683525D02*
X139920634Y-94697469D01*
X139920634Y-94697469D02*
X139845127Y-94675869D01*
X139845127Y-94675869D02*
X139729657Y-94609202D01*
X139729657Y-94609202D02*
X139673198Y-94554611D01*
X139673198Y-94554611D02*
X139659254Y-94502572D01*
X139659254Y-94502572D02*
X139661806Y-94460057D01*
X139833235Y-94163134D02*
X140113662Y-94325039D01*
X140113662Y-94325039D02*
X140156177Y-94327590D01*
X140156177Y-94327590D02*
X140182197Y-94320619D01*
X140182197Y-94320619D02*
X140217740Y-94297151D01*
X140217740Y-94297151D02*
X140255836Y-94231168D01*
X140255836Y-94231168D02*
X140258387Y-94188653D01*
X140258387Y-94188653D02*
X140251416Y-94162633D01*
X140251416Y-94162633D02*
X140227948Y-94127090D01*
X140227948Y-94127090D02*
X139947521Y-93965185D01*
X140014187Y-93849715D02*
X140128473Y-93651766D01*
X140417740Y-93950740D02*
X140071330Y-93750740D01*
D10*
%TO.C,H6*%
X170677215Y-100278051D02*
G75*
G03*
X170677215Y-100278051I-2350000J0D01*
G01*
%TO.C,H5*%
X133677215Y-100278051D02*
G75*
G03*
X133677215Y-100278051I-2350000J0D01*
G01*
%TO.C,H4*%
X142927215Y-84278051D02*
G75*
G03*
X142927215Y-84278051I-2350000J0D01*
G01*
%TO.C,H3*%
X161427215Y-84278051D02*
G75*
G03*
X161427215Y-84278051I-2350000J0D01*
G01*
%TO.C,H2*%
X161427215Y-116278051D02*
G75*
G03*
X161427215Y-116278051I-2350000J0D01*
G01*
%TO.C,H1*%
X142927215Y-116278051D02*
G75*
G03*
X142927215Y-116278051I-2350000J0D01*
G01*
%TD*%
M02*
