M48
; DRILL file {KiCad (7.0.0)} date Mon Dec 11 14:41:33 2023
; FORMAT={-:-/ absolute / inch / decimal}
; #@! TF.CreationDate,2023-12-11T14:41:33-05:00
; #@! TF.GenerationSoftware,Kicad,Pcbnew,(7.0.0)
; #@! TF.FileFunction,Plated,1,2,PTH
FMAT,2
INCH
; #@! TA.AperFunction,Plated,PTH,ViaDrill
T1C0.0157
; #@! TA.AperFunction,Plated,PTH,ComponentDrill
T2C0.0236
; #@! TA.AperFunction,Plated,PTH,ComponentDrill
T3C0.0394
; #@! TA.AperFunction,Plated,PTH,ComponentDrill
T4C0.1063
%
G90
G05
T1
X5.185Y-3.7933
X5.187Y-4.1004
X5.2618Y-3.6732
X5.2913Y-4.0709
X5.315Y-4.2303
X5.3268Y-3.561
X5.3268Y-3.9409
X5.3386Y-3.7441
X5.374Y-4.3346
X5.4055Y-3.439
X5.4114Y-4.4744
X5.4291Y-3.7047
X5.4462Y-4.2861
X5.5276Y-3.4823
X5.5335Y-3.8819
X5.5374Y-4.3445
X5.5433Y-3.9843
X5.5492Y-4.1535
X5.5512Y-4.4291
X5.5571Y-4.0768
X5.5728Y-4.3878
X5.5892Y-3.8744
X5.6024Y-3.8071
X5.6457Y-3.4291
X5.6555Y-4.2992
X5.6595Y-4.2344
X5.6636Y-3.989
X5.6654Y-3.8425
X5.6693Y-4.6594
X5.6713Y-3.2402
X5.6791Y-4.5374
X5.6822Y-3.8003
X5.7018Y-4.1161
X5.7215Y-3.7806
X5.7343Y-4.4626
X5.748Y-3.628
X5.7587Y-4.1704
X5.7736Y-3.6654
X5.7835Y-3.3937
X5.7931Y-3.9865
X5.8099Y-4.065
X5.8356Y-3.9361
X5.8367Y-3.9755
X5.8425Y-3.2421
X5.8661Y-3.8791
X5.876Y-4.4646
X5.8845Y-4.0518
X5.8914Y-3.7161
X5.9016Y-4.5492
X5.9094Y-3.8583
X5.9272Y-3.6929
X5.9331Y-4.0551
X5.937Y-3.4262
X5.9487Y-3.8718
X5.9646Y-3.2382
X5.9726Y-3.9396
X5.9814Y-3.7078
X5.9843Y-4.0079
X6.0033Y-3.9025
X6.0217Y-4.1693
X6.0236Y-4.4744
X6.0315Y-3.3957
X6.0641Y-3.8062
X6.066Y-3.7511
X6.0886Y-4.6004
X6.1024Y-4.5276
X6.1257Y-4.0545
X6.1286Y-4.0937
X6.1319Y-3.2382
X6.1358Y-4.6614
X6.1378Y-4.2047
X6.1437Y-3.4272
X6.1442Y-3.5134
X6.1536Y-3.6854
X6.1546Y-3.7767
X6.1594Y-4.2894
X6.1674Y-4.1004
X6.1838Y-3.933
X6.2067Y-4.1752
X6.2112Y-3.7093
X6.2141Y-3.9581
X6.2146Y-3.8209
X6.2244Y-3.9961
X6.248Y-4.1634
X6.252Y-4.4232
X6.2598Y-3.5039
X6.2874Y-4.2382
X6.2992Y-4.1634
X6.3189Y-3.7992
X6.372Y-4.4626
X6.378Y-3.622
X6.3839Y-4.1122
X6.3878Y-4.0551
X6.3937Y-3.4252
X6.3937Y-3.9528
X6.3976Y-3.878
X6.4646Y-3.878
X6.4665Y-4.0157
X6.4705Y-4.374
X6.5059Y-3.5965
X6.5433Y-4.2362
X6.5551Y-3.7992
X6.5768Y-4.1043
T3
X6.3366Y-4.3366
X6.3866Y-4.25
X6.4366Y-4.1634
T4
X5.1704Y-3.948
X5.5345Y-3.318
X5.5345Y-4.5779
X6.2629Y-3.318
X6.2629Y-4.5779
X6.6271Y-3.948
T2
G00X5.7286Y-3.317
M15
G01X5.7286Y-3.2934
M16
G05
G00X5.7286Y-3.4915
M15
G01X5.7286Y-3.4482
M16
G05
G00X6.0688Y-3.317
M15
G01X6.0688Y-3.2934
M16
G05
G00X6.0688Y-3.4915
M15
G01X6.0688Y-3.4482
M16
G05
T0
M30
