%TF.GenerationSoftware,KiCad,Pcbnew,(7.0.0)*%
%TF.CreationDate,2023-12-11T14:41:33-05:00*%
%TF.ProjectId,stm32-accel-breakout,73746d33-322d-4616-9363-656c2d627265,rev?*%
%TF.SameCoordinates,Original*%
%TF.FileFunction,Legend,Top*%
%TF.FilePolarity,Positive*%
%FSLAX46Y46*%
G04 Gerber Fmt 4.6, Leading zero omitted, Abs format (unit mm)*
G04 Created by KiCad (PCBNEW (7.0.0)) date 2023-12-11 14:41:33*
%MOMM*%
%LPD*%
G01*
G04 APERTURE LIST*
G04 Aperture macros list*
%AMRoundRect*
0 Rectangle with rounded corners*
0 $1 Rounding radius*
0 $2 $3 $4 $5 $6 $7 $8 $9 X,Y pos of 4 corners*
0 Add a 4 corners polygon primitive as box body*
4,1,4,$2,$3,$4,$5,$6,$7,$8,$9,$2,$3,0*
0 Add four circle primitives for the rounded corners*
1,1,$1+$1,$2,$3*
1,1,$1+$1,$4,$5*
1,1,$1+$1,$6,$7*
1,1,$1+$1,$8,$9*
0 Add four rect primitives between the rounded corners*
20,1,$1+$1,$2,$3,$4,$5,0*
20,1,$1+$1,$4,$5,$6,$7,0*
20,1,$1+$1,$6,$7,$8,$9,0*
20,1,$1+$1,$8,$9,$2,$3,0*%
%AMHorizOval*
0 Thick line with rounded ends*
0 $1 width*
0 $2 $3 position (X,Y) of the first rounded end (center of the circle)*
0 $4 $5 position (X,Y) of the second rounded end (center of the circle)*
0 Add line between two ends*
20,1,$1,$2,$3,$4,$5,0*
0 Add two circle primitives to create the rounded ends*
1,1,$1,$2,$3*
1,1,$1,$4,$5*%
%AMRotRect*
0 Rectangle, with rotation*
0 The origin of the aperture is its center*
0 $1 length*
0 $2 width*
0 $3 Rotation angle, in degrees counterclockwise*
0 Add horizontal line*
21,1,$1,$2,0,0,$3*%
%AMFreePoly0*
4,1,6,0.500000,-0.750000,-0.650000,-0.750000,-0.150000,0.000000,-0.650000,0.750000,0.500000,0.750000,0.500000,-0.750000,0.500000,-0.750000,$1*%
%AMFreePoly1*
4,1,6,1.000000,0.000000,0.500000,-0.750000,-0.500000,-0.750000,-0.500000,0.750000,0.500000,0.750000,1.000000,0.000000,1.000000,0.000000,$1*%
G04 Aperture macros list end*
%ADD10C,0.100000*%
%ADD11C,0.150000*%
%ADD12C,0.120000*%
%ADD13C,4.700000*%
%ADD14C,0.650000*%
%ADD15R,0.300000X1.150000*%
%ADD16O,1.000000X2.100000*%
%ADD17O,1.000000X1.600000*%
%ADD18RoundRect,0.150000X-0.512500X-0.150000X0.512500X-0.150000X0.512500X0.150000X-0.512500X0.150000X0*%
%ADD19RoundRect,0.250000X0.054784X0.580112X-0.529784X0.242612X-0.054784X-0.580112X0.529784X-0.242612X0*%
%ADD20RoundRect,0.100000X0.101554X0.174103X-0.201554X-0.000897X-0.101554X-0.174103X0.201554X0.000897X0*%
%ADD21RoundRect,0.100000X-0.000897X0.201554X-0.174103X0.101554X0.000897X-0.201554X0.174103X-0.101554X0*%
%ADD22RotRect,1.950000X1.950000X210.000000*%
%ADD23RoundRect,0.200000X0.275000X-0.200000X0.275000X0.200000X-0.275000X0.200000X-0.275000X-0.200000X0*%
%ADD24RotRect,1.700000X1.700000X150.000000*%
%ADD25HorizOval,1.700000X0.000000X0.000000X0.000000X0.000000X0*%
%ADD26RoundRect,0.200000X0.200000X0.275000X-0.200000X0.275000X-0.200000X-0.275000X0.200000X-0.275000X0*%
%ADD27RoundRect,0.075000X-0.662500X-0.075000X0.662500X-0.075000X0.662500X0.075000X-0.662500X0.075000X0*%
%ADD28RoundRect,0.075000X-0.075000X-0.662500X0.075000X-0.662500X0.075000X0.662500X-0.075000X0.662500X0*%
%ADD29RoundRect,0.200000X-0.275000X0.200000X-0.275000X-0.200000X0.275000X-0.200000X0.275000X0.200000X0*%
%ADD30RoundRect,0.237500X-0.287500X-0.237500X0.287500X-0.237500X0.287500X0.237500X-0.287500X0.237500X0*%
%ADD31RoundRect,0.225000X0.250000X-0.225000X0.250000X0.225000X-0.250000X0.225000X-0.250000X-0.225000X0*%
%ADD32RoundRect,0.225000X0.069856X0.329006X-0.319856X0.104006X-0.069856X-0.329006X0.319856X-0.104006X0*%
%ADD33RoundRect,0.225000X0.225000X0.250000X-0.225000X0.250000X-0.225000X-0.250000X0.225000X-0.250000X0*%
%ADD34RoundRect,0.225000X-0.225000X-0.250000X0.225000X-0.250000X0.225000X0.250000X-0.225000X0.250000X0*%
%ADD35RoundRect,0.225000X-0.250000X0.225000X-0.250000X-0.225000X0.250000X-0.225000X0.250000X0.225000X0*%
%ADD36FreePoly0,120.000000*%
%ADD37FreePoly1,120.000000*%
%ADD38RoundRect,0.150000X0.150000X0.625000X-0.150000X0.625000X-0.150000X-0.625000X0.150000X-0.625000X0*%
%ADD39RoundRect,0.250000X0.350000X0.650000X-0.350000X0.650000X-0.350000X-0.650000X0.350000X-0.650000X0*%
%ADD40C,0.990600*%
%ADD41C,0.787400*%
%ADD42RoundRect,0.200000X-0.035705X-0.338157X0.310705X-0.138157X0.035705X0.338157X-0.310705X0.138157X0*%
%ADD43R,1.200000X1.400000*%
G04 APERTURE END LIST*
D10*
X147007522Y-102514899D02*
X147411583Y-102918960D01*
X147411583Y-102918960D02*
X147465457Y-103026709D01*
X147465457Y-103026709D02*
X147465457Y-103134459D01*
X147465457Y-103134459D02*
X147411583Y-103242209D01*
X147411583Y-103242209D02*
X147357708Y-103296083D01*
X148111955Y-102541836D02*
X147842581Y-102811210D01*
X147842581Y-102811210D02*
X147276896Y-102245525D01*
X148569891Y-101976151D02*
X148569891Y-102030025D01*
X148569891Y-102030025D02*
X148516016Y-102137775D01*
X148516016Y-102137775D02*
X148462141Y-102191650D01*
X148462141Y-102191650D02*
X148354392Y-102245525D01*
X148354392Y-102245525D02*
X148246642Y-102245525D01*
X148246642Y-102245525D02*
X148165830Y-102218587D01*
X148165830Y-102218587D02*
X148031143Y-102137775D01*
X148031143Y-102137775D02*
X147950331Y-102056963D01*
X147950331Y-102056963D02*
X147869519Y-101922276D01*
X147869519Y-101922276D02*
X147842581Y-101841464D01*
X147842581Y-101841464D02*
X147842581Y-101733714D01*
X147842581Y-101733714D02*
X147896456Y-101625964D01*
X147896456Y-101625964D02*
X147950331Y-101572090D01*
X147950331Y-101572090D02*
X148058080Y-101518215D01*
X148058080Y-101518215D02*
X148111955Y-101518215D01*
X148462141Y-101060279D02*
X148866202Y-101464340D01*
X148866202Y-101464340D02*
X148920077Y-101572090D01*
X148920077Y-101572090D02*
X148920077Y-101679839D01*
X148920077Y-101679839D02*
X148866202Y-101787589D01*
X148866202Y-101787589D02*
X148812328Y-101841464D01*
X149566575Y-101087216D02*
X149297201Y-101356590D01*
X149297201Y-101356590D02*
X148731515Y-100790905D01*
X150024511Y-100521531D02*
X150024511Y-100575406D01*
X150024511Y-100575406D02*
X149970636Y-100683155D01*
X149970636Y-100683155D02*
X149916761Y-100737030D01*
X149916761Y-100737030D02*
X149809011Y-100790905D01*
X149809011Y-100790905D02*
X149701262Y-100790905D01*
X149701262Y-100790905D02*
X149620450Y-100763967D01*
X149620450Y-100763967D02*
X149485763Y-100683155D01*
X149485763Y-100683155D02*
X149404950Y-100602343D01*
X149404950Y-100602343D02*
X149324138Y-100467656D01*
X149324138Y-100467656D02*
X149297201Y-100386844D01*
X149297201Y-100386844D02*
X149297201Y-100279094D01*
X149297201Y-100279094D02*
X149351076Y-100171345D01*
X149351076Y-100171345D02*
X149404950Y-100117470D01*
X149404950Y-100117470D02*
X149512700Y-100063595D01*
X149512700Y-100063595D02*
X149566575Y-100063595D01*
X149916761Y-99605659D02*
X150320822Y-100009720D01*
X150320822Y-100009720D02*
X150374697Y-100117470D01*
X150374697Y-100117470D02*
X150374697Y-100225219D01*
X150374697Y-100225219D02*
X150320822Y-100332969D01*
X150320822Y-100332969D02*
X150266947Y-100386844D01*
X151021195Y-99632596D02*
X150751821Y-99901970D01*
X150751821Y-99901970D02*
X150186135Y-99336285D01*
X151479130Y-99066911D02*
X151479130Y-99120786D01*
X151479130Y-99120786D02*
X151425256Y-99228535D01*
X151425256Y-99228535D02*
X151371381Y-99282410D01*
X151371381Y-99282410D02*
X151263631Y-99336285D01*
X151263631Y-99336285D02*
X151155882Y-99336285D01*
X151155882Y-99336285D02*
X151075069Y-99309348D01*
X151075069Y-99309348D02*
X150940382Y-99228535D01*
X150940382Y-99228535D02*
X150859570Y-99147723D01*
X150859570Y-99147723D02*
X150778758Y-99013036D01*
X150778758Y-99013036D02*
X150751821Y-98932224D01*
X150751821Y-98932224D02*
X150751821Y-98824474D01*
X150751821Y-98824474D02*
X150805695Y-98716725D01*
X150805695Y-98716725D02*
X150859570Y-98662850D01*
X150859570Y-98662850D02*
X150967320Y-98608975D01*
X150967320Y-98608975D02*
X151021195Y-98608975D01*
X151371381Y-98151039D02*
X151775442Y-98555100D01*
X151775442Y-98555100D02*
X151829317Y-98662850D01*
X151829317Y-98662850D02*
X151829317Y-98770600D01*
X151829317Y-98770600D02*
X151775442Y-98878349D01*
X151775442Y-98878349D02*
X151721567Y-98932224D01*
X152475814Y-98177977D02*
X152206440Y-98447351D01*
X152206440Y-98447351D02*
X151640755Y-97881665D01*
X152933750Y-97612291D02*
X152933750Y-97666166D01*
X152933750Y-97666166D02*
X152879875Y-97773916D01*
X152879875Y-97773916D02*
X152826001Y-97827791D01*
X152826001Y-97827791D02*
X152718251Y-97881665D01*
X152718251Y-97881665D02*
X152610501Y-97881665D01*
X152610501Y-97881665D02*
X152529689Y-97854728D01*
X152529689Y-97854728D02*
X152395002Y-97773916D01*
X152395002Y-97773916D02*
X152314190Y-97693104D01*
X152314190Y-97693104D02*
X152233378Y-97558417D01*
X152233378Y-97558417D02*
X152206440Y-97477604D01*
X152206440Y-97477604D02*
X152206440Y-97369855D01*
X152206440Y-97369855D02*
X152260315Y-97262105D01*
X152260315Y-97262105D02*
X152314190Y-97208230D01*
X152314190Y-97208230D02*
X152421940Y-97154355D01*
X152421940Y-97154355D02*
X152475814Y-97154355D01*
D11*
%TO.C,J1*%
X149493881Y-84367380D02*
X149493881Y-85081666D01*
X149493881Y-85081666D02*
X149446262Y-85224523D01*
X149446262Y-85224523D02*
X149351024Y-85319761D01*
X149351024Y-85319761D02*
X149208167Y-85367380D01*
X149208167Y-85367380D02*
X149112929Y-85367380D01*
X150493881Y-85367380D02*
X149922453Y-85367380D01*
X150208167Y-85367380D02*
X150208167Y-84367380D01*
X150208167Y-84367380D02*
X150112929Y-84510238D01*
X150112929Y-84510238D02*
X150017691Y-84605476D01*
X150017691Y-84605476D02*
X149922453Y-84653095D01*
%TO.C,C7*%
X134950448Y-107957266D02*
X134933018Y-108022315D01*
X134933018Y-108022315D02*
X134833110Y-108134983D01*
X134833110Y-108134983D02*
X134750631Y-108182602D01*
X134750631Y-108182602D02*
X134603104Y-108212791D01*
X134603104Y-108212791D02*
X134473006Y-108177932D01*
X134473006Y-108177932D02*
X134384148Y-108119263D01*
X134384148Y-108119263D02*
X134247670Y-107978115D01*
X134247670Y-107978115D02*
X134176242Y-107854397D01*
X134176242Y-107854397D02*
X134122243Y-107665630D01*
X134122243Y-107665630D02*
X134115863Y-107559342D01*
X134115863Y-107559342D02*
X134150723Y-107429244D01*
X134150723Y-107429244D02*
X134250631Y-107316577D01*
X134250631Y-107316577D02*
X134333110Y-107268958D01*
X134333110Y-107268958D02*
X134480637Y-107238768D01*
X134480637Y-107238768D02*
X134545686Y-107256198D01*
X134786742Y-107007053D02*
X135364092Y-106673719D01*
X135364092Y-106673719D02*
X135492938Y-107754031D01*
%TO.C,J3*%
X159812634Y-111453308D02*
X159455491Y-112071897D01*
X159455491Y-112071897D02*
X159342823Y-112171806D01*
X159342823Y-112171806D02*
X159212725Y-112206665D01*
X159212725Y-112206665D02*
X159065198Y-112176476D01*
X159065198Y-112176476D02*
X158982719Y-112128857D01*
X160142548Y-111643784D02*
X160678659Y-111953308D01*
X160678659Y-111953308D02*
X160199508Y-112116555D01*
X160199508Y-112116555D02*
X160323226Y-112187984D01*
X160323226Y-112187984D02*
X160381895Y-112276842D01*
X160381895Y-112276842D02*
X160399325Y-112341891D01*
X160399325Y-112341891D02*
X160392945Y-112448179D01*
X160392945Y-112448179D02*
X160273897Y-112654376D01*
X160273897Y-112654376D02*
X160185039Y-112713045D01*
X160185039Y-112713045D02*
X160119990Y-112730475D01*
X160119990Y-112730475D02*
X160013702Y-112724095D01*
X160013702Y-112724095D02*
X159766266Y-112581238D01*
X159766266Y-112581238D02*
X159707597Y-112492380D01*
X159707597Y-112492380D02*
X159690167Y-112427331D01*
%TO.C,C9*%
X137960448Y-113170739D02*
X137943018Y-113235788D01*
X137943018Y-113235788D02*
X137843110Y-113348456D01*
X137843110Y-113348456D02*
X137760631Y-113396075D01*
X137760631Y-113396075D02*
X137613104Y-113426264D01*
X137613104Y-113426264D02*
X137483006Y-113391405D01*
X137483006Y-113391405D02*
X137394148Y-113332736D01*
X137394148Y-113332736D02*
X137257670Y-113191588D01*
X137257670Y-113191588D02*
X137186242Y-113067870D01*
X137186242Y-113067870D02*
X137132243Y-112879103D01*
X137132243Y-112879103D02*
X137125863Y-112772815D01*
X137125863Y-112772815D02*
X137160723Y-112642717D01*
X137160723Y-112642717D02*
X137260631Y-112530050D01*
X137260631Y-112530050D02*
X137343110Y-112482431D01*
X137343110Y-112482431D02*
X137490637Y-112452241D01*
X137490637Y-112452241D02*
X137555686Y-112469671D01*
X138420460Y-113015123D02*
X138585417Y-112919884D01*
X138585417Y-112919884D02*
X138644086Y-112831026D01*
X138644086Y-112831026D02*
X138661516Y-112765977D01*
X138661516Y-112765977D02*
X138672566Y-112594640D01*
X138672566Y-112594640D02*
X138618567Y-112405874D01*
X138618567Y-112405874D02*
X138428091Y-112075959D01*
X138428091Y-112075959D02*
X138339233Y-112017290D01*
X138339233Y-112017290D02*
X138274184Y-111999860D01*
X138274184Y-111999860D02*
X138167896Y-112006240D01*
X138167896Y-112006240D02*
X138002938Y-112101478D01*
X138002938Y-112101478D02*
X137944269Y-112190336D01*
X137944269Y-112190336D02*
X137926840Y-112255385D01*
X137926840Y-112255385D02*
X137933219Y-112361673D01*
X137933219Y-112361673D02*
X138052267Y-112567870D01*
X138052267Y-112567870D02*
X138141125Y-112626539D01*
X138141125Y-112626539D02*
X138206174Y-112643969D01*
X138206174Y-112643969D02*
X138312462Y-112637589D01*
X138312462Y-112637589D02*
X138477420Y-112542351D01*
X138477420Y-112542351D02*
X138536089Y-112453493D01*
X138536089Y-112453493D02*
X138553518Y-112388444D01*
X138553518Y-112388444D02*
X138547139Y-112282156D01*
%TO.C,JP1*%
X161829684Y-94768414D02*
X161859874Y-94915942D01*
X161859874Y-94915942D02*
X161842444Y-94980991D01*
X161842444Y-94980991D02*
X161783775Y-95069849D01*
X161783775Y-95069849D02*
X161660057Y-95141278D01*
X161660057Y-95141278D02*
X161553769Y-95147657D01*
X161553769Y-95147657D02*
X161488720Y-95130228D01*
X161488720Y-95130228D02*
X161399862Y-95071558D01*
X161399862Y-95071558D02*
X161209385Y-94741644D01*
X161209385Y-94741644D02*
X162075411Y-94241644D01*
X162075411Y-94241644D02*
X162242077Y-94530319D01*
X162242077Y-94530319D02*
X162248457Y-94636607D01*
X162248457Y-94636607D02*
X162231027Y-94701656D01*
X162231027Y-94701656D02*
X162172358Y-94790514D01*
X162172358Y-94790514D02*
X162089880Y-94838134D01*
X162089880Y-94838134D02*
X161983592Y-94844513D01*
X161983592Y-94844513D02*
X161918543Y-94827083D01*
X161918543Y-94827083D02*
X161829684Y-94768414D01*
X161829684Y-94768414D02*
X161663018Y-94479739D01*
X162670649Y-95272627D02*
X162765887Y-95437584D01*
X162765887Y-95437584D02*
X162772267Y-95543872D01*
X162772267Y-95543872D02*
X162737407Y-95673970D01*
X162737407Y-95673970D02*
X162596259Y-95810447D01*
X162596259Y-95810447D02*
X162307584Y-95977114D01*
X162307584Y-95977114D02*
X162118818Y-96031113D01*
X162118818Y-96031113D02*
X161988720Y-95996253D01*
X161988720Y-95996253D02*
X161899862Y-95937584D01*
X161899862Y-95937584D02*
X161804623Y-95772627D01*
X161804623Y-95772627D02*
X161798244Y-95666339D01*
X161798244Y-95666339D02*
X161833103Y-95536241D01*
X161833103Y-95536241D02*
X161974251Y-95399763D01*
X161974251Y-95399763D02*
X162262926Y-95233097D01*
X162262926Y-95233097D02*
X162451693Y-95179098D01*
X162451693Y-95179098D02*
X162581791Y-95213958D01*
X162581791Y-95213958D02*
X162670649Y-95272627D01*
X163194458Y-96179891D02*
X163289696Y-96344849D01*
X163289696Y-96344849D02*
X163296076Y-96451137D01*
X163296076Y-96451137D02*
X163261217Y-96581234D01*
X163261217Y-96581234D02*
X163120069Y-96717712D01*
X163120069Y-96717712D02*
X162831394Y-96884378D01*
X162831394Y-96884378D02*
X162642627Y-96938377D01*
X162642627Y-96938377D02*
X162512529Y-96903518D01*
X162512529Y-96903518D02*
X162423671Y-96844849D01*
X162423671Y-96844849D02*
X162328433Y-96679891D01*
X162328433Y-96679891D02*
X162322053Y-96573603D01*
X162322053Y-96573603D02*
X162356913Y-96443506D01*
X162356913Y-96443506D02*
X162498060Y-96307028D01*
X162498060Y-96307028D02*
X162786736Y-96140361D01*
X162786736Y-96140361D02*
X162975502Y-96086363D01*
X162975502Y-96086363D02*
X163105600Y-96121222D01*
X163105600Y-96121222D02*
X163194458Y-96179891D01*
X163551601Y-96798481D02*
X163837315Y-97293353D01*
X162828433Y-97545917D02*
X163694458Y-97045917D01*
%TO.C,C8*%
X136455448Y-110564003D02*
X136438018Y-110629052D01*
X136438018Y-110629052D02*
X136338110Y-110741720D01*
X136338110Y-110741720D02*
X136255631Y-110789339D01*
X136255631Y-110789339D02*
X136108104Y-110819528D01*
X136108104Y-110819528D02*
X135978006Y-110784669D01*
X135978006Y-110784669D02*
X135889148Y-110726000D01*
X135889148Y-110726000D02*
X135752670Y-110584852D01*
X135752670Y-110584852D02*
X135681242Y-110461134D01*
X135681242Y-110461134D02*
X135627243Y-110272367D01*
X135627243Y-110272367D02*
X135620863Y-110166079D01*
X135620863Y-110166079D02*
X135655723Y-110035981D01*
X135655723Y-110035981D02*
X135755631Y-109923314D01*
X135755631Y-109923314D02*
X135838110Y-109875695D01*
X135838110Y-109875695D02*
X135985637Y-109845505D01*
X135985637Y-109845505D02*
X136050686Y-109862935D01*
X136712224Y-109865896D02*
X136605936Y-109872276D01*
X136605936Y-109872276D02*
X136540887Y-109854846D01*
X136540887Y-109854846D02*
X136452029Y-109796177D01*
X136452029Y-109796177D02*
X136428219Y-109754937D01*
X136428219Y-109754937D02*
X136421840Y-109648649D01*
X136421840Y-109648649D02*
X136439269Y-109583600D01*
X136439269Y-109583600D02*
X136497938Y-109494742D01*
X136497938Y-109494742D02*
X136662896Y-109399504D01*
X136662896Y-109399504D02*
X136769184Y-109393124D01*
X136769184Y-109393124D02*
X136834233Y-109410554D01*
X136834233Y-109410554D02*
X136923091Y-109469223D01*
X136923091Y-109469223D02*
X136946901Y-109510462D01*
X136946901Y-109510462D02*
X136953280Y-109616751D01*
X136953280Y-109616751D02*
X136935851Y-109681799D01*
X136935851Y-109681799D02*
X136877181Y-109770658D01*
X136877181Y-109770658D02*
X136712224Y-109865896D01*
X136712224Y-109865896D02*
X136653555Y-109954754D01*
X136653555Y-109954754D02*
X136636125Y-110019803D01*
X136636125Y-110019803D02*
X136642505Y-110126091D01*
X136642505Y-110126091D02*
X136737743Y-110291048D01*
X136737743Y-110291048D02*
X136826602Y-110349718D01*
X136826602Y-110349718D02*
X136891650Y-110367147D01*
X136891650Y-110367147D02*
X136997938Y-110360768D01*
X136997938Y-110360768D02*
X137162896Y-110265529D01*
X137162896Y-110265529D02*
X137221565Y-110176671D01*
X137221565Y-110176671D02*
X137238995Y-110111622D01*
X137238995Y-110111622D02*
X137232615Y-110005334D01*
X137232615Y-110005334D02*
X137137377Y-109840377D01*
X137137377Y-109840377D02*
X137048518Y-109781708D01*
X137048518Y-109781708D02*
X136983470Y-109764278D01*
X136983470Y-109764278D02*
X136877181Y-109770658D01*
%TO.C,J2*%
X149693881Y-112445431D02*
X149693881Y-113159717D01*
X149693881Y-113159717D02*
X149646262Y-113302574D01*
X149646262Y-113302574D02*
X149551024Y-113397812D01*
X149551024Y-113397812D02*
X149408167Y-113445431D01*
X149408167Y-113445431D02*
X149312929Y-113445431D01*
X150122453Y-112540670D02*
X150170072Y-112493051D01*
X150170072Y-112493051D02*
X150265310Y-112445431D01*
X150265310Y-112445431D02*
X150503405Y-112445431D01*
X150503405Y-112445431D02*
X150598643Y-112493051D01*
X150598643Y-112493051D02*
X150646262Y-112540670D01*
X150646262Y-112540670D02*
X150693881Y-112635908D01*
X150693881Y-112635908D02*
X150693881Y-112731146D01*
X150693881Y-112731146D02*
X150646262Y-112874003D01*
X150646262Y-112874003D02*
X150074834Y-113445431D01*
X150074834Y-113445431D02*
X150693881Y-113445431D01*
%TO.C,J4*%
X136647200Y-93522365D02*
X137265789Y-93879508D01*
X137265789Y-93879508D02*
X137365698Y-93992176D01*
X137365698Y-93992176D02*
X137400557Y-94122274D01*
X137400557Y-94122274D02*
X137370368Y-94269801D01*
X137370368Y-94269801D02*
X137322749Y-94352280D01*
X137388256Y-92905485D02*
X137965606Y-93238818D01*
X136939294Y-92921205D02*
X137438836Y-93484545D01*
X137438836Y-93484545D02*
X137748360Y-92948434D01*
%TO.C,Y1*%
X162343405Y-101954241D02*
X162819595Y-101954241D01*
X161819595Y-102287574D02*
X162343405Y-101954241D01*
X162343405Y-101954241D02*
X161819595Y-101620908D01*
X162819595Y-100763765D02*
X162819595Y-101335193D01*
X162819595Y-101049479D02*
X161819595Y-101049479D01*
X161819595Y-101049479D02*
X161962453Y-101144717D01*
X161962453Y-101144717D02*
X162057691Y-101239955D01*
X162057691Y-101239955D02*
X162105310Y-101335193D01*
D12*
%TO.C,J1*%
X154407215Y-86878051D02*
X154407215Y-84958051D01*
X145247215Y-84958051D02*
X145247215Y-86878051D01*
%TO.C,U2*%
X157289715Y-89918051D02*
X155489715Y-89918051D01*
X157289715Y-89918051D02*
X158089715Y-89918051D01*
X157289715Y-93038051D02*
X156489715Y-93038051D01*
X157289715Y-93038051D02*
X158089715Y-93038051D01*
%TO.C,C7*%
X134712465Y-106689231D02*
X134259963Y-106950483D01*
X133977465Y-105416173D02*
X133524963Y-105677425D01*
%TO.C,U3*%
X138999529Y-101595737D02*
X139337029Y-102180305D01*
X140524961Y-105587865D02*
X141109529Y-105250365D01*
X138414961Y-101933237D02*
X138999529Y-101595737D01*
X138039469Y-107022865D02*
X137454901Y-107360365D01*
X135929469Y-103368237D02*
X135344901Y-103705737D01*
X137454901Y-107360365D02*
X137117401Y-106775797D01*
X135344901Y-103705737D02*
X135682401Y-104290305D01*
%TO.C,R6*%
X148704715Y-91915309D02*
X148704715Y-91440793D01*
X149749715Y-91915309D02*
X149749715Y-91440793D01*
%TO.C,J3*%
X161436814Y-111966814D02*
X160285000Y-111301814D01*
X162101814Y-110815000D02*
X161436814Y-111966814D01*
X162736814Y-109715148D02*
X165306814Y-105263777D01*
X162736814Y-109715148D02*
X160433186Y-108385148D01*
X165306814Y-105263777D02*
X163003186Y-103933777D01*
X160433186Y-108385148D02*
X163003186Y-103933777D01*
%TO.C,R7*%
X143264473Y-106200551D02*
X142789957Y-106200551D01*
X143264473Y-105155551D02*
X142789957Y-105155551D01*
%TO.C,R10*%
X152587258Y-116122500D02*
X152112742Y-116122500D01*
X152587258Y-115077500D02*
X152112742Y-115077500D01*
%TO.C,U1*%
X146140000Y-96727500D02*
X146140000Y-97177500D01*
X146140000Y-97177500D02*
X144850000Y-97177500D01*
X146140000Y-103947500D02*
X146140000Y-103497500D01*
X146590000Y-96727500D02*
X146140000Y-96727500D01*
X146590000Y-103947500D02*
X146140000Y-103947500D01*
X152910000Y-96727500D02*
X153360000Y-96727500D01*
X152910000Y-103947500D02*
X153360000Y-103947500D01*
X153360000Y-96727500D02*
X153360000Y-97177500D01*
X153360000Y-103947500D02*
X153360000Y-103497500D01*
%TO.C,R2*%
X148149715Y-91440793D02*
X148149715Y-91915309D01*
X147104715Y-91440793D02*
X147104715Y-91915309D01*
%TO.C,R1*%
X152949715Y-91440793D02*
X152949715Y-91915309D01*
X151904715Y-91440793D02*
X151904715Y-91915309D01*
%TO.C,D2*%
X150640000Y-116565000D02*
X150640000Y-118035000D01*
X150640000Y-118035000D02*
X153100000Y-118035000D01*
X153100000Y-116565000D02*
X150640000Y-116565000D01*
%TO.C,C1*%
X159817215Y-91668631D02*
X159817215Y-91387471D01*
X160837215Y-91668631D02*
X160837215Y-91387471D01*
%TO.C,C11*%
X141132791Y-109036934D02*
X140889299Y-109177514D01*
X140622791Y-108153588D02*
X140379299Y-108294168D01*
%TO.C,R3*%
X159149715Y-94440793D02*
X159149715Y-94915309D01*
X158104715Y-94440793D02*
X158104715Y-94915309D01*
%TO.C,C4*%
X154967795Y-105788051D02*
X154686635Y-105788051D01*
X154967795Y-104768051D02*
X154686635Y-104768051D01*
%TO.C,C14*%
X159886635Y-97968051D02*
X160167795Y-97968051D01*
X159886635Y-98988051D02*
X160167795Y-98988051D01*
%TO.C,R4*%
X151349715Y-91440793D02*
X151349715Y-91915309D01*
X150304715Y-91440793D02*
X150304715Y-91915309D01*
%TO.C,C3*%
X156860000Y-97659420D02*
X156860000Y-97940580D01*
X155840000Y-97659420D02*
X155840000Y-97940580D01*
%TO.C,C9*%
X137722465Y-111902704D02*
X137269963Y-112163956D01*
X136987465Y-110629646D02*
X136534963Y-110890898D01*
%TO.C,D1*%
X146237785Y-116595492D02*
X146237785Y-118065492D01*
X146237785Y-118065492D02*
X148697785Y-118065492D01*
X148697785Y-116595492D02*
X146237785Y-116595492D01*
%TO.C,JP1*%
X164316025Y-93187564D02*
X165716025Y-95612436D01*
X162583975Y-94187564D02*
X164316025Y-93187564D01*
X165716025Y-95612436D02*
X163983975Y-96612436D01*
X163983975Y-96612436D02*
X162583975Y-94187564D01*
%TO.C,R9*%
X148110043Y-116152992D02*
X147635527Y-116152992D01*
X148110043Y-115107992D02*
X147635527Y-115107992D01*
%TO.C,C15*%
X160142795Y-104988051D02*
X159861635Y-104988051D01*
X160142795Y-103968051D02*
X159861635Y-103968051D01*
%TO.C,C6*%
X147186635Y-93768051D02*
X147467795Y-93768051D01*
X147186635Y-94788051D02*
X147467795Y-94788051D01*
%TO.C,C2*%
X153917215Y-91618631D02*
X153917215Y-91337471D01*
X154937215Y-91618631D02*
X154937215Y-91337471D01*
%TO.C,C5*%
X142290000Y-100140580D02*
X142290000Y-99859420D01*
X143310000Y-100140580D02*
X143310000Y-99859420D01*
%TO.C,C10*%
X140403961Y-107649434D02*
X140160469Y-107790014D01*
X139893961Y-106766088D02*
X139650469Y-106906668D01*
%TO.C,R5*%
X154214473Y-94600551D02*
X153739957Y-94600551D01*
X154214473Y-93555551D02*
X153739957Y-93555551D01*
%TO.C,C8*%
X136217465Y-109295968D02*
X135764963Y-109557220D01*
X135482465Y-108022910D02*
X135029963Y-108284162D01*
%TO.C,C12*%
X143167795Y-104588051D02*
X142886635Y-104588051D01*
X143167795Y-103568051D02*
X142886635Y-103568051D01*
%TO.C,J2*%
X153637215Y-109818051D02*
X153637215Y-108668051D01*
X153637215Y-108668051D02*
X152587215Y-108668051D01*
X152587215Y-108668051D02*
X152587215Y-107678051D01*
X152467215Y-111788051D02*
X147587215Y-111788051D01*
X146417215Y-109818051D02*
X146417215Y-108668051D01*
X146417215Y-108668051D02*
X147467215Y-108668051D01*
%TO.C,J4*%
X139552648Y-92615222D02*
X140102574Y-92932722D01*
X139235148Y-93165148D02*
X139552648Y-92615222D01*
%TO.C,C13*%
X143167795Y-102988051D02*
X142886635Y-102988051D01*
X143167795Y-101968051D02*
X142886635Y-101968051D01*
%TO.C,R8*%
X135846023Y-101356682D02*
X136256965Y-101119424D01*
X136368523Y-102261678D02*
X136779465Y-102024420D01*
%TO.C,Y1*%
X161652215Y-99478051D02*
X158352215Y-99478051D01*
X158352215Y-99478051D02*
X158352215Y-103478051D01*
%TD*%
%LPC*%
D13*
%TO.C,H6*%
X168327215Y-100278051D03*
%TD*%
%TO.C,H5*%
X131327215Y-100278051D03*
%TD*%
%TO.C,H4*%
X140577215Y-84278051D03*
%TD*%
%TO.C,H3*%
X159077215Y-84278051D03*
%TD*%
%TO.C,H2*%
X159077215Y-116278051D03*
%TD*%
%TO.C,H1*%
X140577215Y-116278051D03*
%TD*%
D14*
%TO.C,J1*%
X152717215Y-87633051D03*
X146937215Y-87633051D03*
D15*
X153177214Y-88698050D03*
X152377214Y-88698050D03*
X151077214Y-88698050D03*
X150077214Y-88698050D03*
X149577214Y-88698050D03*
X148577214Y-88698050D03*
X147277214Y-88698050D03*
X146477214Y-88698050D03*
X146777214Y-88698050D03*
X147577214Y-88698050D03*
X148077214Y-88698050D03*
X149077214Y-88698050D03*
X150577214Y-88698050D03*
X151577214Y-88698050D03*
X152077214Y-88698050D03*
X152877214Y-88698050D03*
D16*
X154147214Y-88133050D03*
D17*
X154147214Y-83953050D03*
D16*
X145507214Y-88133050D03*
D17*
X145507214Y-83953050D03*
%TD*%
D18*
%TO.C,U2*%
X156152215Y-90528051D03*
X156152215Y-91478051D03*
X156152215Y-92428051D03*
X158427215Y-92428051D03*
X158427215Y-90528051D03*
%TD*%
D19*
%TO.C,C7*%
X135017215Y-105664578D03*
X133220213Y-106702078D03*
%TD*%
D20*
%TO.C,U3*%
X140186958Y-104472426D03*
X139861958Y-103909509D03*
X139536958Y-103346593D03*
X139211958Y-102783676D03*
D21*
X138221590Y-102518308D03*
X137658673Y-102843308D03*
X137095757Y-103168308D03*
X136532840Y-103493308D03*
D20*
X136267472Y-104483676D03*
X136592472Y-105046593D03*
X136917472Y-105609509D03*
X137242472Y-106172426D03*
D21*
X138232840Y-106437794D03*
X138795757Y-106112794D03*
X139358673Y-105787794D03*
X139921590Y-105462794D03*
D22*
X138227214Y-104478050D03*
%TD*%
D23*
%TO.C,R6*%
X149227215Y-92503051D03*
X149227215Y-90853051D03*
%TD*%
D24*
%TO.C,J3*%
X160949999Y-110149999D03*
D25*
X162219999Y-107950294D03*
X163489999Y-105750590D03*
%TD*%
D26*
%TO.C,R7*%
X143852215Y-105678051D03*
X142202215Y-105678051D03*
%TD*%
%TO.C,R10*%
X153175000Y-115600000D03*
X151525000Y-115600000D03*
%TD*%
D27*
%TO.C,U1*%
X145587500Y-97587500D03*
X145587500Y-98087500D03*
X145587500Y-98587500D03*
X145587500Y-99087500D03*
X145587500Y-99587500D03*
X145587500Y-100087500D03*
X145587500Y-100587500D03*
X145587500Y-101087500D03*
X145587500Y-101587500D03*
X145587500Y-102087500D03*
X145587500Y-102587500D03*
X145587500Y-103087500D03*
D28*
X147000000Y-104500000D03*
X147500000Y-104500000D03*
X148000000Y-104500000D03*
X148500000Y-104500000D03*
X149000000Y-104500000D03*
X149500000Y-104500000D03*
X150000000Y-104500000D03*
X150500000Y-104500000D03*
X151000000Y-104500000D03*
X151500000Y-104500000D03*
X152000000Y-104500000D03*
X152500000Y-104500000D03*
D27*
X153912500Y-103087500D03*
X153912500Y-102587500D03*
X153912500Y-102087500D03*
X153912500Y-101587500D03*
X153912500Y-101087500D03*
X153912500Y-100587500D03*
X153912500Y-100087500D03*
X153912500Y-99587500D03*
X153912500Y-99087500D03*
X153912500Y-98587500D03*
X153912500Y-98087500D03*
X153912500Y-97587500D03*
D28*
X152500000Y-96175000D03*
X152000000Y-96175000D03*
X151500000Y-96175000D03*
X151000000Y-96175000D03*
X150500000Y-96175000D03*
X150000000Y-96175000D03*
X149500000Y-96175000D03*
X149000000Y-96175000D03*
X148500000Y-96175000D03*
X148000000Y-96175000D03*
X147500000Y-96175000D03*
X147000000Y-96175000D03*
%TD*%
D29*
%TO.C,R2*%
X147627215Y-90853051D03*
X147627215Y-92503051D03*
%TD*%
%TO.C,R1*%
X152427215Y-90853051D03*
X152427215Y-92503051D03*
%TD*%
D30*
%TO.C,D2*%
X151425000Y-117300000D03*
X153175000Y-117300000D03*
%TD*%
D31*
%TO.C,C1*%
X160327215Y-92303051D03*
X160327215Y-90753051D03*
%TD*%
D32*
%TO.C,C11*%
X141427215Y-108278051D03*
X140084875Y-109053051D03*
%TD*%
D29*
%TO.C,R3*%
X158627215Y-93853051D03*
X158627215Y-95503051D03*
%TD*%
D33*
%TO.C,C4*%
X155602215Y-105278051D03*
X154052215Y-105278051D03*
%TD*%
D34*
%TO.C,C14*%
X159252215Y-98478051D03*
X160802215Y-98478051D03*
%TD*%
D29*
%TO.C,R4*%
X150827215Y-90853051D03*
X150827215Y-92503051D03*
%TD*%
D35*
%TO.C,C3*%
X156350000Y-97025000D03*
X156350000Y-98575000D03*
%TD*%
D19*
%TO.C,C9*%
X138027215Y-110878051D03*
X136230213Y-111915551D03*
%TD*%
D30*
%TO.C,D1*%
X147022785Y-117330492D03*
X148772785Y-117330492D03*
%TD*%
D36*
%TO.C,JP1*%
X163787500Y-94272132D03*
D37*
X164512500Y-95527868D03*
%TD*%
D26*
%TO.C,R9*%
X148697785Y-115630492D03*
X147047785Y-115630492D03*
%TD*%
D33*
%TO.C,C15*%
X160777215Y-104478051D03*
X159227215Y-104478051D03*
%TD*%
D34*
%TO.C,C6*%
X146552215Y-94278051D03*
X148102215Y-94278051D03*
%TD*%
D31*
%TO.C,C2*%
X154427215Y-92253051D03*
X154427215Y-90703051D03*
%TD*%
%TO.C,C5*%
X142800000Y-100775000D03*
X142800000Y-99225000D03*
%TD*%
D32*
%TO.C,C10*%
X140698385Y-106890551D03*
X139356045Y-107665551D03*
%TD*%
D26*
%TO.C,R5*%
X154802215Y-94078051D03*
X153152215Y-94078051D03*
%TD*%
D19*
%TO.C,C8*%
X136522215Y-108271315D03*
X134725213Y-109308815D03*
%TD*%
D33*
%TO.C,C12*%
X143802215Y-104078051D03*
X142252215Y-104078051D03*
%TD*%
D38*
%TO.C,J2*%
X152027215Y-108453051D03*
X151027215Y-108453051D03*
X150027215Y-108453051D03*
X149027215Y-108453051D03*
X148027215Y-108453051D03*
D39*
X153327215Y-110978051D03*
X146727215Y-110978051D03*
%TD*%
D40*
%TO.C,J4*%
X140970000Y-92700295D03*
X139309882Y-97607705D03*
X137550118Y-96591705D03*
D41*
X139785074Y-93482648D03*
X140884926Y-94117648D03*
X139150074Y-94582500D03*
X140249926Y-95217500D03*
X138515074Y-95682352D03*
X139614926Y-96317352D03*
%TD*%
D33*
%TO.C,C13*%
X143802215Y-102478051D03*
X142252215Y-102478051D03*
%TD*%
D42*
%TO.C,R8*%
X135598273Y-102103051D03*
X137027215Y-101278051D03*
%TD*%
D43*
%TO.C,Y1*%
X159152214Y-100378050D03*
X159152214Y-102578050D03*
X160852214Y-102578050D03*
X160852214Y-100378050D03*
%TD*%
M02*
